<svg width="18" height="19" viewBox="0 0 18 19" fill="none" xmlns="http://www.w3.org/2000/svg">
<path d="M2.25 5.17773H3.75H15.75" stroke="#EC6060" stroke-width="1.2" stroke-linecap="round" stroke-linejoin="round"/>
<path d="M6 5.17773V3.67773C6 3.27991 6.15804 2.89838 6.43934 2.61707C6.72064 2.33577 7.10218 2.17773 7.5 2.17773H10.5C10.8978 2.17773 11.2794 2.33577 11.5607 2.61707C11.842 2.89838 12 3.27991 12 3.67773V5.17773M14.25 5.17773V15.6777C14.25 16.0756 14.092 16.4571 13.8107 16.7384C13.5294 17.0197 13.1478 17.1777 12.75 17.1777H5.25C4.85218 17.1777 4.47064 17.0197 4.18934 16.7384C3.90804 16.4571 3.75 16.0756 3.75 15.6777V5.17773H14.25Z" stroke="#EC6060" stroke-width="1.2" stroke-linecap="round" stroke-linejoin="round"/>
<path d="M10.5 8.92773V13.4277" stroke="#EC6060" stroke-width="1.2" stroke-linecap="round" stroke-linejoin="round"/>
<path d="M7.5 8.92773V13.4277" stroke="#EC6060" stroke-width="1.2" stroke-linecap="round" stroke-linejoin="round"/>
</svg>
