<svg width="121" height="89" viewBox="0 0 121 89" fill="none" xmlns="http://www.w3.org/2000/svg">
<path d="M32.1833 12.6396C32.1386 11.7175 32.3743 10.8017 32.8659 9.98823C33.363 9.1631 34.0831 8.46011 34.9615 7.94216C35.8422 7.42364 36.8235 7.05421 37.8558 6.85253C38.37 6.74761 38.8927 6.67879 39.419 6.64671C39.9515 6.61645 40.443 6.61947 40.972 6.60736L47.1156 6.48932L53.2591 6.39549L52.8052 6.59526L55.4265 3.49588L58.0204 0.402556L58.5767 1.40441L49.0371 1.50429L39.5044 1.57088C37.9794 1.5997 36.4626 1.77836 34.982 2.10358C33.5195 2.42022 32.1135 2.91527 30.8044 3.57458C29.5211 4.22787 28.3811 5.08092 27.4391 6.09282C26.509 7.0964 25.8129 8.25382 25.3912 9.4979C24.9842 10.7565 24.8476 12.0718 24.9885 13.3751C25.1189 14.6702 25.5438 15.9284 26.2377 17.0738C26.9292 18.2351 27.8546 19.2742 28.9682 20.1399C30.0952 21.0119 31.3703 21.7208 32.7464 22.2405C34.1324 22.7806 35.5918 23.1581 37.0879 23.3634C37.8399 23.4629 38.5977 23.5246 39.3576 23.548H39.931H40.5283H41.7195C44.9005 23.5722 48.0815 23.5783 51.2761 23.6206L52.6823 23.6388L51.9451 24.677L47.9176 30.3249L45.9142 33.1428L43.897 35.9546L42.9448 35.3704L46.8289 31.0816L50.7232 26.8048L54.6346 22.5401C55.9384 21.1175 57.2593 19.7071 58.5733 18.3027H58.5528V18.2815V18.3027H58.5733C57.3583 19.7858 56.1569 21.2749 54.9316 22.752L51.2625 27.174L47.5763 31.5931L43.8731 36L42.9209 35.4158L44.8459 32.5465L46.764 29.6832L50.5935 23.9687L51.2761 25.0281C48.0951 25.0705 44.9141 25.0765 41.7195 25.1007H40.5283H39.931C39.7228 25.1007 39.518 25.1007 39.3098 25.1007C38.4797 25.0879 37.6511 25.0313 36.8285 24.9312C35.1697 24.7357 33.5492 24.3385 32.0126 23.7508C30.4526 23.1699 29.0058 22.3742 27.7258 21.393C26.4361 20.3989 25.3626 19.2038 24.5584 17.8668C23.7395 16.5242 23.2334 15.0491 23.0703 13.5295C22.8938 12.0129 23.0503 10.4804 23.5311 9.01665C23.778 8.28119 24.1121 7.57099 24.5277 6.89793C24.9386 6.23084 25.4209 5.60038 25.968 5.0153C27.0633 3.85618 28.3847 2.88118 29.8692 2.13688C32.8181 0.644695 36.1834 0.0181604 39.4702 0L49.0269 0.057508L58.5665 0.15739H60L59.1262 1.14411L56.4504 4.19203L53.754 7.21877L53.5697 7.42458H53.2967L47.1531 7.33076L41.0095 7.21574C40.4976 7.21574 39.9856 7.1885 39.4839 7.19455C38.985 7.2036 38.4875 7.24609 37.9958 7.32167C37.0083 7.47077 36.0599 7.77849 35.197 8.2297C34.3307 8.68895 33.6005 9.32505 33.0673 10.0851C32.5192 10.8507 32.2139 11.7332 32.1833 12.6396Z" fill="url(#paint0_linear_328_3627)"/>
<path d="M67.3764 12C64.691 15.2219 60.4794 20.2036 57.7186 23.4314H57.4957L57.818 23.2945L52.5845 29.4047L52.1352 28.6246L55.2939 28.5858L54.7794 28.8389L54.9475 28.5918H55.2904L64.6567 28.4935H65.3666C65.4112 33.6063 65.4798 41.1875 65.4832 46.2585L64.6567 45.5379L72.9117 45.5201L72.0612 46.2585C72.0612 41.384 72.0886 33.9338 72.1263 29.1189V28.434H72.9049L82.4323 28.4965L81.8699 28.7377L87.2955 22.7823L87.7756 23.628C85.4229 23.6071 83.0702 23.5654 80.7175 23.5356C74.143 23.4374 66.0662 23.2885 59.5329 23.1009C61.8856 23.0384 64.2417 22.9729 66.5944 22.9252C73.6182 22.7853 82.0276 22.6274 89 22.5649L88.2592 23.4225L82.9982 29.503L82.7924 29.7412H82.4323L72.9049 29.8037L73.6868 29.1218L73.7177 33.4068C73.7383 36.5721 73.7383 43.7692 73.752 47C72.6168 47 64.9585 46.9821 63.8061 46.9792C63.8061 46.6665 63.8061 42.4233 63.8061 41.9766C63.8061 39.2758 63.8816 31.9209 63.9056 29.1218L64.6224 29.7442L55.3076 29.634L55.822 29.3839L55.6368 29.6399L51 29.5834C51.1338 29.4762 56.8132 23.2349 57.1733 22.8686L57.3036 22.7257H57.5094L57.187 22.8657C60.0713 19.8076 64.4818 15.0075 67.3764 12Z" fill="white"/>
<path d="M14.4206 75.2401L12.2177 78.0311H6.6651C2.82795 78.0311 0 75.6454 0 72.4924C0 69.3124 2.82795 67.1699 6.6651 67.1699H14.4206L12.2177 69.9933H6.6651C4.81192 69.9933 3.42273 71.0807 3.42273 72.6383C3.42273 74.1959 4.7954 75.2401 6.6651 75.2401H14.4206Z" fill="white"/>
<path d="M31.3048 78.0341H26.7228L24.2597 75.1621H19.0003V78.0341H15.5762V72.4846H25.2014C26.2602 72.4846 27.0876 72.0145 27.0876 71.2688C27.0876 70.4259 26.3758 70.003 25.2014 70.003H15.5762L17.8093 67.1797H24.9205C27.4346 67.1797 30.6095 67.9592 30.6095 71.0581C30.6095 72.7454 29.5342 74.1408 27.7182 74.4975C28.0982 74.7676 28.5126 75.1634 29.2726 75.9253L31.3048 78.0341Z" fill="white"/>
<path d="M37.2082 78.0341L39.2734 75.2431H42.0518C42.714 75.2431 43.4906 75.2431 44.0206 75.2755C43.7232 74.8865 43.2593 74.2205 42.8958 73.7018L40.9132 70.8298L35.7199 78.0341H31.668L38.7626 68.2158C39.2252 67.5822 39.904 67 40.9793 67C42.0036 67 42.6824 67.5404 43.1615 68.2158L50.0744 78.0327L37.2082 78.0341Z" fill="white"/>
<path d="M67.0058 67.1787L63.517 70.3101C61.9791 71.6731 61.4656 72.1122 61.0526 72.4202C61.4491 72.6741 61.9475 73.1334 63.7373 74.7734L67.2771 78.0345H62.4417L58.6707 74.4478L54.7881 78.0345H50.5352L54.1396 74.7734C55.8262 73.2483 56.3026 72.8579 56.7156 72.5498C56.3026 72.2581 55.8716 71.8852 54.1355 70.2939L50.7499 67.1787H55.4958L59.019 70.5559L62.5739 67.1787H67.0058Z" fill="white"/>
<path d="M71.9677 78.0345H68.5449V67.1787H71.9677V78.0345Z" fill="white"/>
<path d="M83.9403 77.6288L77.1596 71.6565V78.0341H74.0508V69.0263C74.0508 67.5809 74.9443 67 75.9205 67C76.3335 67 76.7466 67.0973 77.2973 67.5836L84.0767 73.5559V67.1783H87.1992V76.1685C87.1992 77.6126 86.3057 78.2124 85.313 78.2124C84.8835 78.2124 84.4704 78.1151 83.9403 77.6288Z" fill="white"/>
<path d="M99.0556 77.6288L92.2762 71.6565V78.0341H89.166V69.0263C89.166 67.5809 90.0596 67 91.0357 67C91.4488 67 91.8618 67.0973 92.4125 67.5836L99.1919 73.5559V67.1783H102.319V76.1685C102.319 77.6126 101.425 78.2124 100.432 78.2124C99.9987 78.2124 99.5857 78.1151 99.0556 77.6288Z" fill="white"/>
<path d="M120.158 72.5981C120.158 76.4765 117.447 78.2124 112.072 78.2124C106.697 78.2124 103.984 76.4765 103.984 72.5981C103.984 68.7197 106.68 67 112.066 67C117.452 67 120.158 68.7197 120.158 72.5981ZM116.751 72.5981C116.751 70.261 115.512 69.8234 112.07 69.8234C108.628 69.8234 107.389 70.261 107.389 72.5981C107.389 74.9351 108.628 75.389 112.07 75.389C115.512 75.389 116.747 74.9351 116.747 72.5981H116.751Z" fill="white"/>
<path d="M3.41648 88.5906H2.79554V83.8179H0.972656V83.2627H5.24074V83.8179H3.41648V88.5906Z" fill="white"/>
<path d="M15.3555 83.8112H12.0443V85.6295H15.0017V86.1833H12.0443V88.0475H15.3955V88.596H11.4316V83.2627H15.3555V83.8112Z" fill="white"/>
<path d="M24.1491 88.6808C22.5823 88.6808 21.4258 87.465 21.4258 85.9344C21.4258 84.4039 22.574 83.1719 24.1725 83.1719C25.1569 83.1719 25.7462 83.5137 26.29 84.0162L25.877 84.4579C25.4199 84.031 24.9132 83.7271 24.1711 83.7271C22.9692 83.7271 22.0687 84.6727 22.0687 85.9182C22.0687 87.1638 22.9761 88.1256 24.1711 88.1256C24.916 88.1256 25.4102 87.8446 25.9238 87.3569L26.3272 87.7446C25.7544 88.308 25.1335 88.6808 24.1491 88.6808Z" fill="white"/>
<path d="M33.0482 86.1928V88.5906H32.4355V83.2627H33.0482V85.6295H36.1818V83.2627H36.7945V88.5906H36.1818V86.1928H33.0482Z" fill="white"/>
<path d="M47.3672 83.2627H47.9647V88.5906H47.4759L43.9706 84.2218V88.5906H43.373V83.2627H43.9472L47.3672 87.5342V83.2627Z" fill="white"/>
<path d="M57.0642 88.6808C55.412 88.6808 54.3105 87.4096 54.3105 85.9344C54.3105 84.4593 55.4354 83.1719 57.0876 83.1719C58.7397 83.1719 59.848 84.4417 59.848 85.9182C59.848 87.3948 58.7163 88.6808 57.0642 88.6808ZM57.0642 83.7271C55.825 83.7271 54.9397 84.7011 54.9397 85.9182C54.9397 87.1354 55.8388 88.1256 57.0807 88.1256C58.3226 88.1256 59.2051 87.1516 59.2051 85.9344C59.2051 84.7173 58.306 83.7271 57.0642 83.7271Z" fill="white"/>
<path d="M66.1797 83.2627H66.7924V88.0354H69.8475V88.5906H66.1797V83.2627Z" fill="white"/>
<path d="M78.2345 88.6808C76.5824 88.6808 75.4727 87.4096 75.4727 85.9344C75.4727 84.4593 76.5975 83.1719 78.2497 83.1719C79.9018 83.1719 81.0115 84.4417 81.0115 85.9182C81.0115 87.3948 79.8867 88.6808 78.2345 88.6808ZM78.2345 83.7271C76.9954 83.7271 76.1087 84.7011 76.1087 85.9182C76.1087 87.1354 77.0092 88.1256 78.2497 88.1256C79.4902 88.1256 80.3755 87.1516 80.3755 85.9344C80.3755 84.7173 79.475 83.7271 78.2345 83.7271Z" fill="white"/>
<path d="M89.8712 88.6808C88.1654 88.6808 87.1094 87.465 87.1094 85.9344C87.1094 84.4647 88.2039 83.1719 89.8327 83.1719C90.7483 83.1719 91.3141 83.4299 91.8566 83.8797L91.4614 84.3363C91.0148 83.9265 90.4205 83.7073 89.8093 83.7271C88.6073 83.7271 87.7441 84.724 87.7441 85.9182C87.7441 87.1975 88.5702 88.1404 89.8933 88.1404C90.4613 88.1388 91.0126 87.9516 91.4601 87.6082V86.2843H89.8079V85.744H92.0493V87.8662C91.4491 88.3897 90.6743 88.6795 89.8712 88.6808Z" fill="white"/>
<path d="M99.14 83.2627V88.5906H98.5273V83.2627H99.14Z" fill="white"/>
<path d="M109.695 83.8112H106.382V85.6295H109.345V86.1833H106.382V88.0475H109.733V88.596H105.77V83.2627H109.695V83.8112Z" fill="white"/>
<path d="M117.956 85.6421C119.166 85.9015 119.725 86.3351 119.725 87.1565C119.725 88.0778 118.948 88.6708 117.87 88.6708C117.046 88.6795 116.251 88.3738 115.652 87.8184L116.032 87.3766C116.598 87.8792 117.142 88.1304 117.894 88.1304C118.623 88.1304 119.104 87.7576 119.104 87.2172C119.104 86.7147 118.829 86.4337 117.693 86.1973C116.444 85.9271 115.87 85.5354 115.87 84.6519C115.87 83.8008 116.622 83.1916 117.653 83.1916C118.349 83.1718 119.029 83.4046 119.561 83.8454L119.205 84.3101C118.77 83.9382 118.214 83.7328 117.638 83.7319C116.933 83.7319 116.483 84.1115 116.483 84.5992C116.483 85.1018 116.762 85.3854 117.956 85.6421Z" fill="white"/>
<defs>
<linearGradient id="paint0_linear_328_3627" x1="30.4972" y1="24.3985" x2="55.8743" y2="-4.22129" gradientUnits="userSpaceOnUse">
<stop offset="0.37" stop-color="white"/>
<stop offset="1" stop-color="#FF8433"/>
</linearGradient>
</defs>
</svg>
