<svg width="24" height="24" viewBox="0 0 24 24" fill="none" xmlns="http://www.w3.org/2000/svg">
<path fill-rule="evenodd" clip-rule="evenodd" d="M8.72206 2.37931C5.57488 3.11753 3.11753 5.57488 2.37931 8.72206C1.87356 10.8781 1.87356 13.1219 2.37931 15.278C3.11753 18.4251 5.57488 20.8824 8.72207 21.6207C10.8781 22.1264 13.1219 22.1264 15.278 21.6207C18.4251 20.8824 20.8824 18.4251 21.6207 15.278C22.1264 13.1219 22.1264 10.8781 21.6207 8.72208C20.8824 5.57488 18.4251 3.11753 15.278 2.37931C13.1219 1.87356 10.8781 1.87356 8.72206 2.37931ZM14.8212 4.32646C17.2289 4.89121 19.1088 6.77113 19.6735 9.17881C20.1088 11.0345 20.1088 12.9655 19.6735 14.8212C19.1088 17.2289 17.2289 19.1088 14.8212 19.6735C12.9655 20.1088 11.0345 20.1088 9.17881 19.6735C6.77113 19.1088 4.89121 17.2289 4.32646 14.8212C3.89118 12.9655 3.89118 11.0345 4.32646 9.1788C4.89121 6.77114 6.77114 4.89121 9.1788 4.32646C10.9019 3.92227 12.6901 3.8934 14.4225 4.23985L14.8212 4.32646ZM12.9933 9.38338C12.9355 8.88604 12.5128 8.5 12 8.5C11.4477 8.5 11 8.94772 11 9.5V11H9.5L9.38338 11.0067C8.88604 11.0645 8.5 11.4872 8.5 12C8.5 12.5523 8.94772 13 9.5 13H11V14.5L11.0067 14.6166C11.0645 15.114 11.4872 15.5 12 15.5C12.5523 15.5 13 15.0523 13 14.5V13H14.5L14.6166 12.9933C15.114 12.9355 15.5 12.5128 15.5 12C15.5 11.4477 15.0523 11 14.5 11H13V9.5L12.9933 9.38338Z" fill="#2772F0"/>
</svg>
