<svg width="24" height="24" viewBox="0 0 24 24" fill="none" xmlns="http://www.w3.org/2000/svg">
<path fill-rule="evenodd" clip-rule="evenodd" d="M19.0799 12.42L12.8999 18.61C11.218 20.1047 8.66257 20.0295 7.0715 18.4384C5.48043 16.8473 5.40521 14.2919 6.89993 12.61L14.8999 4.60997C15.8918 3.66774 17.448 3.66774 18.4399 4.60997C19.4083 5.59131 19.4083 7.16864 18.4399 8.14997L11.5399 15.04C11.3541 15.24 11.0757 15.3258 10.8096 15.2649C10.5434 15.2041 10.33 15.0059 10.2496 14.7449C10.1692 14.484 10.2341 14.2 10.4199 14L15.5499 8.87997C15.942 8.48785 15.942 7.85209 15.5499 7.45997C15.1578 7.06785 14.522 7.06785 14.1299 7.45997L8.99993 12.6C8.48146 13.1144 8.18984 13.8146 8.18984 14.545C8.18984 15.2754 8.48146 15.9755 8.99993 16.49C10.0891 17.5274 11.8008 17.5274 12.8899 16.49L19.7799 9.58997C21.4321 7.81691 21.3833 5.05391 19.6697 3.34024C17.956 1.62657 15.193 1.57782 13.4199 3.22997L5.41993 11.23C3.17869 13.7123 3.28871 17.519 5.66957 19.8677C8.05042 22.2165 11.8583 22.2747 14.3099 20L20.4999 13.82C20.7536 13.5663 20.8527 13.1966 20.7598 12.8501C20.667 12.5036 20.3963 12.2329 20.0498 12.1401C19.7033 12.0472 19.3336 12.1463 19.0799 12.4V12.42Z" fill="#2772F0"/>
</svg>
