<svg width="112" height="32" viewBox="0 0 112 32" fill="none" xmlns="http://www.w3.org/2000/svg">
<rect width="32" height="32" rx="12" fill="#F5B544"/>
<rect x="8" y="8" width="16" height="16" rx="8" fill="white"/>
<path fill-rule="evenodd" clip-rule="evenodd" d="M49.8038 28C51.7759 28 53.4932 27.6611 54.9557 26.9833C56.4182 26.3056 57.5538 25.3778 58.3626 24.2C59.1714 23.0222 59.5979 21.7 59.6422 20.2333C59.6644 20.0333 59.6034 19.8667 59.4594 19.7333C59.3154 19.6 59.1437 19.5333 58.9442 19.5333H55.7202C55.4543 19.5333 55.2548 19.5944 55.1219 19.7167C54.9889 19.8389 54.8781 20.0556 54.7895 20.3667C54.4571 21.7444 53.8755 22.7167 53.0445 23.2833C52.2136 23.85 51.1333 24.1333 49.8038 24.1333C46.6352 24.1333 44.9843 22.3556 44.8514 18.8C44.8292 18.1556 44.8182 17.2111 44.8182 15.9667L44.8186 15.5638C44.8208 14.5213 44.8317 13.7333 44.8514 13.2C44.9843 9.64444 46.6352 7.86667 49.8038 7.86667C51.1555 7.86667 52.2413 8.15 53.0611 8.71667C53.881 9.28333 54.4571 10.2556 54.7895 11.6333C54.8781 11.9444 54.9889 12.1611 55.1219 12.2833C55.2548 12.4056 55.4543 12.4667 55.7202 12.4667H58.9442C59.1215 12.4667 59.2821 12.4056 59.4262 12.2833C59.5702 12.1611 59.6422 12.0111 59.6422 11.8333V11.7667C59.5979 10.3 59.1714 8.97778 58.3626 7.8C57.5538 6.62222 56.4182 5.69444 54.9557 5.01667C53.4932 4.33889 51.7759 4 49.8038 4C46.7681 4 44.4082 4.79444 42.7242 6.38333C41.0401 7.97222 40.1427 10.1889 40.0319 13.0333C40.0142 13.5311 40.0035 14.2707 40 15.252V16.8013C40.0035 17.7649 40.0142 18.4867 40.0319 18.9667C40.1427 21.8556 41.0346 24.0833 42.7076 25.65C44.3805 27.2167 46.7459 28 49.8038 28ZM66.8327 28C68.1622 28 69.2701 27.7722 70.1565 27.3167C71.0428 26.8611 71.7297 26.2778 72.2172 25.5667V26.8667C72.2172 27.0889 72.2948 27.2778 72.4499 27.4333C72.605 27.5889 72.7933 27.6667 73.0149 27.6667H75.7736C76.0174 27.6667 76.2113 27.5889 76.3553 27.4333C76.4993 27.2778 76.5714 27.0889 76.5714 26.8667V16.4C76.5714 14.4889 75.9731 12.9444 74.7765 11.7667C73.5799 10.5889 71.6743 10 69.0596 10C67.4642 10 66.1236 10.2611 65.0378 10.7833C63.9521 11.3056 63.1488 11.9167 62.6281 12.6167C62.1074 13.3167 61.8359 13.9444 61.8138 14.5C61.8138 14.7222 61.8858 14.9 62.0298 15.0333C62.1738 15.1667 62.3456 15.2333 62.545 15.2333H65.1375C65.3813 15.2333 65.5475 15.1 65.6361 14.8333L66.1845 14.2833C66.4615 14.0056 66.8216 13.7333 67.2648 13.4667C67.7079 13.2 68.2951 13.0667 69.0264 13.0667C70.09 13.0667 70.8655 13.3111 71.353 13.8C71.8405 14.2889 72.0842 15.0111 72.0842 15.9667V16.6667L67.5307 17.3333C65.4034 17.6667 63.7305 18.3 62.5118 19.2333C61.293 20.1667 60.6837 21.3889 60.6837 22.9C60.6837 23.8333 60.9551 24.6889 61.498 25.4667C62.0409 26.2444 62.7832 26.8611 63.7249 27.3167C64.6667 27.7722 65.7026 28 66.8327 28ZM67.9628 24.8C67.1429 24.8 66.4394 24.6056 65.8522 24.2167C65.265 23.8278 64.9714 23.2778 64.9714 22.5667C64.9714 21.2556 66.2455 20.4 68.7937 20L72.1175 19.4667V20.1333C72.1175 21.6444 71.7297 22.8 70.9542 23.6C70.1786 24.4 69.1815 24.8 67.9628 24.8ZM81.3687 27.6667C81.834 27.6667 82.1553 27.4556 82.3326 27.0333L83.8615 23H93.6999L95.2288 27.0333C95.4061 27.4556 95.7274 27.6667 96.1927 27.6667H99.1509C99.3282 27.6667 99.4888 27.6 99.6329 27.4667C99.7769 27.3333 99.8489 27.1667 99.8489 26.9667L99.7824 26.6667L91.8054 5.16667C91.5838 4.61111 91.1849 4.33333 90.6088 4.33333H86.9526C86.3765 4.33333 85.9777 4.61111 85.7561 5.16667L77.779 26.6667L77.7125 26.9667C77.7125 27.1667 77.779 27.3333 77.9119 27.4667C78.0449 27.6 78.2111 27.6667 78.4105 27.6667H81.3687ZM92.5366 19.1333H85.0248L88.7807 8.86667L92.5366 19.1333ZM104.746 27.6667C104.99 27.6667 105.184 27.5889 105.328 27.4333C105.472 27.2778 105.544 27.0889 105.544 26.8667V4.8C105.544 4.55556 105.472 4.36111 105.328 4.21667C105.184 4.07222 104.99 4 104.746 4H101.954C101.732 4 101.544 4.07222 101.389 4.21667C101.234 4.36111 101.156 4.55556 101.156 4.8V26.8667C101.156 27.0889 101.234 27.2778 101.389 27.4333C101.544 27.5889 101.732 27.6667 101.954 27.6667H104.746ZM111.202 27.6667C111.446 27.6667 111.64 27.5889 111.784 27.4333C111.928 27.2778 112 27.0889 112 26.8667V4.8C112 4.55556 111.928 4.36111 111.784 4.21667C111.64 4.07222 111.446 4 111.202 4H108.41C108.189 4 108 4.07222 107.845 4.21667C107.69 4.36111 107.613 4.55556 107.613 4.8V26.8667C107.613 27.0889 107.69 27.2778 107.845 27.4333C108 27.5889 108.189 27.6667 108.41 27.6667H111.202Z" fill="#091B3D"/>
</svg>
