<svg width="20" height="20" viewBox="0 0 20 20" fill="none" xmlns="http://www.w3.org/2000/svg">
<path fill-rule="evenodd" clip-rule="evenodd" d="M5.16564 3.94089C5.32584 4.27951 5.67061 4.51375 6.07008 4.51375C6.62236 4.51375 7.07008 4.06603 7.07008 3.51375V2.99054C7.16359 2.96318 7.25801 2.93804 7.35329 2.91517C9.0942 2.49723 10.9058 2.49723 12.6467 2.91517C12.742 2.93804 12.8364 2.96318 12.9299 2.99054V3.51375C12.9299 4.06603 13.3776 4.51375 13.9299 4.51375C14.3294 4.51375 14.6742 4.27951 14.8344 3.94089C15.3371 4.31496 15.782 4.76622 16.1528 5.27886H3.84719C4.21797 4.76622 4.66291 4.31496 5.16564 3.94089ZM7.06755 0.92827C7.03078 0.40946 6.59825 0 6.07008 0C5.5178 0 5.07008 0.44772 5.07008 1V1.64827C2.96707 2.7398 1.40787 4.73313 0.858552 7.12982C0.380483 9.2156 0.380483 11.3861 0.858552 13.4719C1.55643 16.5168 3.88428 18.9106 6.88643 19.6313C8.9343 20.1229 11.0657 20.1229 13.1136 19.6313C16.1157 18.9106 18.4436 16.5167 19.1415 13.4719C19.6195 11.3861 19.6195 9.2156 19.1415 7.12983C18.5921 4.73314 17.0329 2.73979 14.9299 1.64827V1C14.9299 0.44772 14.4822 0 13.9299 0C13.4018 0 12.9692 0.40946 12.9325 0.92827C11.0007 0.49286 8.9993 0.49286 7.06755 0.92827ZM2.88377 7.27886C2.85625 7.3771 2.83098 7.47638 2.808 7.57664C2.39733 9.3684 2.39733 11.2333 2.808 13.0251C3.34073 15.3494 5.10919 17.1478 7.35329 17.6865C9.0942 18.1045 10.9058 18.1045 12.6467 17.6866C14.8908 17.1478 16.6593 15.3494 17.192 13.0251C17.6027 11.2333 17.6027 9.3684 17.192 7.57664C17.169 7.47638 17.1437 7.37711 17.1162 7.27886H2.88377Z" fill="#091B3D" fill-opacity="0.4"/>
</svg>
