<svg width="24" height="24" viewBox="0 0 24 24" fill="none" xmlns="http://www.w3.org/2000/svg">
<path fill-rule="evenodd" clip-rule="evenodd" d="M6.69685 2C6.30709 2 5.91951 2.05934 5.54565 2.17608L5.27857 2.25948C3.65253 2.76721 2.4448 4.21619 2.13191 5.99178C1.95635 6.98813 1.95635 8.01188 2.13191 9.00821C2.1433 9.07283 2.15587 9.13701 2.1696 9.20074L2.20075 9.35925C3.5156 15.6888 8.50955 20.6209 14.8728 21.8459C14.9123 21.8538 14.9521 21.8613 14.992 21.8683C15.9884 22.0439 17.0121 22.0439 18.0084 21.8683C19.7841 21.5554 21.2331 20.3477 21.7408 18.7216L21.8242 18.4546C21.9409 18.0806 22.0002 17.693 22.0002 17.3034C22.0002 15.4559 20.3941 14 18.4591 14H14.5413C12.6064 14 11.0002 15.4559 11.0002 17.3034C11.0002 17.678 11.0551 18.0506 11.163 18.411C8.81299 17.124 6.87622 15.1873 5.58924 12.8373C5.94985 12.9452 6.32238 13 6.69685 13C8.54436 13 10.0002 11.3939 10.0002 9.45894V5.54106C10.0002 3.60611 8.54436 2 6.69685 2ZM4.11685 8.74179C4.32367 9.7616 5.00562 10.5601 5.87476 10.8315L6.14152 10.9148C6.32304 10.9714 6.50974 11 6.69685 11C7.39359 11 8.00024 10.3307 8.00024 9.45894V5.54106C8.00024 4.66925 7.39359 4 6.69685 4C6.50966 4 6.32303 4.02857 6.14177 4.08517L5.87471 4.16857C4.98284 4.44705 4.28804 5.28064 4.10157 6.33885C3.96672 7.10416 3.96647 7.89149 4.10082 8.65687C4.10608 8.68521 4.11142 8.71351 4.11685 8.74179ZM15.2061 19.8723L15.3456 19.8998C16.1104 20.0337 16.8968 20.0334 17.6614 19.8987C18.7197 19.7122 19.5532 19.0174 19.8317 18.1255L19.915 17.8586C19.9717 17.6772 20.0002 17.4905 20.0002 17.3034C20.0002 16.6067 19.331 16 18.4591 16H14.5413C13.6695 16 13.0002 16.6067 13.0002 17.3034C13.0002 17.4905 13.0288 17.6772 13.0854 17.8584L13.1688 18.1256C13.4355 18.9797 14.2113 19.6531 15.2061 19.8723Z" fill="#F5B544"/>
</svg>
