<svg width="24" height="24" viewBox="0 0 24 24" fill="none" xmlns="http://www.w3.org/2000/svg">
<path fill-rule="evenodd" clip-rule="evenodd" d="M14.0502 4.24394C12.6915 3.91869 11.2811 3.91869 9.92233 4.24394L9.69928 4.29733C7.27953 4.87656 5.34649 6.85671 4.7503 9.45044C4.41463 10.9107 4.41739 12.4507 4.75368 13.9138C5.37322 16.6091 7.19041 18.827 9.59088 19.8533L9.70904 19.9038C10.3236 20.1666 11.0912 19.8717 11.383 19.1259C11.6549 18.4306 12.3224 17.9268 13.1107 17.9268H14.1721C16.5616 17.9268 18.6927 16.203 19.2731 13.6781C19.5756 12.3616 19.5756 10.9879 19.2731 9.67142L19.1842 9.28489C18.6113 6.79257 16.7543 4.89122 14.4313 4.33517L14.0502 4.24394ZM9.45673 2.29889C11.1216 1.90037 12.851 1.90037 14.5158 2.29889L14.8969 2.39012C17.9998 3.13286 20.4001 5.64659 21.1334 8.83686L21.2222 9.22339C21.5926 10.8347 21.5926 12.5148 21.2222 14.1261C20.4474 17.4968 17.5561 19.9268 14.1721 19.9268H13.2163C12.5202 21.5954 10.63 22.4727 8.92282 21.7428L8.80466 21.6923C5.78336 20.4006 3.55892 17.6439 2.80451 14.3618C2.40107 12.6066 2.39707 10.7603 2.80113 9.00241C3.55775 5.71072 6.034 3.1182 9.23369 2.35228L9.45673 2.29889ZM7.69628 9.05793C7.69628 8.50565 8.14399 8.05793 8.69628 8.05793H14.7279C15.2802 8.05793 15.7279 8.50565 15.7279 9.05793C15.7279 9.61022 15.2802 10.0579 14.7279 10.0579H8.69628C8.14399 10.0579 7.69628 9.61022 7.69628 9.05793ZM7.69628 12.5141C7.69628 11.9618 8.14399 11.5141 8.69628 11.5141H12.5346C13.0869 11.5141 13.5346 11.9618 13.5346 12.5141C13.5346 13.0664 13.0869 13.5141 12.5346 13.5141H8.69628C8.14399 13.5141 7.69628 13.0664 7.69628 12.5141Z" fill="#091B3D"/>
</svg>
