<svg width="20" height="21" viewBox="0 0 20 21" fill="none" xmlns="http://www.w3.org/2000/svg">
<path fill-rule="evenodd" clip-rule="evenodd" d="M12.0502 2.24394C10.6915 1.91869 9.2811 1.91869 7.92233 2.24394L7.69928 2.29733C5.27953 2.87656 3.34649 4.85671 2.7503 7.45044C2.41463 8.9107 2.41739 10.4507 2.75368 11.9138C3.37322 14.6091 5.19041 16.827 7.59088 17.8533L7.70904 17.9038C8.3236 18.1666 9.0912 17.8717 9.383 17.1259C9.6549 16.4306 10.3224 15.9268 11.1107 15.9268H12.1721C14.5616 15.9268 16.6927 14.203 17.2731 11.6781C17.5756 10.3616 17.5756 8.9879 17.2731 7.67142L17.1842 7.28489C16.6113 4.79257 14.7543 2.89122 12.4313 2.33517L12.0502 2.24394ZM7.45673 0.29889C9.1216 -0.09963 10.851 -0.09963 12.5158 0.29889L12.8969 0.39012C15.9998 1.13286 18.4001 3.64659 19.1334 6.83686L19.2222 7.22339C19.5926 8.8347 19.5926 10.5148 19.2222 12.1261C18.4474 15.4968 15.5561 17.9268 12.1721 17.9268H11.2163C10.5202 19.5954 8.63 20.4727 6.92282 19.7428L6.80466 19.6923C3.78336 18.4006 1.55892 15.6439 0.804509 12.3618C0.401069 10.6066 0.397069 8.7603 0.801129 7.00241C1.55775 3.71072 4.034 1.1182 7.23369 0.35228L7.45673 0.29889ZM5.69628 7.05793C5.69628 6.50565 6.14399 6.05793 6.69628 6.05793H12.7279C13.2802 6.05793 13.7279 6.50565 13.7279 7.05793C13.7279 7.61022 13.2802 8.0579 12.7279 8.0579H6.69628C6.14399 8.0579 5.69628 7.61022 5.69628 7.05793ZM5.69628 10.5141C5.69628 9.9618 6.14399 9.5141 6.69628 9.5141H10.5346C11.0869 9.5141 11.5346 9.9618 11.5346 10.5141C11.5346 11.0664 11.0869 11.5141 10.5346 11.5141H6.69628C6.14399 11.5141 5.69628 11.0664 5.69628 10.5141Z" fill="#F5B544"/>
</svg>
