<svg width="20" height="20" viewBox="0 0 20 20" fill="none" xmlns="http://www.w3.org/2000/svg">
<path fill-rule="evenodd" clip-rule="evenodd" d="M6.72206 0.379308C3.57488 1.11753 1.11753 3.57488 0.379308 6.72206C-0.126436 8.87814 -0.126436 11.1219 0.379307 13.278C1.11753 16.4251 3.57488 18.8824 6.72207 19.6207C8.87814 20.1264 11.1219 20.1264 13.278 19.6207C16.4251 18.8824 18.8824 16.4251 19.6207 13.278C20.1264 11.1219 20.1264 8.87814 19.6207 6.72208C18.8824 3.57488 16.4251 1.11753 13.278 0.379307C11.1219 -0.126436 8.87814 -0.126436 6.72206 0.379308ZM12.8212 2.32646C15.2289 2.89121 17.1088 4.77113 17.6735 7.17881C18.1088 9.03446 18.1088 10.9655 17.6735 12.8212C17.1088 15.2289 15.2289 17.1088 12.8212 17.6735C10.9655 18.1088 9.03446 18.1088 7.17881 17.6735C4.77113 17.1088 2.89121 15.2289 2.32646 12.8212C1.89118 10.9655 1.89118 9.03446 2.32646 7.1788C2.89121 4.77114 4.77114 2.89121 7.1788 2.32646C8.90192 1.92227 10.6901 1.8934 12.4225 2.23985L12.8212 2.32646ZM10.6547 6.88338C10.5969 6.38604 10.1742 6 9.6614 6C9.10912 6 8.6614 6.44772 8.6614 7V10.6939L8.66947 10.8208C8.70686 11.1133 8.87216 11.377 9.12459 11.5376L11.9632 13.3437L12.0652 13.4006C12.5158 13.6189 13.0684 13.4695 13.3437 13.0368L13.4006 12.9348C13.6189 12.4842 13.4695 11.9316 13.0368 11.6563L10.661 10.145L10.6614 7L10.6547 6.88338Z" fill="#091B3D" fill-opacity="0.4"/>
</svg>
