<svg width="16" height="16" viewBox="0 0 16 16" fill="none" xmlns="http://www.w3.org/2000/svg">
<path fill-rule="evenodd" clip-rule="evenodd" d="M5.81487 1.58625C3.71675 2.07839 2.07852 3.71663 1.58637 5.81475C1.24921 7.25213 1.24921 8.74795 1.58637 10.1854C2.07852 12.2835 3.71675 13.9217 5.81488 14.4138C7.25226 14.751 8.74807 14.751 10.1855 14.4138C12.2836 13.9217 13.9218 12.2835 14.4139 10.1854C14.7511 8.74795 14.7511 7.25213 14.4139 5.81476C13.9218 3.71663 12.2836 2.07839 10.1855 1.58625C8.74807 1.24908 7.25226 1.24908 5.81487 1.58625ZM9.88098 2.88435C11.4861 3.26085 12.7393 4.51413 13.1158 6.11925C13.406 7.35635 13.406 8.64374 13.1158 9.88087C12.7393 11.486 11.4861 12.7392 9.88098 13.1157C8.64386 13.4059 7.35647 13.4059 6.11937 13.1157C4.51425 12.7392 3.26097 11.4859 2.88447 9.88086C2.59428 8.64374 2.59428 7.35635 2.88447 6.11924C3.26097 4.51413 4.51426 3.26085 6.11936 2.88435C7.26811 2.61489 8.4602 2.59564 9.61516 2.82661L9.88098 2.88435ZM8.43661 5.9223C8.3981 5.59074 8.11632 5.33338 7.77443 5.33338C7.40624 5.33338 7.10776 5.63185 7.10776 6.00004V8.46264L7.11314 8.54724C7.13807 8.74223 7.24827 8.91804 7.41655 9.02511L9.30895 10.2292L9.37696 10.2671C9.67737 10.4126 10.0458 10.313 10.2293 10.0246L10.2673 9.95658C10.4127 9.65617 10.3132 9.28778 10.0247 9.10424L8.44083 8.09671L8.4411 6.00004L8.43661 5.9223Z" fill="#F5B544"/>
</svg>
