<svg width="24" height="24" viewBox="0 0 24 24" fill="none" xmlns="http://www.w3.org/2000/svg">
<path fill-rule="evenodd" clip-rule="evenodd" d="M15.7935 2.38034L16.0053 2.32334C16.8645 2.12179 17.7554 2.09618 18.6241 2.24767L18.9945 2.32334C20.2379 2.615 21.232 3.54331 21.6195 4.7935L21.6765 5.00539C21.878 5.86458 21.9036 6.75533 21.7467 7.65244L21.6765 7.99445C21.3848 9.23784 20.4565 10.232 19.2063 10.6195L18.9945 10.6765C18.1353 10.878 17.2444 10.9036 16.3473 10.7468L16.0053 10.6765C14.7619 10.3848 13.7678 9.4565 13.3803 8.2063L13.3233 7.99441C13.0928 7.01141 13.0928 5.98839 13.3233 5.00535C13.6149 3.76196 14.5433 2.76784 15.7935 2.38034ZM18.5659 4.27667L18.2805 4.21794C17.6773 4.11275 17.0587 4.13053 16.4963 4.26182L16.3526 4.30028C15.8125 4.46794 15.4 4.90971 15.2705 5.46201C15.1104 6.14467 15.1104 6.85513 15.2618 7.50354L15.3003 7.64725C15.4679 8.18722 15.9097 8.59975 16.4339 8.72313L16.7192 8.78186C17.3225 8.88705 17.9411 8.86927 18.5035 8.73798L18.6472 8.69952C19.1872 8.53186 19.5998 8.0901 19.7231 7.566L19.7818 7.2806C19.887 6.67729 19.8692 6.05869 19.738 5.49626L19.6995 5.35255C19.5319 4.81258 19.0901 4.40006 18.5659 4.27667ZM5.00532 2.32334L4.79347 2.38034C3.54328 2.76784 2.61498 3.76194 2.32333 5.00533C2.09275 5.98837 2.09275 7.01143 2.32333 7.99446L2.38033 8.20632C2.76783 9.45651 3.76194 10.3848 5.00533 10.6765L5.3473 10.7468C6.24445 10.9036 7.13524 10.878 7.99447 10.6765L8.20631 10.6195C9.4565 10.232 10.3848 9.23786 10.6765 7.99447L10.7467 7.6525C10.9036 6.75534 10.878 5.86455 10.6765 5.00533L10.6195 4.79348C10.232 3.54329 9.23785 2.61499 7.99446 2.32334L7.62411 2.24767C6.75534 2.09618 5.86454 2.12179 5.00532 2.32334ZM7.28054 4.21794L7.56593 4.27667C8.0901 4.40005 8.53186 4.81257 8.69951 5.35257L8.73797 5.49628C8.86927 6.05872 8.88705 6.67728 8.78185 7.28055L8.72312 7.56594C8.59974 8.09011 8.18723 8.53187 7.64723 8.69952L7.50352 8.73798C6.94108 8.86927 6.32251 8.88705 5.71925 8.78186L5.43386 8.72313C4.90969 8.59975 4.46793 8.18723 4.30027 7.64724L4.26181 7.50353C4.11036 6.85511 4.11036 6.14469 4.27048 5.46206C4.40005 4.90969 4.81256 4.46794 5.35256 4.30028L5.49627 4.26182C6.05871 4.13053 6.67727 4.11275 7.28054 4.21794ZM5.00538 13.3233L4.79349 13.3803C3.5433 13.7678 2.61499 14.7619 2.32333 16.0053C2.09274 16.9883 2.09274 18.0115 2.32333 18.9945L2.38033 19.2063C2.76783 20.4565 3.76196 21.3849 5.00535 21.6765L5.34736 21.7468C6.24446 21.9036 7.13521 21.878 7.9944 21.6765L8.2063 21.6195C9.45649 21.232 10.3848 20.2379 10.6765 18.9945L10.7467 18.6525C10.9036 17.7554 10.878 16.8645 10.6765 16.0053L10.6195 15.7935C10.232 14.5433 9.23783 13.615 7.99444 13.3233L7.62406 13.2477C6.75532 13.0962 5.86457 13.1218 5.00538 13.3233ZM7.28059 15.218L7.56599 15.2767C8.09009 15.4 8.53185 15.8126 8.69951 16.3526L8.73797 16.4963C8.86927 17.0587 8.88705 17.6773 8.78185 18.2806L8.72312 18.5659C8.59974 19.0901 8.18721 19.5319 7.64724 19.6995L7.50353 19.738C6.94111 19.8692 6.3225 19.887 5.7192 19.7818L5.4338 19.7231C4.9097 19.5998 4.46793 19.1872 4.30027 18.6472L4.26181 18.5035C4.11036 17.8551 4.11036 17.1447 4.27048 16.4621C4.40005 15.9097 4.81257 15.4679 5.35255 15.3003L5.49625 15.2618C6.05868 15.1306 6.67729 15.1128 7.28059 15.218ZM16.0054 13.3233L15.7935 13.3803C14.5433 13.7678 13.6149 14.762 13.3233 16.0054C13.0928 16.9884 13.0928 18.0114 13.3233 18.9944L13.3803 19.2063C13.7678 20.4565 14.762 21.3848 16.0053 21.6765L16.3473 21.7468C17.2444 21.9036 18.1352 21.878 18.9944 21.6765L19.2063 21.6195C20.4565 21.232 21.3848 20.2378 21.6765 18.9945L21.7467 18.6525C21.9036 17.7553 21.878 16.8645 21.6765 16.0054L21.6195 15.7935C21.232 14.5433 20.2378 13.615 18.9944 13.3233L18.6241 13.2477C17.7553 13.0962 16.8645 13.1218 16.0054 13.3233ZM18.2806 15.218L18.566 15.2767C19.0901 15.4 19.5319 15.8126 19.6995 16.3526L19.738 16.4963C19.8692 17.0587 19.887 17.6773 19.7818 18.2806L19.7231 18.566C19.5998 19.0901 19.1872 19.5319 18.6472 19.6995L18.5035 19.738C17.9411 19.8692 17.3225 19.887 16.7192 19.7818L16.4338 19.7231C15.9097 19.5998 15.4679 19.1872 15.3003 18.6472L15.2618 18.5035C15.1104 17.8552 15.1104 17.1446 15.2705 16.462C15.4 15.9097 15.8126 15.4679 16.3525 15.3003L16.4963 15.2618C17.0587 15.1306 17.6773 15.1128 18.2806 15.218Z" fill="#091B3D" fill-opacity="0.4"/>
</svg>
