<svg width="24" height="24" viewBox="0 0 24 24" fill="none" xmlns="http://www.w3.org/2000/svg">
<path fill-rule="evenodd" clip-rule="evenodd" d="M8.72206 2.37931C5.57488 3.11753 3.11753 5.57488 2.37931 8.72206C1.87356 10.8781 1.87356 13.1219 2.37931 15.278C3.11753 18.4251 5.57488 20.8824 8.72207 21.6207C10.8781 22.1264 13.1219 22.1264 15.278 21.6207C18.4251 20.8824 20.8824 18.4251 21.6207 15.278C22.1264 13.1219 22.1264 10.8781 21.6207 8.72208C20.8824 5.57488 18.4251 3.11753 15.278 2.37931C13.1219 1.87356 10.8781 1.87356 8.72206 2.37931ZM14.8212 4.32646C17.2289 4.89121 19.1088 6.77113 19.6735 9.17881C20.1088 11.0345 20.1088 12.9655 19.6735 14.8212C19.1088 17.2289 17.2289 19.1088 14.8212 19.6735C12.9655 20.1088 11.0345 20.1088 9.17881 19.6735C6.77113 19.1088 4.89121 17.2289 4.32646 14.8212C3.89118 12.9655 3.89118 11.0345 4.32646 9.1788C4.89121 6.77114 6.77114 4.89121 9.1788 4.32646C10.9019 3.92227 12.6901 3.8934 14.4225 4.23985L14.8212 4.32646ZM13 8C13.5523 8 14 8.44772 14 9C14 9.51284 13.614 9.93551 13.1166 9.99327L13 10H9C8.44772 10 8 9.55229 8 9C8 8.48717 8.38604 8.0645 8.88338 8.00673L9 8H13ZM16 12C16 11.4477 15.5523 11 15 11H9L8.88338 11.0067C8.38604 11.0645 8 11.4872 8 12C8 12.5523 8.44772 13 9 13H15L15.1166 12.9933C15.614 12.9355 16 12.5128 16 12ZM13 15C13 14.4477 12.5523 14 12 14H9L8.88338 14.0067C8.38604 14.0645 8 14.4872 8 15C8 15.5523 8.44772 16 9 16H12L12.1166 15.9933C12.614 15.9355 13 15.5128 13 15Z" fill="#091B3D" fill-opacity="0.4"/>
</svg>
