<svg width="24" height="24" viewBox="0 0 24 24" fill="none" xmlns="http://www.w3.org/2000/svg">
<path fill-rule="evenodd" clip-rule="evenodd" d="M13 3C13 2.44772 12.5523 2 12 2C10.8973 2 9.79741 2.12706 8.72206 2.37931C5.57488 3.11753 3.11753 5.57488 2.37931 8.72206C1.87356 10.8781 1.87356 13.1219 2.37931 15.278C3.11753 18.4251 5.57488 20.8824 8.72207 21.6207C10.8781 22.1264 13.1219 22.1264 15.278 21.6207C18.4251 20.8824 20.8824 18.4251 21.6207 15.278C21.8729 14.2026 22 13.1028 22 12C22 11.4477 21.5523 11 21 11C20.4477 11 20 11.4477 20 12C20 12.9491 19.8907 13.8957 19.6735 14.8212C19.1088 17.2289 17.2289 19.1088 14.8212 19.6735C12.9655 20.1088 11.0345 20.1088 9.17881 19.6735C6.77113 19.1088 4.89121 17.2289 4.32646 14.8212C3.89118 12.9655 3.89118 11.0345 4.32646 9.1788C4.89121 6.77114 6.77114 4.89121 9.1788 4.32645C10.1043 4.10936 11.051 4 12 4C12.5523 4 13 3.55228 13 3ZM21.3069 2.04799L21.2176 2.02376L21.158 2.01241L21.0344 2.00055L17 2L16.8834 2.00673C16.386 2.06449 16 2.48716 16 3C16 3.55228 16.4477 4 17 4H18.825L14.2407 9.34921L14.165 9.44952C13.891 9.86405 13.9621 10.4275 14.3492 10.7593C14.7685 11.1187 15.3998 11.0701 15.7593 10.6508L20 5.702V7.66667L20.0067 7.78329C20.0645 8.28063 20.4872 8.66667 21 8.66667C21.5523 8.66667 22 8.21895 22 7.66667V3L21.9933 2.88338C21.9881 2.8391 21.9801 2.7957 21.9692 2.75353L21.9364 2.64844L21.8892 2.54183L21.8253 2.43485L21.7505 2.33888C21.72 2.30437 21.6867 2.27156 21.6508 2.24074L21.5479 2.16328C21.4823 2.12028 21.4115 2.08479 21.3367 2.05808L21.3069 2.04799Z" fill="#091B3D" fill-opacity="0.4"/>
</svg>
