<svg width="24" height="24" viewBox="0 0 24 24" fill="none" xmlns="http://www.w3.org/2000/svg">
<path fill-rule="evenodd" clip-rule="evenodd" d="M4.5 7.5C4.5 5.01472 6.51472 3 9 3C11.4853 3 13.5 5.01472 13.5 7.5C13.5 9.98528 11.4853 12 9 12C6.51472 12 4.5 9.98528 4.5 7.5ZM11.5 7.5C11.5 6.11928 10.3807 5 9 5C7.61928 5 6.5 6.11928 6.5 7.5C6.5 8.88072 7.61928 10 9 10C10.3807 10 11.5 8.88072 11.5 7.5ZM6.27456 13.4223L6.45251 13.3939C8.14016 13.1245 9.85984 13.1245 11.5475 13.3939L11.7256 13.4223C14.1881 13.8154 16 15.9394 16 18.433C16 19.8507 14.8507 21 13.433 21H4.56697C3.14928 21 2 19.8507 2 18.433C2 15.9394 3.81192 13.8154 6.27456 13.4223ZM11.4105 15.3973L11.2323 15.3689C9.75344 15.1329 8.24656 15.1329 6.76761 15.3689L6.58967 15.3973C5.09775 15.6354 4 16.9223 4 18.433C4 18.7461 4.25386 19 4.56697 19H13.433C13.7461 19 14 18.7461 14 18.433C14 16.9223 12.9022 15.6354 11.4105 15.3973ZM15 3C17.4853 3 19.5 5.01472 19.5 7.5C19.5 9.98528 17.4853 12 15 12C14.4477 12 14 11.5523 14 11C14 10.4872 14.386 10.0645 14.8834 10.0067L15 10C16.3807 10 17.5 8.88072 17.5 7.5C17.5 6.11928 16.3807 5 15 5C14.4477 5 14 4.55228 14 4C14 3.44772 14.4477 3 15 3ZM17.2093 13.3814C17.382 13.3814 17.5548 13.3951 17.7256 13.4223C20.1881 13.8154 22 15.9394 22 18.433C22 19.7962 20.9374 20.9112 19.5953 20.9949L19.433 21H17.3899C16.8376 21 16.3899 20.5523 16.3899 20C16.3899 19.4872 16.7759 19.0645 17.2733 19.0067L17.3899 19H19.433C19.7461 19 20 18.7461 20 18.433C20 16.9223 18.9022 15.6354 17.4106 15.3973L17.3103 15.3854L17.2093 15.3814H16.2412C15.6889 15.3814 15.2412 14.9337 15.2412 14.3814C15.2412 13.8686 15.6272 13.4459 16.1246 13.3881L16.2412 13.3814H17.2093Z" fill="#091B3D" fill-opacity="0.4"/>
</svg>
