<svg width="24" height="24" viewBox="0 0 24 24" fill="none" xmlns="http://www.w3.org/2000/svg">
<path fill-rule="evenodd" clip-rule="evenodd" d="M9.1788 4.32645C11.0344 3.89118 12.9656 3.89118 14.8212 4.32645C17.2289 4.89121 19.1088 6.77114 19.6736 9.1788C20.1088 11.0344 20.1088 12.9656 19.6736 14.8212C19.6249 15.0288 19.5664 15.2325 19.4986 15.4318C17.8988 14.2026 15.5729 14.2975 14.0805 15.7872L13.0488 14.7554C11.0332 12.7398 7.76541 12.7398 5.74988 14.7554L4.65848 15.8468C4.52102 15.518 4.40951 15.1753 4.32645 14.8212C3.89118 12.9656 3.89118 11.0344 4.32645 9.1788C4.89121 6.77114 6.77114 4.89121 9.1788 4.32645ZM21.6207 15.2779C21.4354 16.0678 21.1418 16.8143 20.7562 17.501C20.7104 17.6475 20.6304 17.7848 20.5176 17.9001C19.3435 19.7466 17.4795 21.1043 15.2779 21.6207C13.1219 22.1264 10.8781 22.1264 8.72207 21.6207C5.57488 20.8825 3.11753 18.4251 2.3793 15.2779C1.87357 13.1219 1.87357 10.8781 2.3793 8.72206C3.11753 5.57488 5.57488 3.11753 8.72206 2.3793C10.8781 1.87357 13.1219 1.87357 15.2779 2.3793C18.4251 3.11753 20.8825 5.57488 21.6207 8.72207C22.1264 10.8781 22.1264 13.1219 21.6207 15.2779ZM15.4948 17.2014C16.3465 16.3526 17.7245 16.3855 18.5364 17.2505C18.1096 17.8172 17.5924 18.3113 17.0055 18.7121L15.4948 17.2014ZM11.6345 16.1696L15.0739 19.6089C14.9903 19.6321 14.9061 19.6536 14.8212 19.6735C12.9656 20.1088 11.0344 20.1088 9.1788 19.6735C7.816 19.3539 6.62227 18.6128 5.74042 17.5932L7.16409 16.1696C8.39857 14.9351 10.4001 14.9351 11.6345 16.1696ZM15 6C13.3431 6 12 7.34315 12 9C12 10.6569 13.3431 12 15 12C16.6569 12 18 10.6569 18 9C18 7.34315 16.6569 6 15 6ZM14 9C14 8.44772 14.4477 8 15 8C15.5523 8 16 8.44772 16 9C16 9.55228 15.5523 10 15 10C14.4477 10 14 9.55228 14 9Z" fill="#F5B544"/>
</svg>
