<svg width="20" height="20" viewBox="0 0 20 20" fill="none" xmlns="http://www.w3.org/2000/svg">
<path fill-rule="evenodd" clip-rule="evenodd" d="M13.7935 0.380341L14.0053 0.323339C14.8645 0.121786 15.7554 0.0961789 16.6241 0.247674L16.9945 0.323336C18.2379 0.614997 19.232 1.54331 19.6195 2.7935L19.6765 3.00539C19.878 3.86458 19.9036 4.75533 19.7467 5.65244L19.6765 5.99445C19.3848 7.23784 18.4565 8.23196 17.2063 8.61946L16.9945 8.67646C16.1353 8.87802 15.2444 8.90362 14.3473 8.74675L14.0053 8.67647C12.7619 8.3848 11.7678 7.4565 11.3803 6.2063L11.3233 5.99441C11.0928 5.01141 11.0928 3.98839 11.3233 3.00535C11.6149 1.76196 12.5433 0.76784 13.7935 0.380341ZM16.5659 2.27667L16.2805 2.21794C15.6773 2.11275 15.0587 2.13053 14.4963 2.26182L14.3526 2.30028C13.8125 2.46794 13.4 2.90971 13.2705 3.46201C13.1104 4.14467 13.1104 4.85513 13.2618 5.50354L13.3003 5.64725C13.4679 6.18722 13.9097 6.59975 14.4339 6.72313L14.7192 6.78186C15.3225 6.88705 15.9411 6.86927 16.5035 6.73798L16.6472 6.69952C17.1872 6.53186 17.5998 6.0901 17.7231 5.566L17.7818 5.2806C17.887 4.67729 17.8692 4.05869 17.738 3.49626L17.6995 3.35255C17.5319 2.81258 17.0901 2.40006 16.5659 2.27667ZM3.00532 0.323338L2.79347 0.380341C1.54328 0.767835 0.614985 1.76194 0.323328 3.00533C0.0927452 3.98837 0.0927451 5.01143 0.323327 5.99446L0.380333 6.20632C0.767827 7.45651 1.76194 8.38481 3.00533 8.67647L3.3473 8.74676C4.24445 8.90362 5.13524 8.87802 5.99447 8.67646L6.20631 8.61946C7.4565 8.23197 8.3848 7.23786 8.67646 5.99447L8.74675 5.6525C8.90361 4.75534 8.87801 3.86455 8.67646 3.00533L8.61945 2.79348C8.23196 1.54329 7.23785 0.614992 5.99446 0.323336L5.62411 0.247674C4.75534 0.0961796 3.86454 0.121786 3.00532 0.323338ZM5.28054 2.21794L5.56593 2.27667C6.0901 2.40005 6.53186 2.81257 6.69951 3.35257L6.73797 3.49628C6.86927 4.05872 6.88705 4.67728 6.78185 5.28055L6.72312 5.56594C6.59974 6.09011 6.18723 6.53187 5.64723 6.69952L5.50352 6.73798C4.94108 6.86927 4.32251 6.88705 3.71925 6.78186L3.43386 6.72313C2.90969 6.59975 2.46793 6.18723 2.30027 5.64724L2.26181 5.50353C2.11036 4.85511 2.11036 4.14469 2.27048 3.46206C2.40005 2.90969 2.81256 2.46794 3.35256 2.30028L3.49627 2.26182C4.05871 2.13053 4.67727 2.11275 5.28054 2.21794ZM3.00538 11.3233L2.79349 11.3803C1.5433 11.7678 0.614989 12.7619 0.323329 14.0053C0.0927445 14.9883 0.0927445 16.0115 0.323329 16.9945L0.380333 17.2063C0.767833 18.4565 1.76196 19.3849 3.00535 19.6765L3.34736 19.7468C4.24446 19.9036 5.13521 19.878 5.9944 19.6765L6.2063 19.6195C7.45649 19.232 8.3848 18.2379 8.67646 16.9945L8.74675 16.6525C8.90361 15.7554 8.87801 14.8645 8.67645 14.0053L8.61945 13.7935C8.23195 12.5433 7.23783 11.615 5.99444 11.3233L5.62406 11.2477C4.75532 11.0962 3.86457 11.1218 3.00538 11.3233ZM5.28059 13.218L5.56599 13.2767C6.09009 13.4 6.53185 13.8126 6.69951 14.3526L6.73797 14.4963C6.86927 15.0587 6.88705 15.6773 6.78185 16.2806L6.72312 16.5659C6.59974 17.0901 6.18721 17.5319 5.64724 17.6995L5.50353 17.738C4.94111 17.8692 4.3225 17.887 3.7192 17.7818L3.4338 17.7231C2.9097 17.5998 2.46793 17.1872 2.30027 16.6472L2.26181 16.5035C2.11036 15.8551 2.11036 15.1447 2.27048 14.4621C2.40005 13.9097 2.81257 13.4679 3.35255 13.3003L3.49625 13.2618C4.05868 13.1306 4.67729 13.1128 5.28059 13.218ZM14.0054 11.3233L13.7935 11.3803C12.5433 11.7678 11.6149 12.762 11.3233 14.0054C11.0928 14.9884 11.0928 16.0114 11.3233 16.9944L11.3803 17.2063C11.7678 18.4565 12.762 19.3848 14.0053 19.6765L14.3473 19.7468C15.2444 19.9036 16.1352 19.878 16.9944 19.6765L17.2063 19.6195C18.4565 19.232 19.3848 18.2378 19.6765 16.9945L19.7467 16.6525C19.9036 15.7553 19.878 14.8645 19.6765 14.0054L19.6195 13.7935C19.232 12.5433 18.2378 11.615 16.9944 11.3233L16.6241 11.2477C15.7553 11.0962 14.8645 11.1218 14.0054 11.3233ZM16.2806 13.218L16.566 13.2767C17.0901 13.4 17.5319 13.8126 17.6995 14.3526L17.738 14.4963C17.8692 15.0587 17.887 15.6773 17.7818 16.2806L17.7231 16.566C17.5998 17.0901 17.1872 17.5319 16.6472 17.6995L16.5035 17.738C15.9411 17.8692 15.3225 17.887 14.7192 17.7818L14.4338 17.7231C13.9097 17.5998 13.4679 17.1872 13.3003 16.6472L13.2618 16.5035C13.1104 15.8552 13.1104 15.1446 13.2705 14.462C13.4 13.9097 13.8126 13.4679 14.3525 13.3003L14.4963 13.2618C15.0587 13.1306 15.6773 13.1128 16.2806 13.218Z" fill="#F5B544"/>
</svg>
