<svg width="24" height="24" viewBox="0 0 24 24" fill="none" xmlns="http://www.w3.org/2000/svg">
<path fill-rule="evenodd" clip-rule="evenodd" d="M3.18162 4.98216C1.60613 7.09959 1.60613 10.0901 3.1816 12.2076L8.3157 19.1077C10.1931 21.6308 13.8069 21.6308 15.6843 19.1077L20.8184 12.2076C22.3939 10.0901 22.3939 7.09958 20.8184 4.98215L20.6809 4.80611C18.6181 2.2868 14.509 2.51862 12.1297 4.79709L12 4.92604L11.8703 4.79709C9.43695 2.46684 5.19417 2.27732 3.18162 4.98216ZM19.2138 6.17605C20.2621 7.58487 20.2621 9.60486 19.2138 11.0137L14.0797 17.9138C13.0021 19.3621 10.9979 19.3621 9.92025 17.9138L4.78617 11.0137C3.73794 9.60487 3.73794 7.58487 4.78618 6.17605C6.20165 4.27368 9.77893 4.77231 11.1407 7.06008C11.5284 7.71143 12.4716 7.71143 12.8593 7.06008C14.2211 4.77231 17.7983 4.27368 19.2138 6.17605Z" fill="#E6521F"/>
</svg>
