<svg width="12" height="14" viewBox="0 0 12 14" fill="none" xmlns="http://www.w3.org/2000/svg">
<path fill-rule="evenodd" clip-rule="evenodd" d="M10.7198 7.27998L6.59979 11.4066C5.47852 12.4031 3.77488 12.353 2.71417 11.2923C1.65346 10.2316 1.60331 8.52792 2.59979 7.40665L7.93312 2.07331C8.59439 1.44516 9.63185 1.44516 10.2931 2.07331C10.9387 2.72754 10.9387 3.77909 10.2931 4.43331L5.69312 9.02665C5.56927 9.16003 5.38367 9.2172 5.20623 9.17663C5.0288 9.13606 4.88648 9.00391 4.8329 8.82996C4.77932 8.65602 4.8226 8.46669 4.94646 8.33331L8.36646 4.91998C8.62787 4.65857 8.62787 4.23473 8.36646 3.97331C8.10504 3.7119 7.6812 3.7119 7.41979 3.97331L3.99979 7.39998C3.65414 7.74295 3.45973 8.20972 3.45973 8.69665C3.45973 9.18357 3.65414 9.65035 3.99979 9.99331C4.72589 10.685 5.86702 10.685 6.59312 9.99331L11.1865 5.39331C12.2879 4.21128 12.2554 2.36928 11.1129 1.22683C9.97049 0.0843785 8.12849 0.0518786 6.94646 1.15331L1.61312 6.48665C0.118964 8.14152 0.192309 10.6793 1.77955 12.2452C3.36679 13.811 5.90538 13.8498 7.53979 12.3333L11.6665 8.21331C11.8356 8.04421 11.9016 7.79773 11.8397 7.56673C11.7778 7.33573 11.5974 7.15529 11.3664 7.0934C11.1354 7.0315 10.8889 7.09754 10.7198 7.26665V7.27998Z" fill="#091B3D" fill-opacity="0.4"/>
</svg>
