<svg width="24" height="24" viewBox="0 0 24 24" fill="none" xmlns="http://www.w3.org/2000/svg">
<path fill-rule="evenodd" clip-rule="evenodd" d="M3 11.1755C3 6.11281 7.02452 2 12 2C16.9755 2 21 6.1128 21 11.1755C21 16.508 16.7971 22 12 22C7.20296 22 3 16.508 3 11.1755ZM19 11.1755C19 7.20777 15.8611 4 12 4C8.13892 4 5 7.20778 5 11.1755C5 15.5025 8.44191 20 12 20C15.5581 20 19 15.5025 19 11.1755ZM8.5 10.5C8.5 8.56701 10.067 7 12 7C13.933 7 15.5 8.56701 15.5 10.5C15.5 12.433 13.933 14 12 14C10.067 14 8.5 12.433 8.5 10.5ZM13.5 10.5C13.5 9.67158 12.8284 9 12 9C11.1716 9 10.5 9.67158 10.5 10.5C10.5 11.3284 11.1716 12 12 12C12.8284 12 13.5 11.3284 13.5 10.5Z" fill="#4B9F47"/>
</svg>
