<svg width="24" height="24" viewBox="0 0 24 24" fill="none" xmlns="http://www.w3.org/2000/svg">
<path fill-rule="evenodd" clip-rule="evenodd" d="M13 3C13 2.44772 12.5523 2 12 2C10.8973 2 9.79741 2.12706 8.72206 2.37931C5.57488 3.11753 3.11753 5.57488 2.37931 8.72206C1.87356 10.8781 1.87356 13.1219 2.37931 15.278C3.11753 18.4251 5.57488 20.8824 8.72207 21.6207C10.8781 22.1264 13.1219 22.1264 15.278 21.6207C18.4251 20.8824 20.8824 18.4251 21.6207 15.278C21.8729 14.2026 22 13.1028 22 12C22 11.4477 21.5523 11 21 11C20.4477 11 20 11.4477 20 12C20 12.9491 19.8907 13.8957 19.6735 14.8212C19.1088 17.2289 17.2289 19.1088 14.8212 19.6735C12.9655 20.1088 11.0345 20.1088 9.17881 19.6735C6.77113 19.1088 4.89121 17.2289 4.32646 14.8212C3.89118 12.9655 3.89118 11.0345 4.32646 9.1788C4.89121 6.77114 6.77114 4.89121 9.1788 4.32645C10.1043 4.10936 11.051 4 12 4C12.5523 4 13 3.55228 13 3ZM18.5 3C16.567 3 15 4.56701 15 6.5C15 8.43299 16.567 10 18.5 10C20.433 10 22 8.43299 22 6.5C22 4.56701 20.433 3 18.5 3ZM18.5 5C19.3284 5 20 5.67158 20 6.5C20 7.32842 19.3284 8 18.5 8C17.6716 8 17 7.32842 17 6.5C17 5.67158 17.6716 5 18.5 5Z" fill="#091B3D"/>
</svg>
