<svg width="24" height="24" viewBox="0 0 24 24" fill="none" xmlns="http://www.w3.org/2000/svg">
<path fill-rule="evenodd" clip-rule="evenodd" d="M6.02899 3.941C3.99884 4.43746 2.42537 6.03433 1.96853 8.06466L1.90689 8.33865C1.36437 10.7498 1.36437 13.2502 1.90689 15.6614L1.96854 15.9354C2.42537 17.9657 3.99887 19.5626 6.02901 20.059C8.44476 20.6498 11.0007 20.6463 13.4284 20.0527C15.199 19.6197 16.6419 18.3549 17.3005 16.6969L18.2488 17.1669C20.2007 18.1365 22.5 16.725 22.5 14.5485V9.81013C22.5 7.51073 19.9612 6.11314 18.0056 7.32719L17.4349 7.68148C16.8558 5.83889 15.3315 4.41272 13.4284 3.94733C11.0008 3.35369 8.4449 3.35022 6.02899 3.941ZM17.9134 10.0445C17.9017 9.94987 17.8891 9.85534 17.8758 9.7609L19.0604 9.02638C19.688 8.63682 20.5 9.08385 20.5 9.81013V14.5485L20.4933 14.6608C20.4187 15.2836 19.7303 15.6697 19.1385 15.3757L17.8016 14.7118C17.8066 14.6828 17.8115 14.6539 17.8163 14.6249L17.8164 14.6245C17.8204 14.6002 17.8244 14.5759 17.8283 14.5516C18.0699 13.0599 18.0983 11.5426 17.9134 10.0448M15.9601 10.569C15.8907 9.89573 15.7722 9.22623 15.6047 8.56578L15.5797 8.4672C15.2593 7.20416 14.2415 6.2051 12.9533 5.89008L12.5286 5.79344C10.5402 5.37445 8.46675 5.4038 6.50407 5.88376C5.21012 6.20018 4.20957 7.21561 3.91975 8.50368L3.85811 8.77766C3.38063 10.8998 3.38063 13.1002 3.8581 15.2223L3.91975 15.4963C4.20958 16.7844 5.21014 17.7998 6.50409 18.1162C8.60684 18.6305 10.8368 18.6274 12.9534 18.1099C14.2415 17.7949 15.2593 16.7959 15.5797 15.5329L15.7052 15.0103C15.7827 14.6596 15.8464 14.3066 15.8964 13.9521C15.9411 13.6356 15.9749 13.3179 15.9978 12.9997C16.0183 12.7132 16.03 12.4263 16.0329 12.1393C16.0381 11.6153 16.0139 11.091 15.9601 10.569Z" fill="#E6521F"/>
</svg>
