<svg width="14" height="10" viewBox="0 0 14 10" fill="none" xmlns="http://www.w3.org/2000/svg">
<path fill-rule="evenodd" clip-rule="evenodd" d="M8.46927 0.169687L8.56894 0.246244L13.1799 4.26663L13.2538 4.34288L13.2956 4.39419L13.3523 4.47673L13.4081 4.58077L13.4472 4.67864L13.4726 4.76664L13.4882 4.84648L13.497 4.92123C13.499 4.94698 13.5 4.97338 13.5 5.00001L13.4919 5.12712L13.4773 5.21217L13.4472 5.32137L13.4076 5.42031L13.3536 5.52124L13.2896 5.61368L13.2331 5.68015L13.1571 5.75378L8.56894 9.75379C8.15264 10.1167 7.52096 10.0734 7.15803 9.65715C6.82302 9.27288 6.83411 8.70508 7.16523 8.33455L7.25466 8.24624L9.83 6.00001H1.5C0.947715 6.00001 0.5 5.5523 0.5 5.00001C0.5 4.48718 0.88604 4.06451 1.38338 4.00674L1.5 4.00001H9.831L7.25466 1.75378C6.83837 1.39086 6.7951 0.759172 7.15803 0.342876C7.46512 -0.00937393 7.96464 -0.094542 8.36327 0.107461L8.46927 0.169687Z" fill="white"/>
</svg>
