<svg width="20" height="20" viewBox="0 0 20 20" fill="none" xmlns="http://www.w3.org/2000/svg">
<path fill-rule="evenodd" clip-rule="evenodd" d="M11.5527 2.2893C9.9082 1.90357 8.1968 1.90357 6.55237 2.2893C4.4371 2.78548 2.78548 4.4371 2.2893 6.55237C1.90357 8.1968 1.90357 9.9082 2.2893 11.5527C2.78548 13.668 4.4371 15.3196 6.55237 15.8157C8.1968 16.2015 9.9082 16.2015 11.5527 15.8157C13.668 15.3196 15.3196 13.668 15.8157 11.5527C16.2015 9.9082 16.2015 8.1968 15.8157 6.55237C15.3196 4.4371 13.668 2.78548 11.5527 2.2893ZM6.09563 0.34215C8.0405 -0.11405 10.0646 -0.11405 12.0094 0.34215C14.8642 1.0118 17.0933 3.24084 17.7629 6.09563C18.2191 8.0405 18.2191 10.0646 17.7629 12.0094C17.5073 13.0989 17.0247 14.0972 16.3668 14.9526L19.7071 18.2929C20.0976 18.6834 20.0976 19.3166 19.7071 19.7071C19.3166 20.0976 18.6834 20.0976 18.2929 19.7071L14.9526 16.3668C14.0972 17.0247 13.0989 17.5073 12.0094 17.7629C10.0646 18.2191 8.0405 18.2191 6.09563 17.7629C3.24084 17.0933 1.0118 14.8642 0.34215 12.0094C-0.11405 10.0646 -0.11405 8.0405 0.34215 6.09563C1.0118 3.24084 3.24084 1.0118 6.09563 0.34215Z" fill="#091B3D" fill-opacity="0.4"/>
</svg>
