<svg width="20" height="20" viewBox="0 0 20 20" fill="none" xmlns="http://www.w3.org/2000/svg">
<path fill-rule="evenodd" clip-rule="evenodd" d="M10.8729 2.09202C10.2971 1.96933 9.70306 1.96933 9.12726 2.09202C8.51246 2.22303 7.91084 2.55657 6.33234 3.46675L6.16678 3.56222C4.69812 4.40906 4.1444 4.73951 3.73488 5.16964C3.24076 5.68863 2.87644 6.32596 2.67604 7.0267C2.50921 7.61007 2.50004 8.2749 2.50004 10C2.50004 11.7251 2.50921 12.3899 2.67604 12.9733C2.87644 13.674 3.24076 14.3114 3.73488 14.8304C4.1444 15.2605 4.69812 15.5909 6.16678 16.4378L6.33234 16.5333C7.91084 17.4434 8.51246 17.777 9.12726 17.908C9.70306 18.0307 10.2971 18.0307 10.8729 17.908C11.4877 17.777 12.0893 17.4434 13.6678 16.5332L13.8333 16.4378C15.302 15.5909 15.8557 15.2605 16.2652 14.8304C16.7594 14.3114 17.1237 13.674 17.3241 12.9733C17.4909 12.3899 17.5001 11.7251 17.5001 10C17.5001 8.2749 17.4909 7.61007 17.3241 7.0267C17.1237 6.32596 16.7594 5.68863 16.2652 5.16964C15.8557 4.73951 15.302 4.40906 13.8333 3.56222L13.6678 3.46675C12.0893 2.55657 11.4877 2.22303 10.8729 2.09202ZM8.71036 0.135938C9.56096 -0.0453125 10.4391 -0.0453125 11.2897 0.135938C12.2521 0.341008 13.1413 0.854037 14.5165 1.64745C14.566 1.67599 14.6161 1.70489 14.6668 1.73415L14.8324 1.82961C14.8786 1.85629 14.9243 1.88262 14.9695 1.90862C16.2539 2.64891 17.0801 3.12508 17.7137 3.79055C18.433 4.546 18.9587 5.46865 19.247 6.47678C19.5006 7.3635 19.5004 8.3283 19.5001 9.8426C19.5001 9.8944 19.5001 9.9469 19.5001 10C19.5001 10.0531 19.5001 10.1056 19.5001 10.1574C19.5004 11.6717 19.5006 12.6365 19.247 13.5232C18.9587 14.5314 18.433 15.454 17.7137 16.2094C17.0801 16.8749 16.2539 17.3511 14.9695 18.0914C14.9243 18.1174 14.8786 18.1437 14.8324 18.1704L14.6668 18.2659C14.6161 18.2951 14.566 18.324 14.5165 18.3525C13.1413 19.146 12.2521 19.659 11.2897 19.8641C10.4391 20.0453 9.56096 20.0453 8.71036 19.8641C7.74806 19.659 6.85882 19.146 5.48359 18.3525C5.43413 18.324 5.38404 18.2951 5.3333 18.2659L5.83282 17.3996L5.3333 18.2659L5.16774 18.1704C5.12147 18.1437 5.07577 18.1174 5.03065 18.0914C3.74618 17.3511 2.91997 16.8749 2.28639 16.2094C1.56715 15.454 1.04144 14.5314 0.753129 13.5232C0.499539 12.6365 0.499729 11.6717 0.500019 10.1574C0.500029 10.1056 0.500039 10.0531 0.500039 10C0.500039 9.9469 0.500029 9.8944 0.500019 9.8426C0.499729 8.3283 0.499539 7.3635 0.753129 6.47678C1.04144 5.46865 1.56714 4.546 2.28639 3.79055C2.91997 3.12508 3.74619 2.64891 5.03066 1.90863C5.07579 1.88262 5.12147 1.85629 5.16774 1.82961L5.3333 1.73415C5.38404 1.70489 5.43414 1.67599 5.4836 1.64745C6.85882 0.854037 7.74806 0.341008 8.71036 0.135938ZM6.34379 10C6.34379 7.96741 7.95753 6.2771 10.0001 6.2771C12.0426 6.2771 13.6563 7.96741 13.6563 10C13.6563 12.0326 12.0426 13.7229 10.0001 13.7229C7.95753 13.7229 6.34379 12.0326 6.34379 10ZM10.0001 8.2771C9.10856 8.2771 8.34376 9.025 8.34376 10C8.34376 10.975 9.10856 11.7229 10.0001 11.7229C10.8916 11.7229 11.6563 10.975 11.6563 10C11.6563 9.025 10.8916 8.2771 10.0001 8.2771Z" fill="#091B3D"/>
</svg>
