<svg width="24" height="24" viewBox="0 0 24 24" fill="none" xmlns="http://www.w3.org/2000/svg">
<path fill-rule="evenodd" clip-rule="evenodd" d="M3.67567 2.01561C3.13199 1.91855 2.61255 2.28061 2.51549 2.8243C2.41843 3.36799 2.78049 3.88742 3.32418 3.98448C4.20107 4.14103 4.91691 4.84856 5.08942 5.79114L5.18386 6.30717C4.76527 6.96266 4.44931 7.69369 4.25822 8.47654C3.79561 10.3718 3.79561 12.355 4.25822 14.2502C4.58651 15.5952 5.28338 16.7871 6.23602 17.7059C6.126 17.8659 6.03325 18.0381 5.95973 18.2194C5.77018 18.6871 5.71509 19.1993 5.79982 19.6964C5.88457 20.1937 6.10635 20.659 6.44276 21.0362C6.77941 21.4137 7.21731 21.6875 7.70664 21.821C8.1962 21.9545 8.71309 21.9408 9.19489 21.7818C9.67642 21.6229 10.0994 21.3267 10.4163 20.9327C10.6915 20.5905 10.8772 20.1863 10.9604 19.7575C12.0623 19.9124 13.179 19.9199 14.2824 19.78C14.3425 20.1365 14.4735 20.4791 14.6698 20.7861C14.9428 21.213 15.332 21.5545 15.7943 21.7658C16.257 21.9772 16.7707 22.048 17.2735 21.9681C17.7761 21.8883 18.2424 21.662 18.6179 21.3203C18.9931 20.9789 19.2617 20.537 19.3961 20.049C19.5304 19.5612 19.5258 19.0446 19.3828 18.5592C19.3063 18.2996 19.1916 18.0537 19.0431 17.8301C20.0634 16.8956 20.8097 15.6565 21.1529 14.2502C21.6155 12.355 21.6155 10.3718 21.1529 8.47655C20.5166 5.86979 18.4958 3.83773 15.9117 3.25523L15.4645 3.15442C13.6468 2.74469 11.7643 2.74469 9.94667 3.15442L9.49945 3.25523C8.49595 3.48143 7.57739 3.92624 6.79187 4.53842C6.24853 3.24009 5.09454 2.26892 3.67567 2.01561ZM7.81325 18.9707C7.82702 18.9368 7.8432 18.9045 7.86151 18.8741C8.22442 19.0619 8.60607 19.2184 9.00318 19.3399C8.98523 19.4674 8.93384 19.5847 8.8577 19.6794C8.77884 19.7775 8.67752 19.8464 8.56814 19.8825C8.45903 19.9186 8.34313 19.9215 8.23286 19.8915C8.12235 19.8613 8.01845 19.7982 7.93542 19.705C7.85214 19.6117 7.7939 19.4924 7.7714 19.3604C7.74888 19.2283 7.76381 19.0927 7.81325 18.9707ZM16.3547 19.7085C16.2941 19.6139 16.2566 19.5033 16.2469 19.387C16.6432 19.2763 17.0249 19.1311 17.3887 18.9547C17.4207 19.0064 17.4464 19.0634 17.4644 19.1244C17.502 19.2523 17.5033 19.3894 17.4678 19.5181C17.4324 19.6467 17.363 19.7581 17.2718 19.8411C17.1809 19.9238 17.0723 19.975 16.9598 19.9929C16.8475 20.0107 16.7319 19.9953 16.6256 19.9467C16.5191 19.898 16.4239 19.8168 16.3547 19.7085ZM10.3864 5.10546C11.9145 4.76101 13.4966 4.76101 15.0247 5.10546L15.4719 5.20627C17.2906 5.61624 18.7477 7.05691 19.21 8.95081C19.5911 10.512 19.5964 12.1454 19.2261 13.7087H6.185C5.8147 12.1454 5.82009 10.512 6.20117 8.9508C6.66346 7.0569 8.12055 5.61624 9.93925 5.20627L10.3864 5.10546ZM7.12572 15.7087H18.2854C17.5868 16.6167 16.5988 17.2664 15.4719 17.5205L15.0247 17.6213C13.4966 17.9657 11.9145 17.9657 10.3864 17.6213L9.93925 17.5205C8.81238 17.2664 7.82433 16.6167 7.12572 15.7087ZM14.1413 6.01006C13.5946 5.93195 13.0881 6.31185 13.01 6.85858C12.9319 7.40532 13.3117 7.91185 13.8585 7.98995L13.8993 7.99579C15.2321 8.18619 15.9999 9.12426 15.9999 10C15.9999 10.5523 16.4476 11 16.9999 11C17.5522 11 17.9999 10.5523 17.9999 10C17.9999 7.90804 16.2645 6.31337 14.1821 6.01589L14.1413 6.01006Z" fill="#091B3D" fill-opacity="0.4"/>
</svg>
