<svg width="24" height="24" viewBox="0 0 24 24" fill="none" xmlns="http://www.w3.org/2000/svg">
<path fill-rule="evenodd" clip-rule="evenodd" d="M8.11872 5.67641L8.73039 4.20304C9.94985 1.26566 14.0502 1.26566 15.2697 4.20302L15.8813 5.67635C16.1024 6.2088 16.5827 6.57414 17.1353 6.63677L18.8423 6.83021C21.8439 7.17036 23.0739 10.9107 20.8967 13.0174L19.4474 14.4199C19.0549 14.7996 18.8799 15.3639 18.988 15.9107L19.3379 17.682C19.9496 20.7791 16.6077 23.1345 13.9613 21.434L12.8165 20.6985C12.3164 20.3771 11.6837 20.3771 11.1835 20.6985L10.0388 21.434C7.39239 23.1345 4.05041 20.7791 4.66222 17.682L5.01213 15.9107C5.12015 15.3639 4.9452 14.7997 4.55261 14.4198L3.10337 13.0175C0.92608 10.9107 2.15614 7.17036 5.15776 6.83021L6.86468 6.63677C7.41737 6.57414 7.89769 6.20882 8.11872 5.67641ZM14.0341 6.44321L13.4226 4.9699C12.8857 3.6767 11.1144 3.6767 10.5775 4.96988L9.96587 6.44326C9.46763 7.64338 8.36878 8.47912 7.08989 8.62405L5.38297 8.81749C4.07336 8.9659 3.52273 10.6403 4.49413 11.5802L5.94334 12.9825C6.82519 13.8357 7.21337 15.0877 6.97422 16.2983L6.62431 18.0696C6.35026 19.4569 7.81234 20.4873 8.95766 19.7514L10.1023 19.0159C11.2612 18.2713 12.7389 18.2713 13.8977 19.0159L15.0424 19.7514C16.1877 20.4873 17.6498 19.4569 17.3758 18.0696L17.0259 16.2983C16.7867 15.0877 17.1748 13.8357 18.0566 12.9826L19.506 11.5801C20.4773 10.6403 19.9267 8.9659 18.6171 8.81749L16.9101 8.62405C15.6313 8.47912 14.5325 7.64338 14.0341 6.44321Z" fill="#F5B544"/>
</svg>
