<svg width="24" height="24" viewBox="0 0 24 24" fill="none" xmlns="http://www.w3.org/2000/svg">
<path fill-rule="evenodd" clip-rule="evenodd" d="M7.37201 4.43584C10.4284 3.85472 13.5716 3.85472 16.628 4.43584C18.0311 4.70261 19.141 5.71037 19.5194 7.01771L19.5676 7.18452C20.1441 9.17665 20.1441 11.2843 19.5676 13.2765L19.5194 13.4433C19.141 14.7506 18.0311 15.7584 16.628 16.0251C13.5716 16.6063 10.4284 16.6063 7.37201 16.0251C5.96895 15.7584 4.85896 14.7506 4.48064 13.4433L4.43237 13.2765C3.85588 11.2843 3.85588 9.17665 4.43237 7.18451L4.48064 7.01771C4.85896 5.71036 5.96895 4.70261 7.37201 4.43584ZM17.0016 2.47104C13.6984 1.84299 10.3016 1.84299 6.99843 2.47104C4.87872 2.87408 3.15371 4.40827 2.55946 6.46176L2.51119 6.62856C1.8296 8.98388 1.8296 11.4771 2.51119 13.8324L2.55946 13.9992C3.15371 16.0527 4.87872 17.5869 6.99843 17.9899C8.32129 18.2415 9.65915 18.3922 11 18.4423V20H9.36386C8.81157 20 8.36386 20.4477 8.36386 21C8.36386 21.5523 8.81157 22 9.36386 22H14.6361C15.1884 22 15.6361 21.5523 15.6361 21C15.6361 20.4477 15.1884 20 14.6361 20H13V18.4423C14.3409 18.3922 15.6787 18.2415 17.0016 17.9899C19.1213 17.5869 20.8463 16.0527 21.4405 13.9992L21.4888 13.8324C22.1704 11.4771 22.1704 8.98388 21.4888 6.62856L21.4405 6.46176C20.8463 4.40827 19.1213 2.87408 17.0016 2.47104ZM14.5598 12.157L14.5285 12.1817L14.5282 12.182C14.3689 12.3075 14.1799 12.4566 14.0002 12.5625C13.7834 12.6902 13.4556 12.8332 13.0437 12.7809C12.6317 12.7286 12.3501 12.5082 12.1721 12.3303C12.0245 12.1827 11.8786 11.991 11.7557 11.8295L11.7316 11.7978L10.6775 10.4143L8.61867 12.0357C8.18477 12.3773 7.55604 12.3026 7.21434 11.8687C6.87265 11.4348 6.9474 10.8061 7.38129 10.4644L9.44013 8.84304L9.47145 8.81836C9.63078 8.69272 9.81996 8.54355 9.99978 8.43756C10.2165 8.30979 10.5444 8.1668 10.9563 8.21912C11.3682 8.27143 11.6499 8.49182 11.8278 8.66972C11.9751 8.81686 12.1204 9.00787 12.2431 9.16906L12.2442 9.17051L12.2684 9.20223L13.3225 10.5857L15.3813 8.96438C15.8152 8.62269 16.4439 8.69743 16.7856 9.13133C17.1273 9.56522 17.0526 10.194 16.6187 10.5357L14.5598 12.157Z" fill="#091B3D" fill-opacity="0.4"/>
</svg>
