<svg width="20" height="6" viewBox="0 0 20 6" fill="none" xmlns="http://www.w3.org/2000/svg">
<path fill-rule="evenodd" clip-rule="evenodd" d="M0 3C0 1.34772 1.34772 0 3 0C4.65228 0 6 1.34772 6 3C6 4.65228 4.65228 6 3 6C1.34772 6 0 4.65228 0 3ZM4 3C4 2.45228 3.54772 2 3 2C2.45228 2 2 2.45228 2 3C2 3.54772 2.45228 4 3 4C3.54772 4 4 3.54772 4 3ZM14 3C14 1.34772 15.3477 0 17 0C18.6523 0 20 1.34772 20 3C20 4.65228 18.6523 6 17 6C15.3477 6 14 4.65228 14 3ZM18 3C18 2.45228 17.5477 2 17 2C16.4523 2 16 2.45228 16 3C16 3.54772 16.4523 4 17 4C17.5477 4 18 3.54772 18 3ZM10 0C8.34772 0 7 1.34772 7 3C7 4.65228 8.34772 6 10 6C11.6523 6 13 4.65228 13 3C13 1.34772 11.6523 0 10 0ZM10 2C10.5477 2 11 2.45228 11 3C11 3.54772 10.5477 4 10 4C9.45228 4 9 3.54772 9 3C9 2.45228 9.45228 2 10 2Z" fill="#F5B544"/>
</svg>
