<svg width="24" height="24" viewBox="0 0 24 24" fill="none" xmlns="http://www.w3.org/2000/svg">
<path fill-rule="evenodd" clip-rule="evenodd" d="M2 12C2 10.3477 3.34772 9 5 9C6.65228 9 8 10.3477 8 12C8 13.6523 6.65228 15 5 15C3.34772 15 2 13.6523 2 12ZM6 12C6 11.4523 5.54772 11 5 11C4.45228 11 4 11.4523 4 12C4 12.5477 4.45228 13 5 13C5.54772 13 6 12.5477 6 12ZM16 12C16 10.3477 17.3477 9 19 9C20.6523 9 22 10.3477 22 12C22 13.6523 20.6523 15 19 15C17.3477 15 16 13.6523 16 12ZM20 12C20 11.4523 19.5477 11 19 11C18.4523 11 18 11.4523 18 12C18 12.5477 18.4523 13 19 13C19.5477 13 20 12.5477 20 12ZM12 9C10.3477 9 9 10.3477 9 12C9 13.6523 10.3477 15 12 15C13.6523 15 15 13.6523 15 12C15 10.3477 13.6523 9 12 9ZM12 11C12.5477 11 13 11.4523 13 12C13 12.5477 12.5477 13 12 13C11.4523 13 11 12.5477 11 12C11 11.4523 11.4523 11 12 11Z" fill="#091B3D"/>
</svg>
