<svg width="24" height="24" viewBox="0 0 24 24" fill="none" xmlns="http://www.w3.org/2000/svg">
<path fill-rule="evenodd" clip-rule="evenodd" d="M10 2C7.20055 2 4.91669 4.2023 4.91669 6.9375C4.91669 9.6727 7.20055 11.875 10 11.875C12.7995 11.875 15.0834 9.67271 15.0834 6.9375C15.0834 4.20229 12.7995 2 10 2ZM10 4C11.7109 4 13.0834 5.32347 13.0834 6.9375C13.0834 8.55153 11.7109 9.875 10 9.875C8.28917 9.875 6.91669 8.55153 6.91669 6.9375C6.91669 5.32347 8.28917 4 10 4ZM19 9C19.5128 9 19.9355 9.38604 19.9933 9.88338L20 10V11H21C21.5523 11 22 11.4477 22 12C22 12.5128 21.614 12.9355 21.1166 12.9933L21 13H20V14C20 14.5523 19.5523 15 19 15C18.4872 15 18.0645 14.614 18.0067 14.1166L18 14V13H17C16.4477 13 16 12.5523 16 12C16 11.4872 16.386 11.0645 16.8834 11.0067L17 11H18V10C18 9.44772 18.4477 9 19 9ZM6.84117 13.2761L7.04916 13.2417C9.00397 12.9195 10.996 12.9195 12.9509 13.2417L13.1587 13.276C15.9541 13.7369 18 16.2145 18 19.1115C18 20.6996 16.7412 22 15.1719 22H4.82813C3.25879 22 2 20.6996 2 19.1115C2 16.2145 4.04596 13.7369 6.84117 13.2761ZM12.8331 15.2493L12.6255 15.2151C10.8862 14.9283 9.11387 14.9283 7.37469 15.215L7.16671 15.2494C5.34867 15.5491 4 17.1823 4 19.1115C4 19.6094 4.37816 20 4.82813 20H15.1719C15.6218 20 16 19.6093 16 19.1115C16 17.1823 14.6513 15.5491 12.8331 15.2493Z" fill="#091B3D"/>
</svg>
