<svg width="11" height="10" viewBox="0 0 11 10" fill="none" xmlns="http://www.w3.org/2000/svg">
<path fill-rule="evenodd" clip-rule="evenodd" d="M5.5 0C6.01284 0 6.43551 0.38604 6.49327 0.883379L6.5 1V4H9.5C10.0523 4 10.5 4.44772 10.5 5C10.5 5.51284 10.114 5.93551 9.61662 5.99327L9.5 6H6.5V9C6.5 9.55229 6.05228 10 5.5 10C4.98716 10 4.56449 9.61396 4.50673 9.11662L4.5 9V6H1.5C0.947715 6 0.5 5.55228 0.5 5C0.5 4.48716 0.88604 4.06449 1.38338 4.00673L1.5 4H4.5V1C4.5 0.447715 4.94772 0 5.5 0Z" fill="white"/>
</svg>
