<svg width="571" height="464" viewBox="0 0 571 464" fill="none" xmlns="http://www.w3.org/2000/svg">
<path d="M309.379 450.96L312.905 454.486C314.802 452.589 317.319 451.543 320.006 451.543C322.693 451.543 325.21 452.589 327.107 454.486L330.633 450.96C327.788 448.114 324.018 446.558 320.006 446.558C315.993 446.558 312.212 448.114 309.379 450.96Z" fill="#7238B3"/>
<path d="M303.516 445.099L307.042 448.625C310.507 445.16 315.103 443.263 320.003 443.263C324.903 443.263 329.499 445.172 332.965 448.625L336.491 445.099C332.089 440.697 326.229 438.266 320.003 438.266C313.778 438.266 307.917 440.697 303.516 445.099Z" fill="#7238B3"/>
<path d="M320.005 429.985C311.566 429.985 303.626 433.268 297.656 439.238L301.182 442.764C306.204 437.743 312.892 434.97 320.005 434.97C327.117 434.97 333.793 437.743 338.827 442.764L342.353 439.238C336.395 433.268 328.455 429.985 320.005 429.985Z" fill="#7238B3"/>
<path d="M320.007 454.486C317.648 454.486 315.739 456.395 315.739 458.753C315.739 461.112 317.648 463.021 320.007 463.021C322.366 463.021 324.274 461.112 324.274 458.753C324.274 456.395 322.366 454.486 320.007 454.486Z" fill="#7238B3"/>
<path d="M333.747 200.709L336.402 203.364C337.831 201.936 339.726 201.148 341.75 201.148C343.773 201.148 345.668 201.936 347.097 203.364L349.752 200.709C347.61 198.566 344.771 197.394 341.75 197.394C338.728 197.385 335.89 198.566 333.747 200.709Z" stroke="#7238B3" stroke-width="0.91562" stroke-miterlimit="10"/>
<path d="M329.341 196.296L331.996 198.951C334.606 196.342 338.067 194.913 341.757 194.913C345.447 194.913 348.908 196.351 351.517 198.951L354.172 196.296C350.858 192.981 346.445 191.15 341.757 191.15C337.059 191.15 332.655 192.981 329.341 196.296Z" stroke="#7238B3" stroke-width="0.91562" stroke-miterlimit="10"/>
<path d="M341.76 184.915C335.405 184.915 329.426 187.387 324.931 191.882L327.586 194.538C331.367 190.756 336.403 188.669 341.76 188.669C347.116 188.669 352.143 190.756 355.934 194.538L358.589 191.882C354.093 187.387 348.114 184.915 341.76 184.915Z" stroke="#7238B3" stroke-width="0.91562" stroke-miterlimit="10"/>
<path d="M341.766 209.792C343.541 209.792 344.979 208.353 344.979 206.578C344.979 204.803 343.541 203.364 341.766 203.364C339.991 203.364 338.552 204.803 338.552 206.578C338.552 208.353 339.991 209.792 341.766 209.792Z" stroke="#7238B3" stroke-width="0.91562" stroke-miterlimit="10"/>
<path d="M464.762 268.15V279.093" stroke="#7238B3" stroke-width="0.91192" stroke-miterlimit="10" stroke-linecap="round" stroke-linejoin="round"/>
<path d="M459.305 273.622H470.236" stroke="#7238B3" stroke-width="0.91192" stroke-miterlimit="10" stroke-linecap="round" stroke-linejoin="round"/>
<path d="M70.8003 373.349V384.292" stroke="#DB7294" stroke-width="0.91192" stroke-miterlimit="10" stroke-linecap="round" stroke-linejoin="round"/>
<path d="M65.332 378.821H76.2629" stroke="#DB7294" stroke-width="0.91192" stroke-miterlimit="10" stroke-linecap="round" stroke-linejoin="round"/>
<path d="M163.328 445.05V455.993" stroke="#DB7294" stroke-width="0.91192" stroke-miterlimit="10" stroke-linecap="round" stroke-linejoin="round"/>
<path d="M157.859 450.522H168.802" stroke="#DB7294" stroke-width="0.91192" stroke-miterlimit="10" stroke-linecap="round" stroke-linejoin="round"/>
<path d="M305.922 114.947V125.878" stroke="#DB7294" stroke-width="0.91192" stroke-miterlimit="10" stroke-linecap="round" stroke-linejoin="round"/>
<path d="M300.465 120.419H311.396" stroke="#DB7294" stroke-width="0.91192" stroke-miterlimit="10" stroke-linecap="round" stroke-linejoin="round"/>
<path d="M81.0315 72.4642V83.3951" stroke="#7238B3" stroke-width="0.91192" stroke-miterlimit="10" stroke-linecap="round" stroke-linejoin="round"/>
<path d="M75.5632 77.9235H86.4941" stroke="#7238B3" stroke-width="0.91192" stroke-miterlimit="10" stroke-linecap="round" stroke-linejoin="round"/>
<path d="M137.32 258.788V269.731" stroke="#EEDA36" stroke-width="0.91192" stroke-miterlimit="10" stroke-linecap="round" stroke-linejoin="round"/>
<path d="M131.852 264.259H142.795" stroke="#EEDA36" stroke-width="0.91192" stroke-miterlimit="10" stroke-linecap="round" stroke-linejoin="round"/>
<path d="M357.41 398.348V409.279" stroke="#EEDA36" stroke-width="0.91192" stroke-miterlimit="10" stroke-linecap="round" stroke-linejoin="round"/>
<path d="M351.941 403.807H362.872" stroke="#EEDA36" stroke-width="0.91192" stroke-miterlimit="10" stroke-linecap="round" stroke-linejoin="round"/>
<path d="M256.363 122.255C258.438 122.255 260.12 120.573 260.12 118.498C260.12 116.423 258.438 114.74 256.363 114.74C254.288 114.74 252.606 116.423 252.606 118.498C252.606 120.573 254.288 122.255 256.363 122.255Z" stroke="#EEDA36" stroke-width="0.91192" stroke-miterlimit="10" stroke-linecap="round" stroke-linejoin="round"/>
<path d="M84.4894 436.979C87.6907 426.406 81.7151 415.24 71.1425 412.039C60.5699 408.837 49.4039 414.813 46.2027 425.386C43.0014 435.958 48.977 447.124 59.5496 450.326C70.1222 453.527 81.2882 447.551 84.4894 436.979Z" fill="#E4B0C8"/>
<path d="M77.3726 422.726H53.918V440.345H77.3726V422.726Z" stroke="white" stroke-width="1.21589" stroke-miterlimit="10"/>
<path d="M53.918 422.726L65.6392 433.56L77.3726 422.726" stroke="white" stroke-width="1.21589" stroke-miterlimit="10"/>
<path d="M286.601 99.1286C293.626 99.1286 299.32 93.4344 299.32 86.4103C299.32 79.3862 293.626 73.6921 286.601 73.6921C279.577 73.6921 273.883 79.3862 273.883 86.4103C273.883 93.4344 279.577 99.1286 286.601 99.1286Z" fill="#E4B0C8"/>
<path d="M294.235 81.0361H279.328V92.2345H294.235V81.0361Z" stroke="white" stroke-width="1.21589" stroke-miterlimit="10"/>
<path d="M279.328 81.0361L286.782 87.9302L294.235 81.0361" stroke="white" stroke-width="1.21589" stroke-miterlimit="10"/>
<path d="M163.331 219.441L166.76 225.387L170.201 231.345H163.331H156.461L159.89 225.387L163.331 219.441Z" fill="#D96980"/>
<path d="M459.792 393.581L467.623 400.463L475.465 407.345L465.592 410.689L455.707 414.033L457.75 403.807L459.792 393.581Z" stroke="#D96980" stroke-width="1.21589" stroke-miterlimit="10"/>
<path d="M22.2298 72.7193L19.4941 82.787L16.7705 92.8545L9.41431 85.4498L2.07031 78.0571L12.1501 75.3822L22.2298 72.7193Z" stroke="#D96980" stroke-width="1.21589" stroke-miterlimit="10"/>
<path d="M241.391 424.368C241.391 427.468 238.874 429.985 235.774 429.985C232.673 429.985 230.156 427.468 230.156 424.368C230.156 421.267 232.673 418.75 235.774 418.75C238.874 418.738 241.391 421.255 241.391 424.368Z" stroke="#D96980" stroke-width="1.21589" stroke-miterlimit="10"/>
<path d="M442.952 59.4296C442.952 63.8068 439.402 67.3572 435.024 67.3572C430.647 67.3572 427.097 63.8068 427.097 59.4296C427.097 55.0524 430.647 51.502 435.024 51.502C439.402 51.502 442.952 55.0402 442.952 59.4296Z" stroke="#D96980" stroke-width="1.21589" stroke-miterlimit="10"/>
<path d="M285.861 272.989C285.861 275.774 283.599 278.023 280.827 278.023C278.043 278.023 275.793 275.761 275.793 272.989C275.793 270.205 278.055 267.955 280.827 267.955C283.599 267.955 285.861 270.205 285.861 272.989Z" fill="#D96980"/>
<path d="M448.001 449.841C448.001 452.625 445.74 454.875 442.967 454.875C440.183 454.875 437.934 452.613 437.934 449.841C437.934 447.056 440.195 444.807 442.967 444.807C445.74 444.795 448.001 447.056 448.001 449.841Z" fill="#D96980"/>
<path d="M296.549 375.452C296.549 377.118 295.2 378.456 293.546 378.456C291.88 378.456 290.543 377.106 290.543 375.452C290.543 373.799 291.893 372.449 293.546 372.449C295.212 372.449 296.549 373.799 296.549 375.452Z" fill="#E4B0C8"/>
<path d="M543.059 299.374C547.377 299.374 550.878 295.874 550.878 291.556C550.878 287.238 547.377 283.738 543.059 283.738C538.742 283.738 535.241 287.238 535.241 291.556C535.241 295.874 538.742 299.374 543.059 299.374Z" stroke="#7238B3" stroke-width="1.21589" stroke-miterlimit="10"/>
<path d="M26.4153 353.676C30.3034 353.676 33.4553 350.524 33.4553 346.636C33.4553 342.748 30.3034 339.596 26.4153 339.596C22.5272 339.596 19.3752 342.748 19.3752 346.636C19.3752 350.524 22.5272 353.676 26.4153 353.676Z" stroke="#7238B3" stroke-width="1.21589" stroke-miterlimit="10"/>
<path d="M414.319 432.186C414.319 435.542 411.595 438.265 408.239 438.265C404.883 438.265 402.16 435.542 402.16 432.186C402.16 428.83 404.883 426.107 408.239 426.107C411.595 426.094 414.319 428.83 414.319 432.186Z" stroke="#7238B3" stroke-width="1.21589" stroke-miterlimit="10"/>
<path d="M35.0711 141.539C35.0711 141.539 33.7336 150.78 27.4596 151.74C21.1856 152.701 15.4344 152.288 18.9484 168.179" stroke="#EEDA36" stroke-width="1.21589" stroke-miterlimit="10"/>
<path d="M342.347 62.4813C342.347 62.4813 352.439 61.4965 355.077 67.8677C357.716 74.239 358.773 80.4036 374.617 72.5732" stroke="#EEDA36" stroke-width="1.21589" stroke-miterlimit="10"/>
<path d="M391.05 206.431C391.05 208.948 389.007 210.991 386.49 210.991C383.973 210.991 381.93 208.948 381.93 206.431C381.93 203.914 383.973 201.871 386.49 201.871C389.019 201.884 391.05 203.926 391.05 206.431Z" fill="#EEDA36"/>
<path d="M149.204 66.1442C151.713 64.2183 152.185 60.6233 150.259 58.1145C148.334 55.6058 144.739 55.1332 142.23 57.0591C139.721 58.9849 139.248 62.5799 141.174 65.0887C143.1 67.5975 146.695 68.07 149.204 66.1442Z" stroke="#D7D4FC" stroke-width="1.21589" stroke-miterlimit="10"/>
<path d="M105.019 342.709C47.8724 342.709 1.54688 298.742 1.54688 244.513C1.54688 206.176 24.6853 172.982 58.4385 156.811" stroke="#C1C0FF" stroke-width="1.21589" stroke-miterlimit="10" stroke-dasharray="4.86 4.86"/>
<path d="M328.495 365.458C332.69 403.856 303.813 438.509 263.98 442.862C224.147 447.215 188.449 419.626 184.254 381.241" stroke="#C1C0FF" stroke-width="1.21589" stroke-miterlimit="10" stroke-dasharray="4.86 4.86"/>
<path d="M347.716 229.049C381.112 229.049 408.185 202.574 408.185 169.914C408.185 137.255 381.112 110.779 347.716 110.779C314.319 110.779 287.246 137.255 287.246 169.914C287.246 202.574 314.319 229.049 347.716 229.049Z" stroke="#C1C0FF" stroke-width="1.04276" stroke-miterlimit="10" stroke-dasharray="4.17 4.17"/>
<path d="M195.893 268.661C233.048 268.661 263.168 239.21 263.168 202.881C263.168 166.552 233.048 137.101 195.893 137.101C158.737 137.101 128.617 166.552 128.617 202.881C128.617 239.21 158.737 268.661 195.893 268.661Z" stroke="#C1C0FF" stroke-width="1.21589" stroke-miterlimit="10" stroke-dasharray="4.86 4.86"/>
<path d="M504.036 359.853C540.466 359.853 569.999 332.558 569.999 298.888C569.999 265.218 540.466 237.923 504.036 237.923C467.607 237.923 438.074 265.218 438.074 298.888C438.074 332.558 467.607 359.853 504.036 359.853Z" stroke="#C1C0FF" stroke-width="1.21589" stroke-miterlimit="10" stroke-dasharray="4.86 4.86"/>
<path d="M261.641 406.845H131.941C126.727 406.845 122.492 402.621 122.492 397.396V313.921C122.492 308.706 126.716 304.472 131.941 304.472H261.641C266.856 304.472 271.09 308.696 271.09 313.921V397.396C271.09 402.611 266.856 406.845 261.641 406.845Z" fill="#E3D7F0"/>
<path d="M251.808 388.463H141.774C136.559 388.463 132.325 384.238 132.325 379.013V319.873C132.325 314.659 136.549 310.424 141.774 310.424H251.798C257.012 310.424 261.247 314.649 261.247 319.873V379.013C261.247 384.228 257.022 388.463 251.808 388.463Z" fill="white"/>
<path d="M170.86 346.088C170.86 346.088 163.867 368.129 178.157 373C192.457 377.871 194.053 373.839 197.237 381.449C200.41 389.059 213.144 385.774 214.356 374.061C215.569 362.349 206.928 363.258 202.431 362.652C197.934 362.045 194.933 353.779 194.973 349.474C195.024 345.189 172.477 337.114 170.86 346.088Z" fill="black"/>
<path d="M186.711 366.765C186.711 366.765 201.951 367.695 217.676 382.47C233.4 397.245 232.986 435.375 232.986 435.375L186.044 434.172L186.711 366.765Z" fill="white" stroke="black" stroke-width="1.0106" stroke-miterlimit="10"/>
<path d="M202.82 379.388C213.34 387.25 234.745 433.99 227.954 434.152C221.152 434.313 140.022 433.667 137.475 431.14C134.928 428.624 145.974 406.34 145.974 406.34C145.974 406.34 163.043 371.262 189.47 371.05C198.272 370.979 191.582 370.99 202.82 379.388Z" fill="white"/>
<path d="M159.709 408.139C159.709 408.139 152.271 428.978 153.989 431.332C155.707 433.687 210.319 434.303 214.897 434.152C219.475 434 211.724 401.146 207.843 391.697" stroke="#1C191B" stroke-width="1.0106" stroke-miterlimit="10"/>
<path d="M188.292 419.043C188.292 419.043 194.417 414.94 210.253 418.841C210.253 418.841 213.325 420.226 210.97 420.852C208.615 421.479 202.734 420.529 202.734 420.529C202.734 420.529 211.849 421.357 212.062 422.944C212.264 424.531 203.461 422.985 203.461 422.985C203.461 422.985 212.951 424.48 212.83 426.087C212.718 427.694 207.443 425.905 202.319 426.269C197.196 426.633 187.858 430.392 186.413 429.351C184.967 428.32 181.814 421.459 188.292 419.043Z" fill="white" stroke="#1C191B" stroke-width="1.0106" stroke-miterlimit="10"/>
<path d="M183.155 366.775C173.696 366.856 163.327 369.797 153.282 377.993C139.568 389.17 116.314 424.308 126.471 442.448C136.627 460.589 160.012 453.514 168.107 449.866C176.202 446.218 192.048 434.07 193.776 429.098C195.798 423.277 194.918 419.174 187.612 417.345C180.315 415.516 153.504 418.376 148.249 421.792" fill="white"/>
<path d="M183.155 366.775C173.696 366.856 163.327 369.797 153.282 377.993C139.568 389.17 116.314 424.308 126.471 442.448C136.627 460.589 160.012 453.514 168.107 449.866C176.202 446.218 192.048 434.07 193.776 429.098C195.798 423.277 194.918 419.174 187.612 417.345C180.315 415.516 153.504 418.376 148.249 421.792" stroke="black" stroke-width="1.0106" stroke-miterlimit="10"/>
<path d="M193.782 429.099C195.763 423.409 194.944 419.367 188.092 417.487C187.728 419.316 187.637 421.499 187.9 423.823C188.345 427.704 189.669 430.988 191.296 432.737C192.549 431.322 193.438 430.069 193.782 429.099Z" fill="#FFBA7B" stroke="black" stroke-width="1.0106" stroke-miterlimit="10"/>
<path d="M171.798 394.971C171.798 394.971 163.804 389.119 166.887 386.421C169.969 383.723 172.617 389.291 172.617 389.291C172.617 389.291 174.476 384.41 177.114 386.037C179.762 387.664 171.798 394.971 171.798 394.971Z" fill="#FFBA7B" stroke="#1C191B" stroke-width="1.0106" stroke-miterlimit="10"/>
<path d="M191.742 369.999C191.742 372.758 187.902 375.001 183.162 375.001C178.422 375.001 174.582 372.768 174.582 369.999C174.582 367.24 178.422 364.996 183.162 364.996C187.902 365.007 191.742 367.24 191.742 369.999Z" fill="#FFBA7B" stroke="#1C191B" stroke-width="1.0106" stroke-miterlimit="10"/>
<path d="M167.188 346.088C167.188 349.575 170.037 352.404 173.564 352.404C177.091 352.404 179.941 349.575 179.941 346.088C179.941 342.602 177.091 339.772 173.564 339.772C170.037 339.772 167.188 342.602 167.188 346.088Z" fill="white" stroke="black" stroke-width="1.0106" stroke-miterlimit="10"/>
<path d="M193.718 327.615H186.179C181.166 327.615 177.063 332.284 177.063 337.993V349.686C177.063 350.02 177.083 350.343 177.104 350.666C177.023 351.01 176.972 351.364 176.972 351.738V358.852V359.246V366.361C176.972 368.938 179.084 371.06 181.671 371.06H184.663C187.24 371.06 189.362 368.948 189.362 366.361V360.065H193.718C198.73 360.065 202.833 355.396 202.833 349.686V337.993C202.833 332.284 198.73 327.615 193.718 327.615Z" fill="white" stroke="black" stroke-width="1.0106" stroke-miterlimit="10"/>
<path d="M176.427 343.248C176.427 343.248 183.825 340.793 186.058 336.023C188.302 331.253 187.746 330.222 187.746 330.222C187.746 330.222 191.909 335.932 198.499 337.326C203.936 338.488 203.713 337.68 204.249 336.417C204.744 335.254 205.078 327.2 196.811 322.248C188.554 317.296 179.681 317.781 173.567 323.956C167.443 330.131 168.191 339.853 170.252 342.288C172.304 344.724 175.022 346.078 176.427 343.248Z" fill="black"/>
<path d="M180.742 314.672C181.678 310.706 179.223 306.733 175.258 305.797C171.293 304.86 167.319 307.316 166.383 311.281C165.447 315.246 167.902 319.22 171.867 320.156C175.832 321.092 179.806 318.637 180.742 314.672Z" fill="black"/>
<path d="M167.563 346.088C167.563 349.373 170.251 352.041 173.566 352.041C176.88 352.041 179.569 349.373 179.569 346.088C179.569 342.804 176.88 340.136 173.566 340.136C170.251 340.136 167.563 342.804 167.563 346.088Z" fill="white"/>
<path d="M176.809 346.877C176.809 346.877 177.072 342.834 172.918 343.279" stroke="#020202" stroke-width="1.0106" stroke-miterlimit="10"/>
<path d="M189.445 343.512C190.383 343.512 191.143 342.752 191.143 341.814C191.143 340.876 190.383 340.116 189.445 340.116C188.507 340.116 187.747 340.876 187.747 341.814C187.747 342.752 188.507 343.512 189.445 343.512Z" fill="black"/>
<path d="M198.88 341.561C198.88 342.359 199.527 343.016 200.335 343.016C201.134 343.016 201.79 342.369 201.79 341.561C201.79 340.763 201.144 340.106 200.335 340.106C199.527 340.116 198.88 340.763 198.88 341.561Z" fill="black"/>
<path d="M197.244 348.514C197.244 348.514 196.385 351 194.586 351.172C192.777 351.343 191.362 349.342 191.271 347.776" stroke="#0C0C0C" stroke-width="1.0106" stroke-miterlimit="10"/>
<path d="M181.825 348.059C181.825 350.393 183.715 352.283 186.049 352.283C188.384 352.283 190.274 350.393 190.274 348.059C190.274 345.724 188.384 343.834 186.049 343.834C183.715 343.834 181.825 345.724 181.825 348.059Z" fill="#E4B0C8"/>
<path d="M201.699 345.199C201.952 345.199 202.204 345.229 202.447 345.29V349.676C202.447 350.332 202.427 350.959 202.285 351.576C202.113 351.606 201.881 351.626 201.699 351.626C199.92 351.626 198.485 350.191 198.485 348.412C198.475 346.634 199.92 345.199 201.699 345.199Z" fill="#E4B0C8"/>
<path d="M195.329 340.116L194.986 345.896L197.745 344.219L195.329 340.116Z" fill="#DB7294"/>
<path d="M249.536 327.615H219.147C216.125 327.615 213.68 325.169 213.68 322.147C213.68 319.126 216.125 316.68 219.147 316.68H249.536C252.557 316.68 255.003 319.126 255.003 322.147C255.003 325.169 252.557 327.615 249.536 327.615Z" stroke="black" stroke-width="1.0106" stroke-miterlimit="10"/>
<path d="M251.807 388.463H141.773C136.559 388.463 132.324 384.238 132.324 379.014V319.873C132.324 314.659 136.549 310.424 141.773 310.424H251.797C257.012 310.424 261.246 314.649 261.246 319.873V379.014C261.246 384.228 257.022 388.463 251.807 388.463Z" stroke="black" stroke-width="1.0106" stroke-miterlimit="10"/>
<path d="M200.422 397.376C200.402 398.791 199.533 400.105 198.188 400.59C196.814 401.085 195.258 400.661 194.338 399.529C193.449 398.427 193.348 396.841 194.065 395.628C194.783 394.425 196.228 393.758 197.612 394.021C199.239 394.304 200.402 395.729 200.422 397.376C200.432 398.185 201.695 398.195 201.685 397.376C201.655 395.416 200.452 393.678 198.623 392.98C196.804 392.293 194.641 392.869 193.408 394.375C192.165 395.891 191.963 398.074 192.974 399.771C193.984 401.469 195.965 402.318 197.885 401.975C200.078 401.58 201.645 399.579 201.675 397.376C201.695 396.558 200.432 396.558 200.422 397.376Z" fill="black"/>
<path d="M185.803 216.378H70.4258C65.7863 216.378 62.0234 212.615 62.0234 207.976V133.723C62.0234 129.084 65.7863 125.321 70.4258 125.321H185.803C190.442 125.321 194.205 129.084 194.205 133.723V207.976C194.205 212.615 190.442 216.378 185.803 216.378Z" fill="#E3D7F0"/>
<path d="M131.238 207.955C131.217 209.163 130.479 210.296 129.325 210.713C128.138 211.14 126.791 210.777 126 209.793C125.241 208.853 125.156 207.484 125.776 206.448C126.396 205.421 127.625 204.844 128.812 205.058C130.212 205.314 131.217 206.533 131.238 207.955C131.249 208.81 132.585 208.821 132.575 207.955C132.553 206.159 131.452 204.577 129.774 203.946C128.128 203.315 126.15 203.85 125.027 205.218C123.894 206.608 123.702 208.596 124.621 210.146C125.551 211.696 127.347 212.466 129.111 212.156C131.11 211.792 132.532 209.965 132.564 207.965C132.585 207.089 131.249 207.089 131.238 207.955Z" fill="black"/>
<path d="M177.049 200.023H79.1719C74.5324 200.023 70.7695 196.26 70.7695 191.621V139.015C70.7695 134.376 74.5324 130.613 79.1719 130.613H177.049C181.689 130.613 185.452 134.376 185.452 139.015V191.621C185.462 196.26 181.7 200.023 177.049 200.023Z" fill="white"/>
<path d="M111.832 181.604C90.3554 181.604 72.9414 203.508 72.9414 230.521H150.722C150.722 203.508 133.308 181.604 111.832 181.604Z" fill="white" stroke="black" stroke-width="1.069" stroke-miterlimit="10"/>
<path d="M99.6799 193.385C99.6799 194.913 98.4398 196.164 96.9005 196.164C95.3611 196.164 94.1211 194.924 94.1211 193.385C94.1211 191.856 95.3611 190.605 96.9005 190.605C98.4398 190.605 99.6799 191.856 99.6799 193.385Z" fill="#FFBA7B"/>
<path d="M110.707 206.843C112.413 206.843 113.796 205.46 113.796 203.754C113.796 202.048 112.413 200.664 110.707 200.664C109 200.664 107.617 202.048 107.617 203.754C107.617 205.46 109 206.843 110.707 206.843Z" fill="#FFBA7B"/>
<path d="M125.328 193.385C125.328 194.913 124.088 196.164 122.549 196.164C121.02 196.164 119.77 194.924 119.77 193.385C119.77 191.856 121.01 190.605 122.549 190.605C124.088 190.616 125.328 191.856 125.328 193.385Z" fill="#FFBA7B"/>
<path d="M136.07 202.952C137.393 202.952 138.465 201.88 138.465 200.558C138.465 199.235 137.393 198.163 136.07 198.163C134.748 198.163 133.676 199.235 133.676 200.558C133.676 201.88 134.748 202.952 136.07 202.952Z" fill="#FFBA7B"/>
<path d="M90.1026 205.379C90.1026 206.972 88.8091 208.276 87.2056 208.276C85.6128 208.276 84.3086 206.983 84.3086 205.379C84.3086 203.776 85.6021 202.482 87.2056 202.482C88.8091 202.493 90.1026 203.786 90.1026 205.379Z" fill="#FFBA7B"/>
<path d="M99.605 216.839C101.311 216.839 102.694 215.455 102.694 213.749C102.694 212.043 101.311 210.66 99.605 210.66C97.8988 210.66 96.5156 212.043 96.5156 213.749C96.5156 215.455 97.8988 216.839 99.605 216.839Z" fill="#FFBA7B"/>
<path d="M128.181 215.748C129.586 215.748 130.725 214.609 130.725 213.204C130.725 211.799 129.586 210.66 128.181 210.66C126.776 210.66 125.637 211.799 125.637 213.204C125.637 214.609 126.776 215.748 128.181 215.748Z" fill="#FFBA7B"/>
<path d="M143.404 218.217C143.404 219.586 142.303 220.687 140.934 220.687C139.566 220.687 138.465 219.586 138.465 218.217C138.465 216.849 139.566 215.748 140.934 215.748C142.292 215.748 143.404 216.86 143.404 218.217Z" fill="#FFBA7B"/>
<path d="M86.7889 219.458C86.7889 220.901 85.613 222.077 84.1698 222.077C82.7267 222.077 81.5508 220.901 81.5508 219.458C81.5508 218.015 82.7267 216.839 84.1698 216.839C85.613 216.828 86.7889 218.004 86.7889 219.458Z" fill="#FFBA7B"/>
<path d="M117.07 222.077C117.07 223.52 115.894 224.696 114.451 224.696C113.008 224.696 111.832 223.52 111.832 222.077C111.832 220.633 113.008 219.458 114.451 219.458C115.894 219.458 117.07 220.633 117.07 222.077Z" fill="#FFBA7B"/>
<path d="M153.734 205.133L154.503 202.525C154.503 202.525 154.578 201.83 153.584 201.445C152.579 201.06 137.282 195.17 137.282 195.17C137.282 195.17 135.978 194.4 135.614 195.341C135.251 196.282 132.717 200.44 132.717 200.44C132.717 200.44 131.99 201.498 132.877 201.98C133.765 202.471 147.63 207.688 147.63 207.688L151.168 209.153C151.168 209.153 152.29 209.559 152.472 209.014C152.643 208.49 153.734 205.133 153.734 205.133Z" fill="#7238B3"/>
<path d="M158 186.811C158 186.811 159.379 179.691 158.246 178.355C157.112 177.019 156.033 178.451 155.477 180.247C154.91 182.043 154.023 185.453 154.023 185.453L150.453 178.28C150.453 178.28 158.384 172.497 158.684 171.438C158.983 170.38 159.047 169.675 158.502 169.664C157.957 169.653 156.257 170.113 156.257 170.113C156.257 170.113 158.94 167.526 158.107 166.607C157.273 165.687 154.376 167.793 154.376 167.793C154.376 167.793 155.413 163.87 154.942 163.111C154.461 162.352 151.212 166.82 150.324 168.488C149.426 170.156 147.823 172.914 147.823 172.914C147.823 172.914 146.754 173.747 146.797 174.196C146.839 174.645 145.492 175.64 145.279 175.821C145.075 176.003 143.451 179.392 141.922 182.834C140.393 186.287 138.127 190.969 138.127 190.969L137.015 193.096C137.015 193.096 135.829 194.828 138.298 195.534C140.767 196.239 150.506 200.237 150.506 200.237L153.595 201.424C153.595 201.424 154.525 202.728 155.274 199.735C156.022 196.763 158 186.811 158 186.811Z" fill="white"/>
<path d="M151.908 210.638C157.274 195.662 159.519 179.979 158.247 178.365C156.483 176.11 155.382 179.958 154.024 185.463L150.454 178.29C150.454 178.29 159.017 172.464 159.017 170.145C159.017 167.825 145.59 174.389 144.414 176.826C143.655 178.397 139.101 191.225 131.426 202.386" stroke="black" stroke-width="1.069" stroke-miterlimit="10"/>
<path d="M155.407 170.326C155.407 170.326 158.946 168.135 158.112 166.617C157.289 165.099 146.567 172.668 146.834 174.667" stroke="black" stroke-width="1.069" stroke-miterlimit="10"/>
<path d="M154.005 168.028C154.005 168.028 156.207 163.667 154.946 163.121C153.684 162.587 149.184 169.845 148.66 172.069" stroke="black" stroke-width="1.069" stroke-miterlimit="10"/>
<path d="M154.693 201.862L136.124 194.721" stroke="black" stroke-width="1.069" stroke-miterlimit="10"/>
<path d="M152.253 209.612L132.156 201.285" stroke="black" stroke-width="1.069" stroke-miterlimit="10"/>
<path d="M152.29 200.943L149.425 208.436" stroke="black" stroke-width="1.069" stroke-miterlimit="10"/>
<path d="M148.727 199.575L145.852 206.961" stroke="black" stroke-width="1.069" stroke-miterlimit="10"/>
<path d="M145.394 198.153L142.593 205.444" stroke="black" stroke-width="1.069" stroke-miterlimit="10"/>
<path d="M141.708 196.785L139.164 204.064" stroke="black" stroke-width="1.069" stroke-miterlimit="10"/>
<path d="M138.594 195.651L135.558 202.653" stroke="black" stroke-width="1.069" stroke-miterlimit="10"/>
<path d="M96.5276 159.7C96.5276 162.928 99.168 165.537 102.418 165.537C105.668 165.537 108.308 162.918 108.308 159.7C108.308 156.472 105.668 153.863 102.418 153.863C99.168 153.863 96.5276 156.472 96.5276 159.7Z" stroke="black" stroke-width="2.138" stroke-miterlimit="10"/>
<path d="M120.26 183.154C120.26 185.858 116.497 188.061 111.847 188.061C107.197 188.061 103.434 185.869 103.434 183.154C103.434 180.449 107.197 178.247 111.847 178.247C116.497 178.247 120.26 180.449 120.26 183.154Z" fill="#7238B3" stroke="#211F21" stroke-width="1.069" stroke-miterlimit="10"/>
<path d="M122.181 141.581H114.784C109.866 141.581 105.847 146.167 105.847 151.757V163.228C105.847 163.549 105.868 163.869 105.89 164.19C105.815 164.532 105.761 164.874 105.761 165.238V172.218V172.603V179.583C105.761 182.117 107.835 184.191 110.369 184.191H113.298C115.831 184.191 117.905 182.117 117.905 179.583V173.405H122.181C127.098 173.405 131.118 168.819 131.118 163.228V151.757C131.129 146.156 127.098 141.581 122.181 141.581Z" fill="white" stroke="black" stroke-width="1.069" stroke-miterlimit="10"/>
<path d="M116.332 155.499C116.332 156.419 117.08 157.167 117.999 157.167C118.919 157.167 119.667 156.419 119.667 155.499C119.667 154.58 118.919 153.832 117.999 153.832C117.08 153.842 116.332 154.58 116.332 155.499Z" fill="#141414"/>
<path d="M127.246 155.264C127.246 156.055 127.887 156.686 128.668 156.686C129.459 156.686 130.089 156.044 130.089 155.264C130.089 154.473 129.448 153.842 128.668 153.842C127.887 153.842 127.246 154.473 127.246 155.264Z" fill="#141414"/>
<path d="M125.647 162.084C125.647 162.084 124.814 164.522 123.039 164.693C121.264 164.864 119.875 162.897 119.779 161.368L125.647 162.084Z" fill="#F7F6F6"/>
<path d="M125.068 161.924C125.047 161.988 125.026 162.042 124.993 162.106C125.068 161.924 124.983 162.138 124.951 162.202C124.908 162.298 124.854 162.394 124.812 162.491C124.555 162.961 124.341 163.292 123.967 163.634C123.604 163.966 123.133 164.18 122.578 164.094C122.032 164.009 121.519 163.634 121.156 163.185C120.942 162.929 120.76 162.619 120.632 162.33C120.493 162.02 120.407 161.646 120.386 161.368C120.183 161.571 119.991 161.764 119.787 161.967C121.498 162.181 123.208 162.384 124.919 162.598C125.164 162.63 125.4 162.662 125.646 162.683C125.966 162.726 126.244 162.384 126.244 162.084C126.244 161.732 125.966 161.529 125.646 161.486C123.935 161.272 122.225 161.069 120.514 160.855C120.268 160.823 120.033 160.791 119.787 160.77C119.477 160.737 119.167 161.069 119.189 161.368C119.306 162.982 120.386 164.671 121.99 165.174C123.55 165.666 124.908 164.671 125.688 163.389C125.902 163.025 126.095 162.64 126.233 162.245C126.34 161.945 126.116 161.593 125.817 161.507C125.475 161.411 125.175 161.614 125.068 161.924Z" fill="#141414"/>
<path d="M114.679 165.783C116.97 165.783 118.827 163.926 118.827 161.635C118.827 159.344 116.97 157.487 114.679 157.487C112.388 157.487 110.531 159.344 110.531 161.635C110.531 163.926 112.388 165.783 114.679 165.783Z" fill="#E4B0C8"/>
<path d="M130.013 158.824C130.27 158.824 130.505 158.856 130.74 158.909V163.207C130.74 163.848 130.719 164.468 130.59 165.078C130.419 165.11 130.195 165.131 130.013 165.131C128.271 165.131 126.86 163.72 126.86 161.977C126.86 160.235 128.271 158.824 130.013 158.824Z" fill="#E4B0C8"/>
<path d="M123.779 153.842L123.437 159.519L126.153 157.862L123.779 153.842Z" fill="#D96980"/>
<path d="M107.868 157.487L109.151 150.528C109.151 150.528 116.356 152.827 121.862 148.422C127.367 144.007 118.334 142.233 119.788 145.525C121.242 148.807 126.298 150.165 132.541 149.47C141.841 148.444 142.076 137.209 136.731 133.916C131.386 130.613 125.346 134.493 125.346 134.493C125.346 134.493 128.126 128.924 121.167 127.064C115.448 125.535 111.161 130.378 110.53 132.516C110.53 132.516 101.102 133.446 96.9111 139.368C92.7206 145.29 92.3892 152.367 96.5262 158.824C100.663 165.28 105.602 168.755 105.602 168.755C105.602 168.755 106.414 160.406 107.868 157.487Z" fill="black"/>
<path d="M96.532 159.7C96.532 162.929 99.1724 165.537 102.422 165.537C105.672 165.537 108.312 162.918 108.312 159.7C108.312 156.472 105.672 153.864 102.422 153.864C99.1724 153.864 96.532 156.472 96.532 159.7Z" fill="white"/>
<path d="M106.34 160.47C106.372 159.957 106.287 159.412 106.148 158.92C105.859 157.915 105.218 157.007 104.255 156.568C103.486 156.216 102.631 156.119 101.786 156.216C101.401 156.258 101.027 156.526 101.048 156.953C101.07 157.317 101.369 157.734 101.786 157.691C102.139 157.659 102.492 157.648 102.844 157.68C102.876 157.68 102.919 157.691 102.951 157.691C102.727 157.68 102.866 157.68 102.919 157.691C102.983 157.702 103.048 157.712 103.122 157.734C103.261 157.766 103.39 157.808 103.518 157.851C103.7 157.915 103.368 157.776 103.539 157.862C103.593 157.883 103.646 157.915 103.689 157.937C103.796 157.99 103.892 158.086 103.999 158.129C103.849 158.065 103.881 158.033 103.935 158.086C103.956 158.108 103.978 158.118 103.999 158.14C104.042 158.172 104.074 158.204 104.117 158.247C104.191 158.322 104.255 158.418 104.341 158.493C104.17 158.322 104.288 158.418 104.33 158.482C104.362 158.525 104.384 158.557 104.405 158.6C104.459 158.685 104.512 158.781 104.555 158.867C104.576 158.91 104.598 158.963 104.619 159.006C104.662 159.081 104.544 158.813 104.587 158.92C104.598 158.942 104.608 158.963 104.608 158.984C104.64 159.081 104.672 159.177 104.704 159.273C104.758 159.433 104.79 159.604 104.822 159.765C104.833 159.797 104.833 159.84 104.843 159.872C104.865 160.021 104.822 159.658 104.833 159.797C104.843 159.872 104.843 159.936 104.854 160.011C104.865 160.16 104.875 160.321 104.865 160.47C104.843 160.855 105.218 161.219 105.602 161.208C106.03 161.187 106.319 160.887 106.34 160.47Z" fill="#090909"/>
<path d="M177.049 200.023H79.1719C74.5324 200.023 70.7695 196.26 70.7695 191.62V139.015C70.7695 134.375 74.5324 130.613 79.1719 130.613H177.049C181.689 130.613 185.452 134.375 185.452 139.015V191.62C185.462 196.26 181.7 200.023 177.049 200.023Z" stroke="black" stroke-width="1.069" stroke-miterlimit="10"/>
<path d="M465.335 371.458H345.822C341.017 371.458 337.122 367.563 337.122 362.758V285.836C337.122 281.031 341.017 277.136 345.822 277.136H465.335C470.141 277.136 474.036 281.031 474.036 285.836V362.758C474.036 367.563 470.141 371.458 465.335 371.458Z" fill="#E3D7F0"/>
<path d="M408.813 362.736C408.791 363.986 408.023 365.16 406.827 365.599C405.598 366.038 404.205 365.665 403.382 364.645C402.592 363.668 402.504 362.253 403.151 361.178C403.788 360.113 405.071 359.51 406.3 359.74C407.749 359.993 408.791 361.266 408.813 362.736C408.824 363.613 410.195 363.624 410.184 362.736C410.162 360.882 409.021 359.247 407.288 358.588C405.576 357.941 403.535 358.49 402.383 359.905C401.209 361.342 401.012 363.394 401.967 364.996C402.921 366.598 404.786 367.399 406.618 367.069C408.692 366.696 410.162 364.798 410.195 362.736C410.195 361.847 408.824 361.847 408.813 362.736Z" fill="black"/>
<path d="M456.265 354.518H354.877C350.071 354.518 346.176 350.623 346.176 345.818V291.322C346.176 286.516 350.071 282.622 354.877 282.622H456.265C461.07 282.622 464.965 286.516 464.965 291.322V345.818C464.965 350.623 461.07 354.518 456.265 354.518Z" fill="white"/>
<path d="M334.366 352.807C334.366 352.807 352.304 335.68 371.395 332.136C390.485 328.603 428.721 328.955 449.413 356.307C470.106 383.67 419.253 407.873 417.848 408.048C416.444 408.224 333.839 394.4 330.679 392.019C327.52 389.638 315.605 375.43 334.366 352.807Z" fill="#7238B3" stroke="black" stroke-width="0.997312" stroke-miterlimit="10"/>
<path d="M412.264 338.708C412.264 338.708 443.193 400.851 436.27 412.722C429.347 424.593 378.099 435.916 352.524 422.947C322.616 407.785 361.96 344.808 371.253 330.293L412.264 338.708Z" fill="#7238B3" stroke="black" stroke-width="0.997312" stroke-miterlimit="10"/>
<path d="M364.317 352.807C364.317 356.712 367.487 359.883 371.393 359.883C375.299 359.883 378.47 356.712 378.47 352.807C378.47 348.901 375.299 345.73 371.393 345.73C367.487 345.73 364.317 348.901 364.317 352.807Z" fill="white"/>
<path d="M456.26 354.518H354.872C350.067 354.518 346.172 350.623 346.172 345.818V291.322C346.172 286.516 350.067 282.622 354.872 282.622H456.26C461.066 282.622 464.961 286.516 464.961 291.322V345.818C464.961 350.623 461.066 354.518 456.26 354.518Z" stroke="black" stroke-width="1.09715" stroke-miterlimit="10"/>
<path d="M416.635 335.201C417.544 326.328 407.16 317.995 393.441 316.588C379.721 315.181 367.862 321.234 366.952 330.107C366.042 338.98 376.427 347.313 390.146 348.72C403.866 350.127 415.725 344.074 416.635 335.201Z" fill="#7238B3" stroke="black" stroke-width="1.06599" stroke-miterlimit="10"/>
<path d="M378.602 308.064C378.602 311.641 381.532 314.548 385.141 314.548C388.751 314.548 391.68 311.641 391.68 308.064C391.68 304.488 388.751 301.58 385.141 301.58C381.532 301.58 378.602 304.488 378.602 308.064Z" stroke="black" stroke-width="2.06276" stroke-miterlimit="10"/>
<path d="M407.086 287.942H398.868C393.405 287.942 388.939 293.033 388.939 299.243V311.97C388.939 312.332 388.961 312.683 388.983 313.034C388.895 313.407 388.84 313.802 388.84 314.197V321.943V322.371V330.117C388.84 332.926 391.144 335.23 393.953 335.23H397.212C400.02 335.23 402.324 332.926 402.324 330.117V323.26H407.075C412.539 323.26 417.004 318.169 417.004 311.959V299.232C417.015 293.033 412.55 287.942 407.086 287.942Z" fill="white" stroke="black" stroke-width="1.03132" stroke-miterlimit="10"/>
<path d="M400.574 303.401C400.574 304.422 401.408 305.256 402.429 305.256C403.449 305.256 404.283 304.422 404.283 303.401C404.283 302.381 403.449 301.547 402.429 301.547C401.408 301.558 400.574 302.381 400.574 303.401Z" fill="#0C0C0C"/>
<path d="M412.703 303.138C412.703 304.016 413.405 304.718 414.283 304.718C415.16 304.718 415.863 304.005 415.863 303.138C415.863 302.26 415.16 301.558 414.283 301.558C413.405 301.558 412.703 302.26 412.703 303.138Z" fill="#0C0C0C"/>
<path d="M410.933 310.709C410.933 310.709 410 313.418 408.036 313.605C406.072 313.792 404.525 311.608 404.427 309.908L410.933 310.709Z" fill="#FFF7F7"/>
<path d="M410.378 310.555C410.356 310.621 410.323 310.687 410.301 310.752C410.367 310.577 410.268 310.829 410.246 310.884C410.192 310.994 410.148 311.093 410.093 311.202C409.83 311.696 409.544 312.113 409.138 312.486C408.71 312.881 408.14 313.111 407.536 313.024C406.878 312.925 406.308 312.497 405.891 311.992C405.408 311.422 405.057 310.665 405.002 309.908C404.816 310.094 404.618 310.292 404.432 310.478C406.33 310.709 408.239 310.939 410.137 311.18C410.411 311.213 410.674 311.246 410.949 311.279C411.256 311.312 411.519 310.983 411.519 310.709C411.519 310.368 411.256 310.171 410.949 310.138C409.051 309.908 407.142 309.677 405.243 309.436C404.969 309.403 404.706 309.37 404.432 309.337C404.135 309.304 403.839 309.633 403.861 309.908C403.993 311.663 405.167 313.506 406.9 314.055C408.601 314.582 410.06 313.506 410.905 312.113C411.146 311.718 411.355 311.301 411.497 310.862C411.739 310.16 410.619 309.864 410.378 310.555Z" fill="#0C0C0C"/>
<path d="M394.153 310.215C394.153 312.76 396.216 314.812 398.75 314.812C401.284 314.812 403.347 312.749 403.347 310.215C403.347 307.669 401.284 305.618 398.75 305.618C396.216 305.618 394.153 307.669 394.153 310.215Z" fill="#E4B0C8"/>
<path d="M415.786 307.099C416.071 307.099 416.334 307.132 416.598 307.198V311.97C416.598 312.683 416.576 313.375 416.422 314.044C416.225 314.077 415.983 314.099 415.786 314.099C413.855 314.099 412.286 312.53 412.286 310.599C412.275 308.668 413.844 307.099 415.786 307.099Z" fill="#E4B0C8"/>
<path d="M408.85 301.558L408.477 307.856L411.483 306.024L408.85 301.558Z" fill="#DB7294"/>
<path d="M391.1 307.856L392.614 297.883C392.614 297.883 420.208 301.339 429.15 287.943C438.091 274.535 428.7 269.236 424.147 269.993C419.593 270.75 414.283 277.267 414.283 277.267C414.283 277.267 418.518 271.507 414.283 270.597C410.048 269.686 405.374 274.086 402.939 278.628C402.939 278.628 384.748 276.927 378.604 287.932C372.46 298.936 377.441 306.748 388.687 318.114L389.433 311.751L391.1 307.856Z" fill="black"/>
<path d="M378.61 308.064C378.61 311.641 381.539 314.548 385.149 314.548C388.759 314.548 391.688 311.641 391.688 308.064C391.688 304.488 388.759 301.58 385.149 301.58C381.539 301.58 378.61 304.488 378.61 308.064Z" fill="white"/>
<path d="M389.4 308.92C389.433 308.361 389.346 307.768 389.192 307.23C388.885 306.144 388.194 305.157 387.14 304.674C386.296 304.29 385.363 304.202 384.452 304.29C384.079 304.323 383.728 304.586 383.739 305.003C383.75 305.354 384.057 305.749 384.452 305.716C384.847 305.673 385.231 305.662 385.626 305.705C385.648 305.705 385.736 305.705 385.747 305.716C385.725 305.683 385.593 305.694 385.747 305.716C385.824 305.727 385.901 305.749 385.966 305.76C386.12 305.793 386.263 305.848 386.416 305.892C386.603 305.958 386.296 305.826 386.471 305.914C386.526 305.947 386.581 305.969 386.647 306.002C386.691 306.024 386.965 306.232 386.987 306.221C386.965 306.232 386.844 306.1 386.943 306.188C386.965 306.21 386.987 306.221 387.009 306.243C387.053 306.276 387.096 306.32 387.14 306.364C387.217 306.441 387.294 306.572 387.382 306.638C387.272 306.561 387.294 306.517 387.349 306.594C387.36 306.616 387.371 306.627 387.382 306.649C387.415 306.693 387.437 306.737 387.469 306.781C387.535 306.879 387.59 306.978 387.634 307.088C387.656 307.143 387.678 307.187 387.711 307.241C387.755 307.318 387.634 307.055 387.678 307.165C387.689 307.187 387.7 307.209 387.711 307.23C387.755 307.34 387.788 307.439 387.821 307.549C387.875 307.724 387.919 307.911 387.952 308.097C387.963 308.141 387.963 308.174 387.974 308.218C387.996 308.372 387.952 308.009 387.963 308.163C387.974 308.24 387.985 308.317 387.985 308.393C387.996 308.569 388.007 308.734 387.996 308.909C387.974 309.282 388.336 309.633 388.709 309.622C389.093 309.611 389.379 309.326 389.4 308.92Z" fill="#020202"/>
<path d="M402.935 278.628C402.935 278.628 384.755 297.411 377.217 303.127C377.217 303.127 367.42 281.436 372.982 275.38C377.437 270.531 399.204 273.383 402.935 278.628Z" fill="#FFBA7B" stroke="black" stroke-width="1.03132" stroke-miterlimit="10"/>
<path d="M396.924 275.095L374.762 296.95" stroke="black" stroke-width="1.03132" stroke-miterlimit="10"/>
<path d="M407.991 325.332L410.953 336.337L388.516 343.446L387.353 338.849L379.059 333.923L382.493 324.641L392.312 332.277L392.96 332.815C392.96 332.815 393.322 333.418 395.132 332.42C396.953 331.399 407.991 325.332 407.991 325.332Z" fill="#7238B3"/>
<path d="M408.858 324.851L387.452 336.634L387.321 339.432" stroke="black" stroke-width="1.03132" stroke-miterlimit="10"/>
<path d="M381.966 324.609L393.628 333.233" stroke="black" stroke-width="1.03132" stroke-miterlimit="10"/>
<path d="M381.968 337.424C381.968 337.424 366.827 347.463 356.492 343.437" stroke="black" stroke-width="1.03132" stroke-miterlimit="10"/>
<path d="M381.596 339.026C382.529 339.026 383.285 338.27 383.285 337.336C383.285 336.403 382.529 335.647 381.596 335.647C380.663 335.647 379.906 336.403 379.906 337.336C379.906 338.27 380.663 339.026 381.596 339.026Z" stroke="black" stroke-width="1.03132" stroke-miterlimit="10"/>
<path d="M400.938 341.166C400.938 342.131 401.717 342.91 402.683 342.91C403.648 342.91 404.427 342.131 404.427 341.166C404.427 340.2 403.648 339.421 402.683 339.421C401.717 339.432 400.938 340.211 400.938 341.166Z" stroke="black" stroke-width="1.03132" stroke-miterlimit="10"/>
<path d="M402.681 341.166C402.681 341.166 408.858 358.995 419.643 364.173" stroke="black" stroke-width="1.03132" stroke-miterlimit="10"/>
<path d="M510.05 148.816H332.501C326.383 148.816 321.429 143.861 321.429 137.744V11.0719C321.429 4.95429 326.383 0 332.501 0H510.05C516.168 0 521.122 4.95429 521.122 11.0719V137.744C521.122 143.861 516.168 148.816 510.05 148.816Z" fill="#FFBA7B"/>
<path d="M423.653 167.502H406.252C403.136 167.502 401.037 164.313 402.282 161.45L411.661 139.794L419.683 121.262C421.188 117.78 426.126 117.78 427.631 121.262L435.652 139.794L445.032 161.45C446.268 164.305 444.178 167.502 441.062 167.502H423.653Z" fill="#FFBA7B"/>
<path d="M428.96 132.122C428.96 134.945 426.674 137.231 423.851 137.231C421.028 137.231 418.742 134.945 418.742 132.122C418.742 129.3 421.028 127.014 423.851 127.014C426.674 127.014 428.96 129.3 428.96 132.122Z" stroke="black" stroke-width="0.813511" stroke-miterlimit="10"/>
<path d="M507.381 120.872H338.439C335.632 120.872 333.362 118.594 333.362 115.795V16.5145C333.362 13.7079 335.64 11.4382 338.439 11.4382H507.381C510.187 11.4382 512.457 13.716 512.457 16.5145V115.795C512.457 118.602 510.187 120.872 507.381 120.872Z" fill="white" stroke="black" stroke-width="0.813511" stroke-miterlimit="10"/>
<path d="M355.949 107.782H456.41C462.454 107.782 467.351 102.884 467.351 96.8401V26.3819C467.351 20.3375 462.454 15.4401 456.41 15.4401H355.949C349.905 15.4401 345.007 20.3375 345.007 26.3819V96.8482C345.007 102.884 349.905 107.782 355.949 107.782Z" fill="white" stroke="black" stroke-width="0.813511" stroke-miterlimit="10"/>
<path d="M356.944 23.8927C356.944 25.0479 356.017 25.9834 354.878 25.9834C353.739 25.9834 352.812 25.0479 352.812 23.8927C352.812 22.7375 353.739 21.802 354.878 21.802C356.017 21.802 356.944 22.7375 356.944 23.8927Z" fill="#EC6060" stroke="black" stroke-width="0.813511" stroke-miterlimit="10"/>
<path d="M365.179 23.8927C365.179 25.0479 364.251 25.9834 363.112 25.9834C361.973 25.9834 361.046 25.0479 361.046 23.8927C361.046 22.7375 361.973 21.802 363.112 21.802C364.259 21.802 365.179 22.7375 365.179 23.8927Z" fill="#FFBA7B" stroke="black" stroke-width="0.813511" stroke-miterlimit="10"/>
<path d="M373.421 23.8927C373.421 25.0479 372.493 25.9834 371.355 25.9834C370.216 25.9834 369.288 25.0479 369.288 23.8927C369.288 22.7375 370.216 21.802 371.355 21.802C372.493 21.802 373.421 22.7375 373.421 23.8927Z" fill="#7238B3" stroke="black" stroke-width="0.813511" stroke-miterlimit="10"/>
<path d="M345.276 31.2226H467.336" stroke="black" stroke-width="0.813511" stroke-miterlimit="10"/>
<path d="M460.399 69.9213H437.613V84.1252H460.399V69.9213Z" stroke="#E3D7F0" stroke-width="0.813511" stroke-miterlimit="10"/>
<path d="M440.402 73.6555H456.949" stroke="#E3D7F0" stroke-width="0.813511" stroke-miterlimit="10"/>
<path d="M440.402 76.2425H456.949" stroke="#E3D7F0" stroke-width="0.813511" stroke-miterlimit="10"/>
<path d="M440.402 78.8298H456.949" stroke="#E3D7F0" stroke-width="0.813511" stroke-miterlimit="10"/>
<path d="M410.614 55.3266V38.6578C401.405 38.6578 393.945 46.1177 393.945 55.3266C393.945 64.5356 401.405 71.9955 410.614 71.9955C419.823 71.9955 427.283 64.5356 427.283 55.3266C427.283 54.1226 427.144 52.9431 426.9 51.8123L410.614 55.3266Z" fill="#EC6060"/>
<path d="M428.95 48.8917C427.339 41.3749 420.661 35.7372 412.664 35.7372V52.4061L428.95 48.8917Z" fill="#FFA370"/>
<path d="M379.274 39.642H359.294C358.521 39.642 357.887 39.0156 357.887 38.2346C357.887 37.4618 358.513 36.8273 359.294 36.8273H379.274C380.047 36.8273 380.681 37.4537 380.681 38.2346C380.673 39.0156 380.047 39.642 379.274 39.642Z" stroke="#E3D7F0" stroke-width="0.813511" stroke-miterlimit="10"/>
<path d="M359.321 41.7326H378.658" stroke="#E3D7F0" stroke-width="0.813511" stroke-miterlimit="10"/>
<path d="M359.321 44.3191H378.658" stroke="#E3D7F0" stroke-width="0.813511" stroke-miterlimit="10"/>
<path d="M359.321 46.8982H378.658" stroke="#E3D7F0" stroke-width="0.813511" stroke-miterlimit="10"/>
<path d="M382.113 38.6823H389.41L399.929 48.3142" stroke="#E3D7F0" stroke-width="0.813511" stroke-miterlimit="10"/>
<path d="M458.981 41.2698H439.001C438.228 41.2698 437.594 40.6434 437.594 39.8624C437.594 39.0896 438.22 38.455 439.001 38.455H458.981C459.754 38.455 460.388 39.0815 460.388 39.8624C460.388 40.6434 459.762 41.2698 458.981 41.2698Z" stroke="#E3D7F0" stroke-width="0.813511" stroke-miterlimit="10"/>
<path d="M439.051 43.36H458.388" stroke="#E3D7F0" stroke-width="0.813511" stroke-miterlimit="10"/>
<path d="M439.051 45.9471H458.388" stroke="#E3D7F0" stroke-width="0.813511" stroke-miterlimit="10"/>
<path d="M439.051 48.5259H458.388" stroke="#E3D7F0" stroke-width="0.813511" stroke-miterlimit="10"/>
<path d="M439.051 51.2107H458.388" stroke="#E3D7F0" stroke-width="0.813511" stroke-miterlimit="10"/>
<path d="M439.051 53.7975H458.388" stroke="#E3D7F0" stroke-width="0.813511" stroke-miterlimit="10"/>
<path d="M439.051 56.3845H458.388" stroke="#E3D7F0" stroke-width="0.813511" stroke-miterlimit="10"/>
<path d="M422.789 46.4107L429.842 40.6266H436.106" stroke="#E3D7F0" stroke-width="0.813511" stroke-miterlimit="10"/>
<path d="M360.78 61.9568V94.7087H410.347" stroke="#E3D7F0" stroke-width="0.813511" stroke-miterlimit="10"/>
<path d="M360.781 62.1355H359.007L359.894 60.6061L360.781 59.0767L361.659 60.6061L362.546 62.1355H360.781Z" fill="#E3D7F0"/>
<path d="M409.819 94.7083V92.9429L411.357 93.8215L412.886 94.7083L411.357 95.595L409.819 96.4817V94.7083Z" fill="#E3D7F0"/>
<path d="M356.676 92L368.732 81.1396L378.648 91.8048L391.16 68.8963L400.304 91.2516" stroke="#FFBA7B" stroke-width="0.813511" stroke-miterlimit="10"/>
<path d="M352.554 75.8434C352.554 75.8434 352.994 75.3878 353.726 74.7207" stroke="#EC6060" stroke-width="0.813511" stroke-miterlimit="10"/>
<path d="M356.148 72.7197C359.353 70.3117 363.982 67.8305 366.927 70.6696C371.8 75.3636 370.645 78.9756 380.431 76.8686C389.632 74.8917 400.924 77.6251 404.243 93.3259" stroke="#EC6060" stroke-width="0.813511" stroke-miterlimit="10" stroke-dasharray="3.14 3.14"/>
<path d="M404.527 94.8719C404.616 95.3925 404.698 95.9294 404.771 96.4826" stroke="#EC6060" stroke-width="0.813511" stroke-miterlimit="10"/>
<path d="M506.746 57.3697C506.746 57.3697 536.837 69.1331 552.782 120.01L532.404 130.122L517.321 91.6104L506.746 57.3697Z" fill="#7238B3" stroke="black" stroke-width="0.813511" stroke-miterlimit="10"/>
<path d="M417.033 67.4411C417.033 67.4411 411.908 64.1464 412.542 62.5763C413.177 61.0062 414.666 61.8848 414.666 61.8848C414.666 61.8848 413.136 60.9493 413.844 59.908C414.552 58.8748 415.512 59.2572 415.512 59.2572C415.512 59.2572 414.43 57.6708 415.471 57.0769C416.512 56.4912 418.082 56.8654 418.082 56.8654C418.082 56.8654 417.48 55.5475 417.513 55.0757C417.545 54.612 418.221 53.5788 420.401 54.0914C422.589 54.5957 427.259 57.199 428.837 58.0044C430.415 58.8097 432.189 60.6645 432.246 60.0625C432.294 59.4605 432.97 55.6208 434.466 54.4981C435.955 53.3755 436.549 53.1965 436.818 55.3279C437.086 57.4593 437.013 63.3979 439.901 67.7746C442.789 72.1513 443.773 75.0637 446.824 78.6106C449.874 82.1575 451.274 83.9472 451.274 83.9472L437.525 95.1411C437.525 95.1411 424.184 75.0637 424.086 74.9254C423.988 74.7952 419.661 69.483 417.033 67.4411Z" fill="white"/>
<path d="M414.213 61.7795C414.213 61.7795 412.504 58.9972 415.701 59.3389C418.898 59.6806 423.234 62.6336 425.317 64.2037" stroke="black" stroke-width="0.813511" stroke-miterlimit="10"/>
<path d="M428.802 70.5003C428.802 70.5003 427.63 66.9289 432.731 65.4484C432.731 65.4484 430.787 57.8664 434.464 54.4985C438.141 51.1306 436.139 59.8026 438.596 65.0823C441.053 70.362 443.843 75.4545 446.463 78.2368C449.082 81.019 451.344 84.0452 451.344 84.0452L437.441 95.2066C437.441 95.2066 432.69 87.9826 425.36 76.7806C418.031 65.5785 411.563 65.3263 412.548 62.5767C413.76 59.1924 422.399 67.1649 422.399 67.1649" stroke="black" stroke-width="0.813511" stroke-miterlimit="10"/>
<path d="M415.699 59.3387C415.699 59.3387 414.056 57.313 416.146 56.7843C416.496 56.6948 416.927 56.6866 417.424 56.7517C419.937 57.0771 424.119 59.1922 427.169 61.5514" stroke="black" stroke-width="0.813511" stroke-miterlimit="10"/>
<path d="M432.273 60.6402C432.273 60.6402 426.285 55.0514 419.46 54.1321C416.987 53.7986 417.092 56.2635 419.517 57.2886" stroke="black" stroke-width="0.813511" stroke-miterlimit="10"/>
<path d="M461.289 90.9759C459.353 89.6743 457.376 87.974 455.48 86.1355C449.33 80.1562 444.075 72.7044 444.075 72.7044L428.96 85.6555C428.96 85.6555 445.45 111.249 455.35 114.446C465.251 117.643 487.891 91.9033 487.891 91.9033L489.672 58.0368C489.672 58.0368 485.418 60.3228 482.001 63.406C476.396 68.466 466.593 77.5204 455.488 86.1355" fill="#7238B3"/>
<path d="M461.289 90.9759C459.353 89.6743 457.376 87.974 455.48 86.1355C449.33 80.1562 444.075 72.7044 444.075 72.7044L428.96 85.6555C428.96 85.6555 445.45 111.249 455.35 114.446C465.251 117.643 487.891 91.9033 487.891 91.9033L489.672 58.0368C489.672 58.0368 485.418 60.3228 482.001 63.406C476.396 68.466 466.593 77.5204 455.488 86.1355" stroke="black" stroke-width="0.813511" stroke-miterlimit="10"/>
<path d="M449.005 79.066C446.052 75.5191 444.075 72.7125 444.075 72.7125L428.96 85.6636C428.96 85.6636 430.88 88.6411 433.792 92.6842L449.005 79.066Z" fill="white" stroke="black" stroke-width="0.813511" stroke-miterlimit="10"/>
<path d="M445.298 77.6178C445.298 78.1873 444.835 78.6429 444.273 78.6429C443.704 78.6429 443.248 78.1792 443.248 77.6178C443.248 77.0565 443.712 76.5928 444.273 76.5928C444.835 76.5928 445.298 77.0484 445.298 77.6178Z" fill="white" stroke="black" stroke-width="0.813511" stroke-miterlimit="10"/>
<path d="M530.72 122.288C530.72 122.003 530.72 116.235 530.72 115.959C530.72 82.6049 516.532 55.5638 499.025 55.5638C481.519 55.5638 467.331 82.6049 467.331 115.959C467.331 116.244 467.331 122.011 467.331 122.288H530.72Z" fill="#7238B3"/>
<path d="M498.928 70.7031V122.288" stroke="black" stroke-width="0.813511" stroke-miterlimit="10"/>
<path d="M499.023 71.2399L511.242 60.2169C507.483 57.2231 503.351 55.5554 499.023 55.5554C494.833 55.5554 490.457 57.4021 486.796 60.2087L499.023 71.2399Z" fill="white" stroke="black" stroke-width="0.813511" stroke-miterlimit="10"/>
<path d="M471.887 84.7525C468.999 93.8557 467.331 104.537 467.331 115.959C467.331 116.244 467.331 122.011 467.331 122.288H530.72C530.72 122.003 530.72 116.235 530.72 115.959C530.72 104.277 528.979 93.3676 525.961 84.1261" stroke="black" stroke-width="0.813511" stroke-miterlimit="10"/>
<path d="M511.252 60.2169C507.493 57.2151 503.361 55.5636 499.033 55.5636C494.713 55.5636 490.605 57.2069 486.847 60.1844" stroke="black" stroke-width="0.813511" stroke-miterlimit="10"/>
<path d="M507.381 120.872H338.439C335.632 120.872 333.362 118.594 333.362 115.795V16.5145C333.362 13.7079 335.64 11.4382 338.439 11.4382H507.381C510.187 11.4382 512.457 13.716 512.457 16.5145V115.795C512.457 118.602 510.187 120.872 507.381 120.872Z" stroke="black" stroke-width="0.813511" stroke-miterlimit="10"/>
<path d="M511.616 63.4869L504.872 53.3586C503.554 51.3737 501.073 50.6415 498.934 51.4306C496.794 50.6334 494.313 51.3737 492.995 53.3586L486.251 63.4869C484.713 65.7972 485.34 68.9211 487.65 70.4668L488.618 71.1095C490.929 72.647 494.053 72.0206 495.598 69.7102L498.942 64.6909L502.285 69.7102C503.823 72.0206 506.947 72.647 509.265 71.1095L510.233 70.4668C512.527 68.9211 513.154 65.7972 511.616 63.4869Z" fill="#FEFEFF" stroke="black" stroke-width="0.813511" stroke-miterlimit="10"/>
<path d="M500.009 62.2909C500.009 62.8278 499.57 63.2671 499.033 63.2671C498.496 63.2671 498.057 62.8278 498.057 62.2909C498.057 61.754 498.496 61.3147 499.033 61.3147C499.57 61.3147 500.009 61.754 500.009 62.2909Z" fill="#FEFEFF" stroke="black" stroke-width="0.813511" stroke-miterlimit="10"/>
<path d="M512.33 38.3571C512.33 41.2369 509.979 43.5717 507.075 43.5717C504.17 43.5717 501.819 41.2369 501.819 38.3571C501.819 35.4772 504.17 33.1425 507.075 33.1425C509.979 33.1425 512.33 35.4772 512.33 38.3571Z" stroke="black" stroke-width="1.62702" stroke-miterlimit="10"/>
<path d="M489.421 22.1762H496.027C500.42 22.1762 504.008 26.2681 504.008 31.2631V41.4971C504.008 41.7818 503.991 42.0665 503.967 42.3513C504.04 42.6523 504.081 42.9695 504.081 43.2868V49.5183V49.8681V56.0996C504.081 58.3612 502.234 60.2078 499.973 60.2078H497.353C495.092 60.2078 493.245 58.3612 493.245 56.0996V50.584H489.43C485.037 50.584 481.449 46.492 481.449 41.4971V31.2631C481.441 26.2681 485.028 22.1762 489.421 22.1762Z" fill="white" stroke="black" stroke-width="0.813511" stroke-miterlimit="10"/>
<path d="M502.273 38.1944L501.052 30.1732C501.052 30.1732 478.868 32.9554 471.676 22.1764C464.485 11.3973 472.042 7.13452 475.695 7.74466C479.348 8.35479 483.627 13.5938 483.627 13.5938C483.627 13.5938 480.226 8.96493 483.627 8.23277C487.027 7.5006 490.794 11.0394 492.746 14.692C492.746 14.692 507.365 13.3253 512.311 22.1764C517.257 31.0274 513.247 37.2995 504.209 46.4434L503.607 41.3264L502.273 38.1944Z" fill="black"/>
<path d="M527.721 12.4631C527.721 17.6533 523.515 21.8591 518.325 21.8591C513.135 21.8591 508.929 17.6533 508.929 12.4631C508.929 7.27287 513.135 3.06702 518.325 3.06702C523.515 3.07515 527.721 7.28101 527.721 12.4631Z" fill="black"/>
<path d="M500.276 39.7644C500.276 41.8551 498.576 43.5553 496.485 43.5553C494.395 43.5553 492.694 41.8551 492.694 39.7644C492.694 37.6737 494.395 35.9734 496.485 35.9734C498.584 35.9734 500.276 37.6737 500.276 39.7644Z" fill="#E4B0C8"/>
<path d="M482.453 36.738C482.225 36.738 481.997 36.7706 481.786 36.8194V40.7487C481.786 41.3344 481.721 41.912 481.843 42.4652C481.997 42.4896 482.29 42.5058 482.453 42.5058C484.047 42.5058 485.341 41.2123 485.341 39.6179C485.341 38.0234 484.047 36.738 482.453 36.738Z" fill="#E4B0C8"/>
<path d="M493.435 34.4683C493.435 35.2167 492.833 35.8187 492.084 35.8187C491.336 35.8187 490.734 35.2167 490.734 34.4683C490.734 33.7199 491.336 33.1179 492.084 33.1179C492.833 33.126 493.435 33.728 493.435 34.4683Z" fill="#141414"/>
<path d="M484.61 34.2733C484.61 34.9078 484.097 35.4203 483.455 35.4203C482.82 35.4203 482.308 34.9078 482.308 34.2733C482.308 33.6387 482.82 33.1262 483.455 33.1262C484.097 33.1262 484.61 33.6387 484.61 34.2733Z" fill="#141414"/>
<path d="M485.892 39.7886C485.892 39.7886 486.567 41.7654 487.999 41.8956C489.431 42.0339 490.553 40.4476 490.635 39.2029L485.892 39.7886Z" fill="#F7F6F6"/>
<path d="M485.45 39.9107C485.71 40.6673 486.174 41.4076 486.817 41.8876C487.931 42.7336 489.387 42.3269 490.225 41.2937C490.713 40.6999 491.031 39.9758 491.088 39.2111C491.104 38.9833 490.868 38.7312 490.632 38.7556C489.249 38.9264 487.866 39.0972 486.475 39.2681C486.28 39.2925 486.085 39.3169 485.889 39.3413C485.645 39.3738 485.434 39.5284 485.434 39.7969C485.434 40.0165 485.645 40.285 485.889 40.2524C487.272 40.0816 488.655 39.9107 490.046 39.7399C490.242 39.7155 490.437 39.6911 490.632 39.6667C490.478 39.5121 490.331 39.3657 490.177 39.2111C490.111 40.0979 489.444 41.1717 488.517 41.4076C487.638 41.6354 487.004 40.9602 486.605 40.2524C486.516 40.0979 486.443 39.9352 486.369 39.7725C486.337 39.6992 486.402 39.8701 486.377 39.7806C486.369 39.7643 486.361 39.7399 486.353 39.7236C486.345 39.7074 486.337 39.683 486.329 39.6667C486.142 39.1216 485.263 39.3576 485.45 39.9107Z" fill="#141414"/>
<path d="M498.916 33.6794C498.916 36.5837 496.809 38.9429 494.206 38.9429C491.603 38.9429 489.496 36.5837 489.496 33.6794C489.496 30.7752 491.603 28.416 494.206 28.416C496.809 28.416 498.916 30.7752 498.916 33.6794Z" stroke="#7238B3" stroke-width="0.813511" stroke-miterlimit="10"/>
<path d="M482.473 37.7227C484.612 37.7227 486.345 35.6175 486.345 33.0206C486.345 30.4237 484.612 28.3185 482.473 28.3185C480.334 28.3185 478.601 30.4237 478.601 33.0206C478.601 35.6175 480.334 37.7227 482.473 37.7227Z" stroke="#7238B3" stroke-width="0.813511" stroke-miterlimit="10"/>
<path d="M487.86 33.1424V37.7143L485.469 36.2581L487.86 33.1424Z" fill="#D96980"/>
<path d="M486.229 34.4276C486.229 34.4276 488.125 33.6304 489.499 34.7693" stroke="#7238B3" stroke-width="0.813511" stroke-miterlimit="10"/>
<path d="M512.318 38.3569C512.318 41.2367 509.967 43.5715 507.063 43.5715C504.159 43.5715 501.808 41.2367 501.808 38.3569C501.808 35.4771 504.159 33.1423 507.063 33.1423C509.967 33.1423 512.318 35.4771 512.318 38.3569Z" fill="white"/>
<path d="M504.777 39.048C504.768 38.9342 504.777 38.8203 504.777 38.7064C504.777 38.6576 504.785 38.6006 504.785 38.5518C504.785 38.5193 504.793 38.4949 504.793 38.4623C504.809 38.3077 504.769 38.6006 504.793 38.4786C504.817 38.3322 504.842 38.1857 504.882 38.0474C504.899 37.9742 504.923 37.901 504.947 37.8278C504.964 37.7871 504.972 37.7464 504.988 37.7058C504.996 37.6895 505.004 37.6651 505.013 37.6488C505.045 37.5593 505.013 37.6651 504.996 37.6895C505.094 37.5349 505.159 37.3559 505.265 37.2014C505.273 37.1851 505.289 37.177 505.297 37.1607C505.346 37.0956 505.354 37.1363 505.273 37.1932C505.305 37.177 505.33 37.12 505.362 37.0875C505.427 37.0143 505.501 36.9411 505.574 36.876C505.59 36.8597 505.606 36.8516 505.615 36.8434C505.663 36.7946 505.696 36.819 505.59 36.8597C505.631 36.8434 505.672 36.8028 505.712 36.7783C505.802 36.7214 505.899 36.6645 506.005 36.6156C506.021 36.6075 506.119 36.5668 506.021 36.6075C505.924 36.6482 506.054 36.5912 506.078 36.5912C506.143 36.5668 506.208 36.5506 506.274 36.5262C506.339 36.5099 506.412 36.4936 506.477 36.4773C506.501 36.4692 506.526 36.4692 506.55 36.4611C506.574 36.4529 506.599 36.4529 506.623 36.4448C506.688 36.4367 506.672 36.4367 506.591 36.4448C506.648 36.4123 506.762 36.4285 506.827 36.4204C506.908 36.4123 506.998 36.4123 507.079 36.4123C507.266 36.4123 507.445 36.4204 507.632 36.4448C507.925 36.4773 508.202 36.1682 508.193 35.8835C508.177 35.5581 507.949 35.3547 507.632 35.3222C506.501 35.2083 505.265 35.4523 504.508 36.3716C503.996 36.998 503.752 37.7708 503.678 38.5681C503.662 38.7226 503.654 38.8772 503.662 39.0318C503.678 39.3246 503.906 39.6094 504.223 39.5931C504.508 39.5931 504.801 39.3572 504.777 39.048Z" fill="#090909"/>
<path d="M432.224 218.379H402.566C398.775 218.379 395.704 221.45 395.704 225.241V237.346V241.58V254.848L402.681 248.442H432.224C436.015 248.442 439.086 245.371 439.086 241.58V225.241C439.086 221.45 436.015 218.379 432.224 218.379Z" fill="white" stroke="black" stroke-width="0.642518" stroke-miterlimit="10"/>
<path d="M410.612 233.954C410.612 235.598 409.276 236.935 407.631 236.935C405.986 236.935 404.65 235.598 404.65 233.954C404.65 232.309 405.986 230.972 407.631 230.972C409.276 230.972 410.612 232.309 410.612 233.954Z" fill="white" stroke="black" stroke-width="0.642518" stroke-miterlimit="10"/>
<path d="M420.988 233.954C420.988 235.598 419.652 236.935 418.007 236.935C416.362 236.935 415.025 235.598 415.025 233.954C415.025 232.309 416.362 230.972 418.007 230.972C419.652 230.972 420.988 232.309 420.988 233.954Z" fill="white" stroke="black" stroke-width="0.642518" stroke-miterlimit="10"/>
<path d="M431.367 233.954C431.367 235.598 430.03 236.935 428.385 236.935C426.741 236.935 425.404 235.598 425.404 233.954C425.404 232.309 426.741 230.972 428.385 230.972C430.03 230.972 431.367 232.309 431.367 233.954Z" fill="white" stroke="black" stroke-width="0.642518" stroke-miterlimit="10"/>
<path d="M440.771 208.613H411.112C407.321 208.613 404.25 211.684 404.25 215.475V227.58V231.814V245.082L411.228 238.676H440.771C444.562 238.676 447.633 235.605 447.633 231.814V215.475C447.633 211.684 444.562 208.613 440.771 208.613Z" fill="white" stroke="black" stroke-width="0.642518" stroke-miterlimit="10"/>
<path d="M419.158 224.187C419.158 225.832 417.821 227.169 416.177 227.169C414.532 227.169 413.195 225.832 413.195 224.187C413.195 222.543 414.532 221.206 416.177 221.206C417.821 221.206 419.158 222.543 419.158 224.187Z" fill="white" stroke="black" stroke-width="0.642518" stroke-miterlimit="10"/>
<path d="M429.532 224.187C429.532 225.832 428.196 227.169 426.551 227.169C424.906 227.169 423.57 225.832 423.57 224.187C423.57 222.543 424.906 221.206 426.551 221.206C428.196 221.206 429.532 222.543 429.532 224.187Z" fill="white" stroke="black" stroke-width="0.642518" stroke-miterlimit="10"/>
<path d="M439.911 224.187C439.911 225.832 438.575 227.169 436.93 227.169C435.285 227.169 433.949 225.832 433.949 224.187C433.949 222.543 435.285 221.206 436.93 221.206C438.575 221.206 439.911 222.543 439.911 224.187Z" fill="white" stroke="black" stroke-width="0.642518" stroke-miterlimit="10"/>
<path d="M188.826 82.3787H152.749C148.14 82.3787 144.403 86.1152 144.403 90.7245V105.459V110.61V126.751L152.893 118.956H188.835C193.444 118.956 197.181 115.22 197.181 110.61V90.7245C197.172 86.1152 193.436 82.3787 188.826 82.3787Z" fill="white" stroke="black" stroke-width="0.847287" stroke-miterlimit="10"/>
<path d="M162.523 101.324C162.523 103.332 160.896 104.95 158.896 104.95C156.888 104.95 155.27 103.323 155.27 101.324C155.27 99.3243 156.897 97.6975 158.896 97.6975C160.896 97.6975 162.523 99.3243 162.523 101.324Z" fill="white" stroke="black" stroke-width="0.847287" stroke-miterlimit="10"/>
<path d="M175.144 101.324C175.144 103.332 173.517 104.95 171.518 104.95C169.509 104.95 167.891 103.323 167.891 101.324C167.891 99.3243 169.518 97.6975 171.518 97.6975C173.517 97.6975 175.144 99.3243 175.144 101.324Z" fill="white" stroke="black" stroke-width="0.847287" stroke-miterlimit="10"/>
<path d="M187.773 101.324C187.773 103.332 186.146 104.95 184.146 104.95C182.138 104.95 180.52 103.323 180.52 101.324C180.52 99.3243 182.147 97.6975 184.146 97.6975C186.146 97.6975 187.773 99.3243 187.773 101.324Z" fill="white" stroke="black" stroke-width="0.847287" stroke-miterlimit="10"/>
<path d="M67.9806 292.972C66.8012 286.406 63.0927 282.102 58.9465 279.391C51.9187 274.807 42.5928 274.807 35.5771 279.391C31.4309 282.102 27.7224 286.406 26.543 292.972C24.3787 305.107 35.0542 311.624 37.0604 314.068C37.0604 314.068 38.4101 315.187 39.0667 316.512C39.2247 316.84 39.4071 317.886 39.6017 319.284H47.274H54.9462C55.1529 317.886 55.3232 316.84 55.4812 316.512C56.1257 315.187 57.4875 314.068 57.4875 314.068C59.4694 311.624 70.1449 305.107 67.9806 292.972Z" fill="#EEDA36" stroke="black" stroke-width="1.21589" stroke-miterlimit="10"/>
<path d="M44.0397 320.585C44.0397 320.585 44.0397 309.083 43.2007 307.442C42.3617 305.8 38.483 300.049 37.8265 298.845C37.1699 297.629 38.5195 296.231 39.553 298.018C40.4406 299.55 44.1977 304.791 45.0367 306.943C45.8757 309.083 46.5931 321.169 46.5931 321.169L44.0397 320.585Z" fill="white"/>
<path d="M50.4098 320.585C50.4098 320.585 50.4098 309.083 51.2488 307.442C52.0878 305.8 55.9665 300.049 56.623 298.845C57.2796 297.629 55.93 296.231 54.8965 298.018C54.0089 299.55 50.2518 304.791 49.4128 306.943C48.5738 309.083 47.8564 321.169 47.8564 321.169L50.4098 320.585Z" fill="white"/>
<path d="M55.9818 298.456C54.4255 299.185 51.7748 299.271 49.8173 298.675C49.8051 298.687 49.7808 298.699 49.7686 298.711C48.1515 299.903 45.9021 299.453 44.2485 298.237C42.1936 299.04 39.3606 299.137 38.935 299.149L38.9229 298.055C40.1631 298.03 41.9383 297.824 43.3244 297.41C42.1814 296.17 41.9383 294.833 42.7043 293.921C43.6648 292.766 44.8807 292.839 45.6467 293.422C46.5708 294.127 47.0085 295.623 46.1453 296.912C45.9507 297.204 45.6832 297.447 45.3671 297.666C46.4006 298.274 47.6286 298.541 48.6135 298.164C48.2731 297.97 47.9813 297.726 47.7746 297.459C47.4463 297.033 47.0085 296.158 47.8475 294.991C48.419 294.2 49.1607 293.836 49.8902 293.994C50.5954 294.14 51.1426 294.76 51.2885 295.562C51.4344 296.316 51.2155 297.094 50.6927 297.787C52.2855 298.14 54.3282 298.079 55.5928 297.495L55.9818 298.456ZM49.0877 295.222C48.954 295.319 48.8324 295.453 48.7108 295.623C48.2852 296.219 48.4433 296.547 48.6135 296.778C48.8324 297.046 49.185 297.277 49.6227 297.471C50.1334 296.948 50.3644 296.352 50.255 295.805C50.182 295.428 49.9389 295.124 49.647 295.064C49.4768 295.027 49.2823 295.076 49.0877 295.222ZM44.443 296.985C44.8078 296.79 45.0874 296.571 45.2577 296.328C45.7562 295.574 45.513 294.723 44.9902 294.322C44.5281 293.981 44.0053 294.091 43.5432 294.638C43.0812 295.185 43.5919 296.097 44.1634 296.717C44.2485 296.802 44.3457 296.9 44.443 296.985Z" fill="white"/>
<path d="M47.2244 318.056C43.0539 318.056 39.4913 316.962 38.8955 316.634C38.9441 316.719 38.9928 316.792 39.0293 316.877C39.5886 318.02 40.2816 327.564 41.7893 331.249C42.0568 331.905 42.3486 332.367 42.6648 332.574C43.5281 333.133 45.3154 333.729 47.2244 333.632C49.1333 333.717 50.9207 333.133 51.784 332.574C52.1001 332.367 52.3919 331.905 52.6594 331.249C54.155 327.564 54.8602 318.032 55.4195 316.877C55.456 316.792 55.5168 316.707 55.5533 316.634C54.9575 316.962 51.3949 318.056 47.2244 318.056Z" fill="white" stroke="black" stroke-width="1.21589" stroke-miterlimit="10"/>
<path d="M47.2228 322.372C49.6303 322.336 52.2566 322.044 54.6398 321.29C54.7979 320.159 54.9438 319.138 55.0654 318.36C50.0072 320.281 44.4141 320.281 39.3682 318.36C39.5019 319.138 39.6357 320.159 39.7937 321.29C42.189 322.032 44.8154 322.324 47.2228 322.372Z" fill="black"/>
<path d="M47.2233 327.236C49.3755 327.199 51.6978 326.956 53.8743 326.373C54.0445 325.424 54.1904 324.439 54.3363 323.479C49.7281 325.047 44.7186 325.047 40.1104 323.479C40.2563 324.439 40.4022 325.424 40.5724 326.373C42.7488 326.956 45.0712 327.199 47.2233 327.236Z" fill="black"/>
<path d="M41.04 328.659C41.2711 329.668 41.5264 330.568 41.8061 331.249C41.8547 331.358 41.9033 331.455 41.9398 331.565C43.7028 331.917 45.5267 332.075 47.2411 332.112C48.9555 332.088 50.7672 331.917 52.5302 331.565C52.5789 331.467 52.6275 331.37 52.6761 331.249C52.9558 330.556 53.2111 329.668 53.4422 328.659C49.3811 329.826 45.0768 329.826 41.04 328.659Z" fill="black"/>
<path d="M47.6527 269.822H47.604C46.3881 269.822 45.3911 268.837 45.3911 267.609V257.237C45.3911 256.021 46.376 255.024 47.604 255.024H47.6527C48.8686 255.024 49.8656 256.009 49.8656 257.237V267.609C49.8534 268.837 48.8686 269.822 47.6527 269.822Z" fill="white" stroke="black" stroke-width="1.21589" stroke-miterlimit="10"/>
<path d="M63.5567 272.691L63.5202 272.667C62.4381 272.095 62.0368 270.746 62.6204 269.676L67.5205 260.532C68.092 259.462 69.4416 259.049 70.5116 259.632L70.5481 259.657C71.6181 260.228 72.0315 261.578 71.4478 262.648L66.5478 271.791C65.9763 272.874 64.6267 273.275 63.5567 272.691Z" fill="white" stroke="black" stroke-width="1.21589" stroke-miterlimit="10"/>
<path d="M31.6998 272.691L31.7363 272.667C32.8185 272.095 33.2197 270.746 32.6361 269.676L27.736 260.532C27.1646 259.462 25.8149 259.049 24.7449 259.632L24.7084 259.657C23.6385 260.228 23.2251 261.578 23.8087 262.648L28.7087 271.791C29.2802 272.874 30.6177 273.275 31.6998 272.691Z" fill="white" stroke="black" stroke-width="1.21589" stroke-miterlimit="10"/>
<path d="M19.9106 284.862L19.8984 284.911C19.6431 286.102 18.4758 286.868 17.2842 286.625L7.13151 284.497C5.93993 284.242 5.17392 283.075 5.4171 281.883L5.42926 281.835C5.68459 280.643 6.85185 279.877 8.04343 280.12L18.1961 282.248C19.3877 282.491 20.1537 283.671 19.9106 284.862Z" fill="white" stroke="black" stroke-width="1.21589" stroke-miterlimit="10"/>
<path d="M19.3583 301.435L19.3461 301.386C19.0057 300.219 17.7776 299.538 16.5982 299.891L6.65217 302.809C5.48491 303.149 4.80401 304.377 5.15662 305.557L5.16878 305.605C5.50923 306.773 6.73728 307.453 7.9167 307.101L17.8627 304.183C19.03 303.842 19.6987 302.614 19.3583 301.435Z" fill="white" stroke="black" stroke-width="1.21589" stroke-miterlimit="10"/>
<path d="M75.3425 284.862L75.3547 284.911C75.61 286.102 76.7773 286.868 77.9689 286.625L88.1216 284.497C89.3132 284.242 90.0792 283.075 89.836 281.883L89.8238 281.835C89.5685 280.643 88.4012 279.877 87.2097 280.12L77.057 282.248C75.8532 282.491 75.0872 283.671 75.3425 284.862Z" fill="white" stroke="black" stroke-width="1.21589" stroke-miterlimit="10"/>
<path d="M75.8826 301.435L75.8948 301.386C76.2352 300.219 77.4633 299.538 78.6427 299.891L88.5887 302.809C89.756 303.149 90.4369 304.377 90.0843 305.557V305.593C89.7438 306.76 88.5158 307.441 87.3364 307.089L77.3903 304.171C76.2109 303.842 75.5422 302.614 75.8826 301.435Z" fill="white" stroke="black" stroke-width="1.21589" stroke-miterlimit="10"/>
</svg>
