<svg width="227" height="41" viewBox="0 0 227 41" fill="none" xmlns="http://www.w3.org/2000/svg">
<g filter="url(#filter0_d_704_818)">
<path d="M9.53576 8.43017C9.5088 7.81516 9.65092 7.20436 9.94725 6.66177C10.2469 6.11144 10.681 5.64257 11.2105 5.29712C11.7414 4.95129 12.3329 4.70489 12.9552 4.57038C13.2652 4.5004 13.5802 4.4545 13.8975 4.4331C14.2185 4.41292 14.5148 4.41494 14.8337 4.40686L18.5371 4.32813L22.2405 4.26555L21.9668 4.39879L23.5469 2.33162L25.1106 0.26849L25.446 0.936685L19.6954 1.0033L13.949 1.04771C13.0297 1.06694 12.1154 1.1861 11.2229 1.40301C10.3412 1.6142 9.49371 1.94438 8.70455 2.38411C7.93099 2.81983 7.24379 3.38878 6.67592 4.06368C6.11523 4.73303 5.69562 5.50499 5.44145 6.33474C5.1961 7.17419 5.11374 8.05141 5.19867 8.92071C5.27729 9.78447 5.53345 10.6236 5.9517 11.3876C6.36853 12.1621 6.92638 12.8552 7.59765 13.4325C8.27704 14.0141 9.04568 14.487 9.87524 14.8335C10.7107 15.1938 11.5905 15.4456 12.4923 15.5825C12.9456 15.6489 13.4024 15.69 13.8605 15.7056H14.2062H14.5662H15.2843C17.2018 15.7218 19.1193 15.7258 21.0451 15.7541L21.8928 15.7662L21.4483 16.4586L19.0206 20.2255L17.8128 22.105L16.5969 23.9804L16.0229 23.5907L18.3642 20.7302L20.7118 17.8778L23.0696 15.0334C23.8556 14.0846 24.6518 13.1439 25.4439 12.2072H25.4316V12.1931V12.2072H25.4439C24.7114 13.1964 23.9872 14.1896 23.2486 15.1747L21.0369 18.1241L18.8148 21.0714L16.5825 24.0106L16.0085 23.621L17.1689 21.7073L18.3251 19.7976L20.6336 15.9862L21.0451 16.6928C19.1276 16.721 17.21 16.7251 15.2843 16.7412H14.5662H14.2062C14.0806 16.7412 13.9572 16.7412 13.8317 16.7412C13.3313 16.7327 12.8318 16.6949 12.3359 16.6282C11.336 16.4978 10.3591 16.2328 9.43289 15.8409C8.4925 15.4534 7.62037 14.9227 6.84874 14.2683C6.0713 13.6053 5.42419 12.8082 4.93944 11.9165C4.44577 11.021 4.1407 10.0372 4.04239 9.02367C3.936 8.01218 4.03033 6.99005 4.32015 6.01376C4.469 5.52324 4.67038 5.04956 4.92092 4.60066C5.16858 4.15573 5.45933 3.73524 5.78916 3.34502C6.4494 2.57192 7.24597 1.92164 8.14082 1.42521C9.91844 0.429987 11.9471 0.0121123 13.9284 0L19.6892 0.0383557L25.4398 0.104973H26.3039L25.7772 0.763075L24.1642 2.79592L22.5388 4.81464L22.4277 4.95192H22.2631L18.5597 4.88934L14.8563 4.81262C14.5477 4.81262 14.2391 4.79446 13.9366 4.79849C13.6359 4.80453 13.336 4.83287 13.0396 4.88328C12.4443 4.98272 11.8726 5.18796 11.3525 5.48889C10.8302 5.7952 10.3901 6.21946 10.0686 6.72637C9.73827 7.23703 9.5542 7.82558 9.53576 8.43017Z" fill="url(#paint0_linear_704_818)"/>
<path d="M30.8243 8.99994C29.2133 11.1842 26.6868 14.5615 25.0305 16.7498H24.8968L25.0902 16.6569L21.9505 20.7993L21.681 20.2704L23.5759 20.2442L23.2673 20.4158L23.3681 20.2482H23.5739L29.1927 20.1816H29.6186C29.6454 23.6478 29.6865 28.7874 29.6886 32.2253L29.1927 31.7368L34.145 31.7246L33.6347 32.2253C33.6347 28.9206 33.6512 23.8698 33.6738 20.6055V20.1412H34.1409L39.8564 20.1836L39.519 20.3472L42.7739 16.3097L43.0619 16.883C41.6505 16.8689 40.2391 16.8406 38.8277 16.8205C34.8836 16.7538 30.0383 16.6529 26.1189 16.5257C27.5303 16.4833 28.9438 16.4389 30.3552 16.4066C34.5688 16.3117 39.6137 16.2047 43.7964 16.1624L43.352 16.7437L40.1959 20.866L40.0725 21.0275H39.8564L34.1409 21.0699L34.61 20.6076L34.6285 23.5125C34.6408 25.6584 34.6408 30.5376 34.6491 32.7279C33.9681 32.7279 29.3738 32.7158 28.6825 32.7138C28.6825 32.5019 28.6825 29.6252 28.6825 29.3224C28.6825 27.4914 28.7277 22.5052 28.7421 20.6076L29.1722 21.0295L23.5841 20.9548L23.8928 20.7852L23.7817 20.9588L21 20.9205C21.0802 20.8478 24.4874 16.6166 24.7034 16.3683L24.7816 16.2714H24.905L24.7116 16.3662C26.4419 14.293 29.0878 11.0388 30.8243 8.99994Z" fill="white"/>
</g>
<path d="M70.3966 12.1281L67.1544 16.2357H58.9822C53.3348 16.2357 49.1727 12.7245 49.1727 8.08405C49.1727 3.40381 53.3348 0.250519 58.9822 0.250519H70.3966L67.1544 4.40587H58.9822C56.2547 4.40587 54.2102 6.00638 54.2102 8.29878C54.2102 10.5912 56.2304 12.1281 58.9822 12.1281H70.3966Z" fill="white"/>
<path d="M95.2424 16.2403H88.4988L84.8736 12.0134H77.133V16.2403H72.0935V8.07279H86.2596C87.8179 8.07279 89.0357 7.3809 89.0357 6.28341C89.0357 5.04277 87.9881 4.42046 86.2596 4.42046H72.0935L75.3802 0.265106H85.8463C89.5464 0.265106 94.2191 1.4123 94.2191 5.97325C94.2191 8.45652 92.6365 10.5103 89.9638 11.0352C90.5231 11.4329 91.133 12.0154 92.2515 13.1368L95.2424 16.2403Z" fill="white"/>
<path d="M103.937 16.2397L106.977 12.132H111.066C112.04 12.132 113.183 12.132 113.964 12.1798C113.526 11.6071 112.843 10.627 112.308 9.86349L109.39 5.63657L101.747 16.2397H95.7831L106.225 1.78939C106.906 0.856917 107.905 0 109.487 0C110.995 0 111.994 0.795283 112.699 1.78939L122.873 16.2377L103.937 16.2397Z" fill="white"/>
<path d="M147.792 0.265106L142.657 4.87377C140.393 6.87987 139.638 7.52604 139.03 7.97935C139.613 8.35313 140.347 9.02912 142.981 11.4428L148.191 16.2423H141.074L135.524 10.9636L129.81 16.2423H123.55L128.855 11.4428C131.338 9.19812 132.039 8.62353 132.647 8.17022C132.039 7.74076 131.405 7.19202 128.849 4.84991L123.867 0.265106H130.851L136.037 5.23562L141.269 0.265106H147.792Z" fill="white"/>
<path d="M155.091 16.2423H150.053V0.265106H155.091V16.2423Z" fill="white"/>
<path d="M172.713 15.6432L162.733 6.85335V16.2397H158.158V2.98231C158.158 0.854929 159.473 0 160.909 0C161.517 0 162.125 0.143151 162.936 0.858905L172.913 9.64877V0.262443H177.509V13.494C177.509 15.6194 176.194 16.5021 174.733 16.5021C174.101 16.5021 173.493 16.359 172.713 15.6432Z" fill="white"/>
<path d="M194.956 15.6432L184.978 6.85335V16.2397H180.401V2.98231C180.401 0.854929 181.716 0 183.152 0C183.76 0 184.368 0.143151 185.179 0.858905L195.156 9.64877V0.262443H199.758V13.494C199.758 15.6194 198.443 16.5021 196.982 16.5021C196.344 16.5021 195.736 16.359 194.956 15.6432Z" fill="white"/>
<path d="M226.017 8.23913C226.017 13.9473 222.027 16.5021 214.116 16.5021C206.206 16.5021 202.214 13.9473 202.214 8.23913C202.214 2.53099 206.181 0 214.108 0C222.035 0 226.017 2.53099 226.017 8.23913ZM221.004 8.23913C221.004 4.79953 219.18 4.15535 214.114 4.15535C209.049 4.15535 207.225 4.79953 207.225 8.23913C207.225 11.6787 209.049 12.3468 214.114 12.3468C219.18 12.3468 220.998 11.6787 220.998 8.23913H221.004Z" fill="white"/>
<path d="M54.2015 31.7753H53.2876V24.751H50.6048V23.9338H56.8864V24.751H54.2015V31.7753Z" fill="white"/>
<path d="M71.7685 24.7411H66.8951V27.4172H71.2477V28.2323H66.8951V30.9761H71.8272V31.7833H65.9934V23.9338H71.7685V24.7411Z" fill="white"/>
<path d="M84.7124 31.9096C82.4064 31.9096 80.7043 30.1202 80.7043 27.8676C80.7043 25.615 82.3942 23.8017 84.7468 23.8017C86.1957 23.8017 87.0629 24.3047 87.8633 25.0444L87.2554 25.6945C86.5827 25.0662 85.837 24.6189 84.7448 24.6189C82.9758 24.6189 81.6506 26.0106 81.6506 27.8438C81.6506 29.6769 82.9859 31.0925 84.7448 31.0925C85.841 31.0925 86.5685 30.6789 87.3243 29.9612L87.918 30.5318C87.0751 31.3609 86.1612 31.9096 84.7124 31.9096Z" fill="white"/>
<path d="M97.8145 28.2463V31.7753H96.9128V23.9338H97.8145V27.4172H102.426V23.9338H103.328V31.7753H102.426V28.2463H97.8145Z" fill="white"/>
<path d="M118.887 23.9338H119.766V31.7753H119.047L113.888 25.3455V31.7753H113.008V23.9338H113.853L118.887 30.2205V23.9338Z" fill="white"/>
<path d="M133.157 31.9096C130.725 31.9096 129.104 30.0387 129.104 27.8676C129.104 25.6965 130.759 23.8017 133.191 23.8017C135.623 23.8017 137.254 25.6706 137.254 27.8438C137.254 30.0169 135.588 31.9096 133.157 31.9096ZM133.157 24.6189C131.333 24.6189 130.03 26.0524 130.03 27.8438C130.03 29.6351 131.353 31.0925 133.181 31.0925C135.009 31.0925 136.308 29.659 136.308 27.8676C136.308 26.0762 134.984 24.6189 133.157 24.6189Z" fill="white"/>
<path d="M146.573 23.9338H147.475V30.9582H151.971V31.7753H146.573V23.9338Z" fill="white"/>
<path d="M164.318 31.9096C161.886 31.9096 160.253 30.0387 160.253 27.8676C160.253 25.6965 161.908 23.8017 164.34 23.8017C166.772 23.8017 168.405 25.6706 168.405 27.8438C168.405 30.0169 166.749 31.9096 164.318 31.9096ZM164.318 24.6189C162.494 24.6189 161.189 26.0524 161.189 27.8438C161.189 29.6351 162.514 31.0925 164.34 31.0925C166.166 31.0925 167.469 29.659 167.469 27.8676C167.469 26.0762 166.144 24.6189 164.318 24.6189Z" fill="white"/>
<path d="M181.445 31.9096C178.934 31.9096 177.38 30.1202 177.38 27.8676C177.38 25.7044 178.991 23.8017 181.388 23.8017C182.735 23.8017 183.568 24.1815 184.367 24.8435L183.785 25.5156C183.128 24.9123 182.253 24.5898 181.353 24.6189C179.584 24.6189 178.314 26.0862 178.314 27.8438C178.314 29.7266 179.53 31.1144 181.477 31.1144C182.313 31.112 183.124 30.8363 183.783 30.331V28.3826H181.351V27.5873H184.65V30.7107C183.767 31.4813 182.627 31.9077 181.445 31.9096Z" fill="white"/>
<path d="M195.085 23.9338V31.7753H194.182V23.9338H195.085Z" fill="white"/>
<path d="M210.622 24.7411H205.746V27.4172H210.107V28.2323H205.746V30.9761H210.678V31.7833H204.845V23.9338H210.622V24.7411Z" fill="white"/>
<path d="M222.778 27.4392C224.559 27.821 225.382 28.4592 225.382 29.668C225.382 31.024 224.239 31.8968 222.652 31.8968C221.44 31.9095 220.269 31.4597 219.388 30.6422L219.947 29.9921C220.78 30.7317 221.58 31.1015 222.687 31.1015C223.761 31.1015 224.468 30.5528 224.468 29.7575C224.468 29.0179 224.063 28.6043 222.391 28.2564C220.553 27.8587 219.708 27.2822 219.708 25.9819C219.708 24.7293 220.814 23.8326 222.332 23.8326C223.357 23.8035 224.357 24.1461 225.141 24.7949L224.616 25.4788C223.977 24.9314 223.158 24.6292 222.31 24.6279C221.272 24.6279 220.61 25.1866 220.61 25.9043C220.61 26.6439 221.021 27.0615 222.778 27.4392Z" fill="white"/>
<defs>
<filter id="filter0_d_704_818" x="0" y="0" width="47.7964" height="40.7279" filterUnits="userSpaceOnUse" color-interpolation-filters="sRGB">
<feFlood flood-opacity="0" result="BackgroundImageFix"/>
<feColorMatrix in="SourceAlpha" type="matrix" values="0 0 0 0 0 0 0 0 0 0 0 0 0 0 0 0 0 0 127 0" result="hardAlpha"/>
<feOffset dy="4"/>
<feGaussianBlur stdDeviation="2"/>
<feComposite in2="hardAlpha" operator="out"/>
<feColorMatrix type="matrix" values="0 0 0 0 0 0 0 0 0 0 0 0 0 0 0 0 0 0 0.25 0"/>
<feBlend mode="normal" in2="BackgroundImageFix" result="effect1_dropShadow_704_818"/>
<feBlend mode="normal" in="SourceGraphic" in2="effect1_dropShadow_704_818" result="shape"/>
</filter>
<linearGradient id="paint0_linear_704_818" x1="8.51938" y1="16.2729" x2="25.5643" y2="-1.10109" gradientUnits="userSpaceOnUse">
<stop stop-color="white"/>
<stop offset="1" stop-color="white"/>
</linearGradient>
</defs>
</svg>
