<svg width="167" height="35" viewBox="0 0 167 35" fill="none" xmlns="http://www.w3.org/2000/svg">
<path fill-rule="evenodd" clip-rule="evenodd" d="M0.632969 5.82559C0 7.35371 0 9.29094 0 13.1654V21.4808C0 25.3552 0 27.2925 0.632969 28.8206C1.47693 30.8581 3.09571 32.4769 5.13321 33.3208C6.66133 33.9538 8.59856 33.9538 12.473 33.9538H20.7884C24.6629 33.9538 26.6001 33.9538 28.1282 33.3208C30.1657 32.4769 31.7845 30.8581 32.6284 28.8206C33.2614 27.2925 33.2614 25.3552 33.2614 21.4808V13.1654C33.2614 9.29094 33.2614 7.35371 32.6284 5.82559C31.7845 3.78809 30.1657 2.16931 28.1282 1.32535C26.6001 0.692383 24.6629 0.692383 20.7884 0.692383H12.473C8.59856 0.692383 6.66133 0.692383 5.13321 1.32535C3.09571 2.16931 1.47693 3.78809 0.632969 5.82559ZM19.1819 9.79902C19.2176 9.66963 19.0669 9.57012 18.9619 9.65376L9.67957 17.0496C9.59098 17.1202 9.61988 17.2614 9.72907 17.2916L14.677 18.6569C14.7508 18.6772 14.7941 18.7535 14.7737 18.8273L13.2036 24.5174C13.1679 24.6468 13.3186 24.7463 13.4236 24.6627L22.7059 17.2668C22.7945 17.1963 22.7656 17.055 22.6564 17.0249L17.7085 15.6595C17.6347 15.6392 17.5914 15.5629 17.6118 15.4891L19.1819 9.79902Z" fill="white"/>
<path d="M46.1007 28V7.84157H50.3627V16.1589H59.0147V7.84157H63.2668V28H59.0147V19.6728H50.3627V28H46.1007ZM66.3556 28V12.8812H70.5487V28H66.3556ZM68.462 10.9323C67.8386 10.9323 67.3038 10.7256 66.8576 10.3122C66.4179 9.89219 66.1981 9.3902 66.1981 8.80618C66.1981 8.22873 66.4179 7.7333 66.8576 7.31989C67.3038 6.89992 67.8386 6.68994 68.462 6.68994C69.0854 6.68994 69.6169 6.89992 70.0565 7.31989C70.5028 7.7333 70.7259 8.22873 70.7259 8.80618C70.7259 9.3902 70.5028 9.89219 70.0565 10.3122C69.6169 10.7256 69.0854 10.9323 68.462 10.9323ZM73.5611 33.6696V12.8812H77.6952V15.4207H77.8822C78.0659 15.0138 78.3317 14.6004 78.6795 14.1805C79.0338 13.7539 79.4932 13.3996 80.0575 13.1174C80.6284 12.8287 81.3371 12.6843 82.1836 12.6843C83.286 12.6843 84.3031 12.973 85.2349 13.5505C86.1667 14.1214 86.9115 14.9843 87.4693 16.1392C88.027 17.2876 88.3059 18.7279 88.3059 20.4603C88.3059 22.1467 88.0336 23.5707 87.489 24.7321C86.9509 25.887 86.2159 26.7631 85.2841 27.3602C84.3589 27.9508 83.3221 28.2461 82.1737 28.2461C81.3601 28.2461 80.6678 28.1116 80.0969 27.8425C79.5325 27.5735 79.0699 27.2355 78.709 26.8287C78.3481 26.4153 78.0725 25.9986 77.8822 25.5786H77.7542V33.6696H73.5611ZM77.6657 20.4406C77.6657 21.3396 77.7903 22.1237 78.0397 22.7931C78.289 23.4624 78.65 23.9841 79.1224 24.3581C79.5949 24.7256 80.1691 24.9093 80.8449 24.9093C81.5274 24.9093 82.1048 24.7223 82.5773 24.3483C83.0498 23.9677 83.4074 23.4427 83.6502 22.7734C83.8995 22.0975 84.0242 21.3199 84.0242 20.4406C84.0242 19.5678 83.9028 18.8001 83.66 18.1373C83.4172 17.4746 83.0596 16.9562 82.5871 16.5821C82.1147 16.2081 81.5339 16.0211 80.8449 16.0211C80.1625 16.0211 79.585 16.2015 79.1126 16.5625C78.6467 16.9234 78.289 17.4352 78.0397 18.098C77.7903 18.7607 77.6657 19.5416 77.6657 20.4406ZM94.948 19.2594V28H90.7549V7.84157H94.8299V15.5486H95.007C95.3483 14.6562 95.8995 13.9573 96.6606 13.4521C97.4218 12.9402 98.3766 12.6843 99.525 12.6843C100.575 12.6843 101.49 12.914 102.271 13.3733C103.059 13.8261 103.669 14.479 104.102 15.3321C104.542 16.1786 104.758 17.1924 104.752 18.3736V28H100.558V19.1216C100.565 18.1898 100.329 17.4647 99.8498 16.9463C99.3773 16.4279 98.7146 16.1687 97.8615 16.1687C97.2906 16.1687 96.7853 16.2901 96.3457 16.5329C95.9126 16.7757 95.5714 17.1301 95.322 17.596C95.0792 18.0553 94.9545 18.6098 94.948 19.2594ZM114.536 28.2953C113.007 28.2953 111.685 27.9705 110.569 27.3208C109.46 26.6646 108.604 25.7525 108 24.5845C107.397 23.4099 107.095 22.0483 107.095 20.4996C107.095 18.9379 107.397 17.573 108 16.405C108.604 15.2304 109.46 14.3183 110.569 13.6686C111.685 13.0124 113.007 12.6843 114.536 12.6843C116.065 12.6843 117.384 13.0124 118.493 13.6686C119.608 14.3183 120.468 15.2304 121.072 16.405C121.675 17.573 121.977 18.9379 121.977 20.4996C121.977 22.0483 121.675 23.4099 121.072 24.5845C120.468 25.7525 119.608 26.6646 118.493 27.3208C117.384 27.9705 116.065 28.2953 114.536 28.2953ZM114.556 25.0471C115.251 25.0471 115.832 24.8502 116.298 24.4565C116.764 24.0562 117.115 23.5116 117.351 22.8226C117.594 22.1336 117.715 21.3494 117.715 20.4701C117.715 19.5908 117.594 18.8067 117.351 18.1176C117.115 17.4286 116.764 16.884 116.298 16.4837C115.832 16.0834 115.251 15.8833 114.556 15.8833C113.854 15.8833 113.263 16.0834 112.784 16.4837C112.311 16.884 111.954 17.4286 111.711 18.1176C111.475 18.8067 111.357 19.5908 111.357 20.4701C111.357 21.3494 111.475 22.1336 111.711 22.8226C111.954 23.5116 112.311 24.0562 112.784 24.4565C113.263 24.8502 113.854 25.0471 114.556 25.0471ZM128.55 19.2594V28H124.357V12.8812H128.354V15.5486H128.531C128.865 14.6693 129.426 13.9737 130.214 13.4619C131.001 12.9435 131.956 12.6843 133.078 12.6843C134.128 12.6843 135.044 12.914 135.824 13.3733C136.605 13.8327 137.212 14.4889 137.645 15.3419C138.078 16.1884 138.295 17.199 138.295 18.3736V28H134.102V19.1216C134.108 18.1964 133.872 17.4746 133.393 16.9562C132.914 16.4312 132.255 16.1687 131.415 16.1687C130.85 16.1687 130.352 16.2901 129.919 16.5329C129.492 16.7757 129.157 17.1301 128.915 17.596C128.678 18.0553 128.557 18.6098 128.55 19.2594ZM141.253 28V12.8812H145.446V28H141.253ZM143.36 10.9323C142.736 10.9323 142.202 10.7256 141.755 10.3122C141.316 9.89219 141.096 9.3902 141.096 8.80618C141.096 8.22873 141.316 7.7333 141.755 7.31989C142.202 6.89992 142.736 6.68994 143.36 6.68994C143.983 6.68994 144.515 6.89992 144.954 7.31989C145.4 7.7333 145.624 8.22873 145.624 8.80618C145.624 9.3902 145.4 9.89219 144.954 10.3122C144.515 10.7256 143.983 10.9323 143.36 10.9323ZM155.29 28.2953C153.741 28.2953 152.409 27.9672 151.294 27.311C150.185 26.6482 149.332 25.7296 148.734 24.555C148.144 23.3804 147.849 22.0286 147.849 20.4996C147.849 18.951 148.147 17.5927 148.744 16.4247C149.348 15.2501 150.204 14.3347 151.313 13.6785C152.422 13.0157 153.741 12.6843 155.27 12.6843C156.589 12.6843 157.744 12.9238 158.735 13.4029C159.726 13.8819 160.51 14.5545 161.087 15.4207C161.665 16.2868 161.983 17.304 162.042 18.472H158.085C157.974 17.7174 157.678 17.1104 157.199 16.651C156.727 16.1851 156.107 15.9522 155.339 15.9522C154.689 15.9522 154.122 16.1294 153.636 16.4837C153.157 16.8315 152.783 17.34 152.514 18.0094C152.245 18.6787 152.111 19.4891 152.111 20.4406C152.111 21.4052 152.242 22.2254 152.504 22.9013C152.773 23.5772 153.151 24.0923 153.636 24.4467C154.122 24.801 154.689 24.9782 155.339 24.9782C155.818 24.9782 156.248 24.8798 156.629 24.6829C157.016 24.4861 157.334 24.2006 157.583 23.8266C157.839 23.446 158.007 22.9899 158.085 22.4584H162.042C161.977 23.6133 161.662 24.6304 161.097 25.5097C160.539 26.3825 159.768 27.0649 158.784 27.5571C157.8 28.0492 156.635 28.2953 155.29 28.2953Z" fill="white"/>
</svg>
