<svg width="60" height="60" viewBox="0 0 60 60" fill="none" xmlns="http://www.w3.org/2000/svg">
<path d="M60 30C60 46.5685 46.5685 60 30 60C13.4315 60 0 46.5685 0 30C0 13.4315 13.4315 0 30 0C46.5685 0 60 13.4315 60 30ZM6.81626 30C6.81626 42.804 17.196 53.1837 30 53.1837C42.804 53.1837 53.1837 42.804 53.1837 30C53.1837 17.196 42.804 6.81626 30 6.81626C17.196 6.81626 6.81626 17.196 6.81626 30Z" fill="#F1F5F9"/>
<path d="M28.7074 2.02985C28.6564 0.92646 29.5103 -0.0163392 30.6147 0.00628136C35.9649 0.115871 41.2018 1.65541 45.7743 4.48193C50.9152 7.65983 54.9764 12.3164 57.4258 17.8416C59.8752 23.3669 60.5987 29.5031 59.5014 35.4465C58.5255 40.7327 56.1497 45.6472 52.6383 49.6853C51.9135 50.5188 50.6415 50.5184 49.8581 49.7397L47.8607 47.7543C47.0774 46.9756 47.0811 45.7144 47.7895 44.8668C50.3414 41.8132 52.0719 38.1445 52.7985 34.209C53.6464 29.616 53.0873 24.874 51.1944 20.6041C49.3015 16.3343 46.1631 12.7357 42.1902 10.2798C38.7862 8.17559 34.9055 6.99434 30.9292 6.83487C29.8255 6.7906 28.8884 5.9465 28.8374 4.8431L28.7074 2.02985Z" fill="#2563EB"/>
<path d="M48.7583 50.7877C49.4982 51.6077 49.4372 52.8782 48.5697 53.562C45.175 56.2374 41.2355 58.1528 37.0178 59.1676C32.1507 60.3387 27.068 60.2731 22.2327 58.977C17.3974 57.6809 12.9633 55.1955 9.33445 51.7471C6.18981 48.7588 3.73648 45.1298 2.13507 41.1151C1.72582 40.0892 2.30845 38.9585 3.3594 38.6185L6.03892 37.7516C7.08987 37.4116 8.20943 37.9923 8.63871 39.0101C9.8769 41.9456 11.7099 44.6014 14.0298 46.806C16.8342 49.4708 20.2608 51.3916 23.9975 52.3932C27.7342 53.3948 31.6621 53.4455 35.4233 52.5405C38.5348 51.7919 41.4504 50.4089 43.9909 48.4863C44.8716 47.8197 46.1315 47.8768 46.8715 48.6968L48.7583 50.7877Z" fill="#38BDF8"/>
<path d="M2.94156 37.2001C1.87414 37.4841 0.771573 36.8498 0.559271 35.7658C-0.345118 31.1481 -0.150486 26.3816 1.12737 21.8531C1.42734 20.79 2.57795 20.2477 3.61867 20.6178L6.27212 21.5615C7.31283 21.9316 7.84744 23.0739 7.56837 24.1426C6.72715 27.3641 6.58972 30.7297 7.16549 34.009C7.3565 35.0969 6.73054 36.1918 5.66312 36.4759L2.94156 37.2001Z" fill="#8B5CF6"/>
<path d="M19.4109 34H20.7873L24.5842 26.4403V25.2727H18.8143V26.402H23.2205V26.4659L19.4109 34ZM28.9169 34.1449C30.9325 34.1449 32.1129 32.5 32.1129 29.6406C32.1129 26.8026 30.9155 25.1534 28.9169 25.1534C26.9141 25.1534 25.7209 26.7983 25.7166 29.6406C25.7166 32.4957 26.897 34.1406 28.9169 34.1449ZM28.9169 33.0071C27.7365 33.0071 27.0249 31.8224 27.0249 29.6406C27.0291 27.4673 27.7408 26.2699 28.9169 26.2699C30.0888 26.2699 30.8047 27.4673 30.8047 29.6406C30.8047 31.8224 30.093 33.0071 28.9169 33.0071ZM38.18 32.3636C38.1843 33.348 38.8022 34.179 39.957 34.179C41.0991 34.179 41.7255 33.348 41.7255 32.3636V31.9034C41.7255 30.9148 41.1161 30.0881 39.957 30.0881C38.8192 30.0881 38.1843 30.919 38.18 31.9034V32.3636ZM33.7908 27.3693C33.7908 28.3537 34.413 29.1847 35.5678 29.1847C36.7056 29.1847 37.3363 28.358 37.332 27.3693V26.9091C37.3363 25.9205 36.7227 25.0938 35.5678 25.0938C34.4343 25.0938 33.7908 25.9205 33.7908 26.9091V27.3693ZM34.1488 34H35.1673L41.1673 25.2727H40.1488L34.1488 34ZM39.1729 31.9034C39.1772 31.4134 39.3903 30.9403 39.957 30.9403C40.5451 30.9403 40.7283 31.4134 40.7283 31.9034V32.3636C40.7283 32.8537 40.5281 33.3267 39.957 33.3267C39.3775 33.3267 39.1772 32.8494 39.1729 32.3636V31.9034ZM34.788 26.9091C34.788 26.4233 35.0011 25.946 35.5678 25.946C36.1559 25.946 36.3391 26.419 36.3391 26.9091V27.3693C36.3391 27.8594 36.1388 28.3324 35.5678 28.3324C34.9883 28.3324 34.788 27.8594 34.788 27.3693V26.9091Z" fill="#0F172A"/>
</svg>
