<svg width="22" height="22" viewBox="0 0 22 22" fill="none" xmlns="http://www.w3.org/2000/svg">
<path d="M7.84819 11.314V15.059" stroke="#8C72FA" stroke-width="1.5" stroke-linecap="round" stroke-linejoin="round"/>
<path d="M9.75912 13.1868H5.93799" stroke="#8C72FA" stroke-width="1.5" stroke-linecap="round" stroke-linejoin="round"/>
<path d="M14.3661 11.428H14.259" stroke="#8C72FA" stroke-width="1.5" stroke-linecap="round" stroke-linejoin="round"/>
<path d="M16.1795 15.0027H16.0725" stroke="#8C72FA" stroke-width="1.5" stroke-linecap="round" stroke-linejoin="round"/>
<path d="M7.07227 1V1C7.07227 1.74048 7.68475 2.34076 8.44029 2.34076H9.49676C10.6624 2.34492 11.6065 3.27026 11.6118 4.41266V5.08771" stroke="#8C72FA" stroke-width="1.5" stroke-linecap="round" stroke-linejoin="round"/>
<path fill-rule="evenodd" clip-rule="evenodd" d="M15.4283 20.9625C12.4231 21.0134 9.47303 21.0113 6.57275 20.9625C3.3535 20.9625 1 18.6663 1 15.5112V10.8616C1 7.70651 3.3535 5.41029 6.57275 5.41029C9.48893 5.36044 12.4411 5.36148 15.4283 5.41029C18.6476 5.41029 21 7.70755 21 10.8616V15.5112C21 18.6663 18.6476 20.9625 15.4283 20.9625Z" stroke="#8C72FA" stroke-width="1.5" stroke-linecap="round" stroke-linejoin="round"/>
</svg>
