<svg width="24" height="24" viewBox="0 0 24 24" fill="none" xmlns="http://www.w3.org/2000/svg">
<path d="M8.84831 12.314V16.059" stroke="#808191" stroke-width="1.5" stroke-linecap="round" stroke-linejoin="round"/>
<path d="M10.759 14.1868H6.93787" stroke="#808191" stroke-width="1.5" stroke-linecap="round" stroke-linejoin="round"/>
<path d="M15.3661 12.428H15.259" stroke="#808191" stroke-width="1.5" stroke-linecap="round" stroke-linejoin="round"/>
<path d="M17.1797 16.0027H17.0726" stroke="#808191" stroke-width="1.5" stroke-linecap="round" stroke-linejoin="round"/>
<path d="M8.07214 2V2C8.07214 2.74048 8.68463 3.34076 9.44016 3.34076H10.4966C11.6623 3.34492 12.6064 4.27026 12.6117 5.41266V6.08771" stroke="#808191" stroke-width="1.5" stroke-linecap="round" stroke-linejoin="round"/>
<path fill-rule="evenodd" clip-rule="evenodd" d="M16.4283 21.9625C13.4231 22.0134 10.473 22.0113 7.57275 21.9625C4.3535 21.9625 2 19.6663 2 16.5112V11.8616C2 8.70651 4.3535 6.41029 7.57275 6.41029C10.4889 6.36044 13.4411 6.36148 16.4283 6.41029C19.6476 6.41029 22 8.70755 22 11.8616V16.5112C22 19.6663 19.6476 21.9625 16.4283 21.9625Z" stroke="#808191" stroke-width="1.5" stroke-linecap="round" stroke-linejoin="round"/>
</svg>
