<svg width="24" height="24" viewBox="0 0 24 24" fill="none" xmlns="http://www.w3.org/2000/svg">
<path d="M13.5008 6V16.5H10.5009V6H6.00098L12.0008 0L18.0007 6H13.5008Z" fill="#787C84"/>
<path d="M22.5003 24H1.50076C1.07027 24 0.660781 23.8155 0.375788 23.493C0.0907946 23.1705 -0.0412023 22.7415 0.0112964 22.314L1.51126 10.314C1.60576 9.5625 2.24474 9 3.00073 9H7.50062V12H4.32519L3.20022 21H20.8008L19.6758 12H16.5004V9H21.0003C21.7563 9 22.3953 9.5625 22.4883 10.314L23.9882 22.314C24.0422 22.7415 23.9087 23.1705 23.6237 23.493C23.3402 23.8155 22.9308 24 22.5003 24Z" fill="#787C84"/>
</svg>
