<svg width="51" height="27" viewBox="0 0 51 27" fill="none" xmlns="http://www.w3.org/2000/svg">
<rect x="1" y="4" width="49" height="22" rx="11" stroke="#FF754C" stroke-width="2" stroke-linecap="round" stroke-linejoin="round"/>
<path d="M21.4426 15.1094C21.141 15.1094 20.8824 15.0033 20.667 14.7912C20.4516 14.5791 20.3455 14.3205 20.3488 14.0156C20.3455 13.7173 20.4516 13.4621 20.667 13.25C20.8824 13.0379 21.141 12.9318 21.4426 12.9318C21.7342 12.9318 21.9878 13.0379 22.2032 13.25C22.422 13.4621 22.533 13.7173 22.5363 14.0156C22.533 14.2178 22.48 14.4018 22.3772 14.5675C22.2778 14.7332 22.1452 14.8658 21.9795 14.9652C21.8171 15.0613 21.6381 15.1094 21.4426 15.1094ZM25.5031 15.1094C25.2015 15.1094 24.943 15.0033 24.7275 14.7912C24.5121 14.5791 24.406 14.3205 24.4094 14.0156C24.406 13.7173 24.5121 13.4621 24.7275 13.25C24.943 13.0379 25.2015 12.9318 25.5031 12.9318C25.7948 12.9318 26.0483 13.0379 26.2638 13.25C26.4825 13.4621 26.5935 13.7173 26.5969 14.0156C26.5935 14.2178 26.5405 14.4018 26.4378 14.5675C26.3383 14.7332 26.2058 14.8658 26.04 14.9652C25.8776 15.0613 25.6987 15.1094 25.5031 15.1094ZM29.5637 15.1094C29.262 15.1094 29.0035 15.0033 28.7881 14.7912C28.5727 14.5791 28.4666 14.3205 28.4699 14.0156C28.4666 13.7173 28.5727 13.4621 28.7881 13.25C29.0035 13.0379 29.262 12.9318 29.5637 12.9318C29.8553 12.9318 30.1089 13.0379 30.3243 13.25C30.5431 13.4621 30.6541 13.7173 30.6574 14.0156C30.6541 14.2178 30.6011 14.4018 30.4983 14.5675C30.3989 14.7332 30.2663 14.8658 30.1006 14.9652C29.9382 15.0613 29.7592 15.1094 29.5637 15.1094Z" fill="white"/>
</svg>
