<svg width="24" height="24" viewBox="0 0 24 24" fill="none" xmlns="http://www.w3.org/2000/svg">
<circle cx="11.5789" cy="6.77803" r="4.77803" stroke="#8C72FA" stroke-width="1.5" stroke-linecap="round" stroke-linejoin="round"/>
<path fill-rule="evenodd" clip-rule="evenodd" d="M4.00002 18.2013C3.99873 17.8654 4.07385 17.5336 4.2197 17.2311C4.67736 16.3157 5.96798 15.8306 7.03892 15.6109C7.81128 15.4461 8.59431 15.336 9.38217 15.2814C10.8408 15.1533 12.3079 15.1533 13.7666 15.2814C14.5544 15.3366 15.3374 15.4467 16.1099 15.6109C17.1808 15.8306 18.4714 16.27 18.9291 17.2311C19.2224 17.8479 19.2224 18.5639 18.9291 19.1807C18.4714 20.1418 17.1808 20.5812 16.1099 20.7917C15.3384 20.9633 14.5551 21.0766 13.7666 21.1304C12.5794 21.231 11.3866 21.2494 10.1968 21.1853C9.92221 21.1853 9.65677 21.1853 9.38217 21.1304C8.59663 21.0772 7.81632 20.964 7.04807 20.7917C5.96798 20.5812 4.68652 20.1418 4.2197 19.1807C4.0746 18.8746 3.99955 18.54 4.00002 18.2013Z" stroke="#8C72FA" stroke-width="1.5" stroke-linecap="round" stroke-linejoin="round"/>
</svg>
