<svg width="40" height="40" viewBox="0 0 40 40" fill="none" xmlns="http://www.w3.org/2000/svg">
<path fill-rule="evenodd" clip-rule="evenodd" d="M19.3525 3.33325C10.5053 3.33325 3.33325 10.3469 3.33325 18.9987C3.33325 27.6505 10.5053 34.6641 19.3525 34.6641C23.1363 34.6641 26.6138 33.3812 29.3548 31.2359L34.5616 36.3145L34.7002 36.4312C35.1836 36.781 35.8689 36.7412 36.3063 36.3123C36.7875 35.8405 36.7865 35.0767 36.3041 34.6061L31.1584 29.5872C33.7748 26.799 35.3717 23.0812 35.3717 18.9987C35.3717 10.3469 28.1997 3.33325 19.3525 3.33325ZM19.3525 5.74626C26.837 5.74626 32.9043 11.6796 32.9043 18.9988C32.9043 26.318 26.837 32.2513 19.3525 32.2513C11.868 32.2513 5.80066 26.318 5.80066 18.9988C5.80066 11.6796 11.868 5.74626 19.3525 5.74626Z" fill="#8C72FA"/>
</svg>
