<svg width="20" height="20" viewBox="0 0 20 20" fill="none" xmlns="http://www.w3.org/2000/svg">
<path d="M1.56394 8.09677C0.862926 7.69757 0.762782 6.69956 1.56394 6.30036C1.56394 6.30036 4.06754 3.90514 8.17346 2.60773C13.4811 0.81132 17.7873 1.01092 17.7873 1.01092C18.4883 0.911121 19.0892 1.50993 18.989 2.20853C18.989 2.20853 19.1893 6.49996 17.3867 11.8892C15.5841 17.2784 13.6814 18.476 13.6814 18.476C13.2808 19.1747 12.2794 19.1747 11.8788 18.476C10.0762 16.3802 9.1749 13.6856 9.1749 10.8912C6.37086 10.7914 3.66697 9.89319 1.56394 8.09677Z" stroke="#FF754C" stroke-width="1.5" stroke-linecap="round" stroke-linejoin="round"/>
<path d="M9 11L18 2" stroke="#FF754C" stroke-width="1.5" stroke-linecap="round" stroke-linejoin="round"/>
</svg>
