<svg width="16" height="16" viewBox="0 0 16 16" fill="none" xmlns="http://www.w3.org/2000/svg">
<path fill-rule="evenodd" clip-rule="evenodd" d="M13.905 3.815C13.214 4.966 13.832 6.458 15.135 6.784C15.74 6.935 16 7.33 16 7.781V8.219C16 8.669 15.742 9.065 15.135 9.216C13.832 9.541 13.214 11.033 13.905 12.185C14.226 12.721 14.129 13.183 13.811 13.501L13.501 13.811C13.182 14.13 12.72 14.226 12.185 13.905C11.034 13.214 9.542 13.832 9.216 15.135C9.064 15.742 8.669 16 8.219 16H7.781C7.331 16 6.935 15.742 6.784 15.135C6.459 13.832 4.967 13.214 3.815 13.905C3.281 14.226 2.818 14.13 2.499 13.811L2.189 13.501C1.87 13.183 1.773 12.721 2.095 12.185C2.786 11.034 2.168 9.542 0.865 9.216C0.258 9.064 0 8.669 0 8.219V7.781C0 7.33 0.26 6.935 0.865 6.784C2.168 6.459 2.786 4.967 2.095 3.815C1.773 3.279 1.87 2.816 2.188 2.498L2.498 2.188C2.816 1.87 3.279 1.773 3.815 2.095C4.966 2.786 6.458 2.168 6.784 0.865C6.936 0.258 7.331 0 7.781 0H8.219C8.669 0 9.065 0.258 9.216 0.865C9.541 2.168 11.033 2.786 12.185 2.095C12.721 1.774 13.183 1.871 13.501 2.189L13.811 2.499C14.13 2.817 14.227 3.279 13.905 3.815ZM5 8C5 9.657 6.343 11 8 11C9.657 11 11 9.657 11 8C11 6.343 9.657 5 8 5C6.343 5 5 6.343 5 8Z" fill="#8C1CE4"/>
</svg>
