<svg width="16" height="16" viewBox="0 0 16 16" fill="none" xmlns="http://www.w3.org/2000/svg">
<path d="M12.8 12.1999C12.4 11.7999 12.4 11.1999 12.8 10.7999C14.4 9.1999 14.4 6.6999 12.8 5.0999C12.4 4.6999 12.4 4.0999 12.8 3.6999C13.2 3.2999 13.8 3.2999 14.2 3.6999C16.5 5.9999 16.5 9.7999 14.2 12.1999C13.9 12.5999 13.2 12.5999 12.8 12.1999Z" fill="#8C1CE4"/>
<path d="M11 0.999947C11 0.199947 10.1 -0.300053 9.4 0.199947L3.7 3.99995H1C0.4 3.99995 0 4.39995 0 4.99995V10.9999C0 11.5999 0.4 11.9999 1 11.9999H3.7L9.4 15.7999C10.1 16.1999 11 15.7999 11 14.9999V0.999947Z" fill="#8C1CE4"/>
</svg>
