<svg width="181" height="28" viewBox="0 0 181 28" fill="none" xmlns="http://www.w3.org/2000/svg">
<path d="M172.365 26.9723H180.145L172.117 0.477501L161.061 0.477051L153.033 26.9719H160.815L162.234 22.0674H170.94L172.365 26.9719V26.9723ZM163.918 16.176L166.567 7.02217H166.612L169.26 16.176H163.918Z" fill="#DCDCDC"/>
<path d="M38.839 27.4474C46.8284 27.4474 50.6903 26.04 51.2375 18.8308C51.3681 17.1154 51.3929 15.3542 51.3929 13.7217C51.3951 12.0947 51.3681 10.3318 51.2375 8.61656C50.6903 1.40513 46.8284 0 38.839 0C30.8496 0 26.99 1.40513 26.445 8.61656C26.3122 10.3318 26.2852 12.0947 26.2852 13.7217C26.2874 15.3542 26.3122 17.1154 26.445 18.8308C26.99 26.04 30.8496 27.4474 38.839 27.4474ZM33.8152 13.7217C33.8152 12.2668 33.8512 11.4068 33.8828 10.7686C34.0854 6.6791 35.7 6.2024 38.839 6.2024C41.9803 6.2024 43.5948 6.6791 43.7953 10.7686C43.8268 11.4066 43.8651 12.2665 43.8651 13.7217C43.8651 15.1813 43.8268 16.0428 43.7953 16.6794C43.5948 20.7696 41.9803 21.2472 38.839 21.2472C35.7 21.2472 34.0854 20.7696 33.8828 16.6794C33.8512 16.0428 33.8152 15.1813 33.8152 13.7217Z" fill="#DCDCDC"/>
<path d="M0 0.489258V7.09405H7.92008V26.9836H15.8431V7.09405H23.7634V0.489258H0Z" fill="#DCDCDC"/>
<path d="M121.564 26.9723V0.477051H114.045V26.9723H121.564Z" fill="#DCDCDC"/>
<path d="M91.312 10.1506V0.477051H83.8359V26.9723H91.312V16.7554H99.9995V26.9723H107.473V0.477051H99.9995V10.1506H91.312Z" fill="#DCDCDC"/>
<path d="M146.293 13.1251C149.623 12.2737 150.6 10.2842 150.6 7.40862C150.6 1.58566 146.937 0.477539 141.728 0.477539H128.229V26.9724H142.397C148.92 26.9724 151.114 24.1621 151.114 19.8398C151.114 16.8262 150.425 14.1672 146.293 13.1244V13.1251ZM135.702 16.0898H140.886C142.98 16.0898 143.417 17.0072 143.417 18.4993C143.417 19.9927 142.597 20.9125 140.886 20.9125H135.702V16.0898ZM135.702 6.53649H140.886C142.239 6.53649 143.077 7.17849 143.077 8.72255C143.077 10.0462 142.248 10.8609 140.886 10.8609H135.702V6.53649Z" fill="#DCDCDC"/>
<path d="M55.75 18.2776H62.877C62.8837 19.563 63.0481 20.422 63.6719 20.8965C64.3812 21.4311 65.0162 21.6076 67.1217 21.6076C69.1483 21.6076 71.3686 21.6076 71.3686 19.1115C71.3686 17.1429 70.1278 16.6937 67.8377 16.5716C62.1587 16.2708 60.105 16.1102 57.9906 14.5394C56.5494 13.4682 55.8018 11.3828 55.8018 8.56262C55.8018 3.76693 57.4749 2.0846 59.8888 0.910729C62.3793 -0.300972 72.1545 -0.300972 74.7846 0.910729C78.0925 2.43476 78.1893 5.73411 78.1893 8.79455H71.0803C71.0668 7.23427 70.7156 6.79359 70.4296 6.50333C69.691 5.84851 68.6394 5.71024 67.1217 5.71024C65.2842 5.71024 63.1585 5.79311 63.1585 8.02443C63.1585 9.7268 63.8948 10.4384 65.8269 10.5636C68.4818 10.7334 73.7127 10.9007 75.5772 12.0009C78.1916 13.5472 78.8694 15.6396 78.8694 19.0534C78.8694 23.9866 77.1039 25.4346 74.6472 26.5199C71.8122 27.7719 62.3433 27.7719 59.2651 26.4231C55.8198 24.9211 55.75 21.9276 55.75 18.2776Z" fill="#DCDCDC"/>
</svg>
