<svg width="217" height="36" viewBox="0 0 217 36" fill="none" xmlns="http://www.w3.org/2000/svg">
<path fill-rule="evenodd" clip-rule="evenodd" d="M25.642 33.8293C22.7732 32.0324 20.6598 25.8313 20.6598 18.4635C20.6598 18.1932 20.6615 17.9267 20.6676 17.6603L20.6711 17.6642C12.6919 16.4102 6.92678 12.9746 6.77914 8.91209L6.75572 8.95892C4.80337 11.3852 3.68898 14.1905 3.68898 17.1796C3.68898 25.9753 13.3441 33.1822 25.5904 33.8196L25.642 33.8293ZM0 17.8214C0 7.9796 12.2475 0 27.3566 0C42.4652 0 54.7131 7.9796 54.7131 17.8214C54.7131 27.6631 42.465 35.6429 27.3566 35.6429C12.2475 35.6429 0 27.6629 0 17.8214ZM27.3566 2.57199C30.2733 2.57199 32.7542 6.99638 33.6732 13.1698L33.6767 13.1604C39.351 12.2772 43.324 10.2396 43.324 7.8686C43.324 4.6863 36.1743 2.10954 27.3566 2.10954C18.5381 2.10954 11.3891 4.68651 11.3891 7.8686C11.3891 10.2396 15.3615 12.2772 21.0364 13.1604L21.0399 13.1698C21.9589 6.9966 24.4405 2.57199 27.3566 2.57199ZM29.1222 33.8194C41.3686 33.1822 51.025 25.9751 51.025 17.1794C51.025 14.1905 49.9093 11.3852 47.9572 8.9587L47.9333 8.91187C47.7857 12.9744 42.0221 16.4099 34.042 17.664L34.0455 17.6601C34.0509 17.9265 34.0537 18.193 34.0537 18.4633C34.0537 25.8311 31.9388 32.0322 29.0717 33.8291L29.1222 33.8194ZM27.3566 13.6285C28.6633 13.6285 29.9335 13.5728 31.149 13.4657L31.1472 13.4677C30.5423 9.51026 29.0732 6.71735 27.3566 6.71735C25.6399 6.71735 24.171 9.51026 23.5652 13.4677L23.5637 13.4657C24.7792 13.5728 26.0499 13.6285 27.3566 13.6285ZM27.3566 28.2834C29.5524 28.2834 31.3436 23.7138 31.4393 17.9822L31.451 17.9864C30.1274 18.1089 28.7582 18.1728 27.3568 18.1728C25.954 18.1728 24.5862 18.1089 23.2626 17.9864L23.2749 17.9822C23.369 23.7135 25.1599 28.2834 27.3566 28.2834Z" fill="#DCDCDC"/>
<path fill-rule="evenodd" clip-rule="evenodd" d="M139.592 17.8214C139.592 10.299 145.691 4.20068 153.212 4.20068C160.736 4.20068 166.835 10.2988 166.835 17.8214C166.835 25.3446 160.736 31.4421 153.212 31.4421C145.691 31.4421 139.592 25.3446 139.592 17.8214ZM153.212 26.4475C157.413 26.4475 160.819 22.5851 160.819 17.8214C160.819 13.0579 157.413 9.19506 153.212 9.19506C149.013 9.19506 145.608 13.0579 145.608 17.8214C145.608 22.5849 149.013 26.4475 153.212 26.4475Z" fill="#DCDCDC"/>
<path fill-rule="evenodd" clip-rule="evenodd" d="M182.289 9.87559V30.8235H176.55V9.87559H176.569H168.543V5.13965H190.294V9.87559H182.307H182.289Z" fill="#DCDCDC"/>
<path fill-rule="evenodd" clip-rule="evenodd" d="M197.237 25.045L197.232 25.0504L195.03 30.8238H188.328L198.924 5.13965H202.497H206.066L216.663 30.8238H209.96L207.758 25.0504L207.753 25.045H202.497H197.237ZM202.497 20.7101H206.107L206.105 20.7112L202.521 11.3106H202.471L198.885 20.7112L198.884 20.7101H202.497Z" fill="#DCDCDC"/>
<path fill-rule="evenodd" clip-rule="evenodd" d="M76.4999 9.87559V30.8235H70.7608V9.87559H70.7803H62.7539V5.13965H84.506V9.87559H76.5199H76.4999Z" fill="#DCDCDC"/>
<path fill-rule="evenodd" clip-rule="evenodd" d="M85.9727 17.8214C85.9727 10.299 92.0719 4.20068 99.5951 4.20068C107.118 4.20068 113.216 10.2988 113.216 17.8214C113.216 25.3446 107.118 31.4421 99.5951 31.4421C92.0719 31.4421 85.9727 25.3446 85.9727 17.8214ZM99.5951 26.4475C103.794 26.4475 107.2 22.5851 107.2 17.8214C107.2 13.0579 103.795 9.19506 99.5951 9.19506C95.3951 9.19506 91.9893 13.0579 91.9893 17.8214C91.9893 22.5849 95.3951 26.4475 99.5951 26.4475Z" fill="#DCDCDC"/>
<path fill-rule="evenodd" clip-rule="evenodd" d="M126.404 30.8235H129.314V21.191V21.0709L139.326 5.13965H132.625L126.404 15.9351L120.184 5.13965H113.48L123.494 21.0709V21.191V30.8235H126.404Z" fill="#DCDCDC"/>
</svg>
