<svg width="233" height="54" viewBox="0 0 233 54" fill="none" xmlns="http://www.w3.org/2000/svg">
<path d="M35.4376 32.3466C37.3169 28.3113 37.6865 23.7358 36.4793 19.4512C35.272 15.1666 32.568 11.4571 28.8584 8.99662C31.8389 5.93365 35.0667 2.89815 38.4731 0C34.4989 2.36266 30.7272 5.05022 27.1964 8.03515C23.3637 6.03661 18.9546 5.43551 14.7268 6.33516C10.499 7.23481 6.71662 9.57902 4.02971 12.9649C1.3428 16.3507 -0.0808139 20.5668 0.00354475 24.8884C0.0879034 29.2101 1.67497 33.3673 4.49197 36.6458C0.934524 44.3513 0.371377 50.5322 3.44808 52.6199C6.81323 54.8588 14.1204 50.7931 18.5569 44.1864C18.5569 44.1864 11.7717 50.2987 8.04941 48.8977C5.75561 48.0323 5.75561 44.5161 7.63735 39.489C11.2026 42.1046 15.5832 43.3642 19.9933 43.042C24.4033 42.7199 28.5543 40.8369 31.7016 37.7309L32.3609 38.967C40.4647 38.3077 64.6526 37.6622 64.6526 37.6622C64.5976 36.5222 48.5823 37.621 35.4376 32.3466ZM2.22564 24.5038C2.22856 21.7661 2.91793 19.0729 4.23068 16.6704C5.54342 14.268 7.43764 12.2332 9.74002 10.752C12.0424 9.2708 14.6795 8.39061 17.4099 8.19193C20.1404 7.99325 22.8771 8.48243 25.3696 9.61471C17.3407 16.6375 10.6369 25.0439 5.57705 34.4344C3.39646 31.5838 2.21832 28.0928 2.22564 24.5038ZM18.5844 40.8625C14.9117 40.8695 11.3445 39.6353 8.46147 37.36C11.703 30.0528 18.2959 20.2458 27.2926 10.6586C30.672 12.7866 33.1563 16.0773 34.2771 19.9104C35.3979 23.7434 35.0779 27.8541 33.3773 31.4676C30.5378 30.1932 27.9148 28.4832 25.6031 26.3992L30.5341 35.6568C29.0074 37.2998 27.1582 38.6101 25.1021 39.5058C23.046 40.4015 20.8271 40.8634 18.5844 40.8625Z" fill="#DCDCDC"/>
<path d="M146.364 22.8006L149.386 18.7762H138.837L141.433 15.3286H151.996L155.031 11.3042H133.961L119.471 30.5336H140.541L143.562 26.5092H133.014L135.802 22.8006H146.364Z" fill="#DCDCDC"/>
<path d="M160.991 11.3042L146.5 30.5336H157.021L171.498 11.3042H160.991Z" fill="#DCDCDC"/>
<path d="M196.016 11.3042L188.668 21.0563L186.415 11.3042H178.202L163.711 30.5336H170.661L177.941 20.8777L180.18 30.5336H188.476L202.966 11.3042H196.016Z" fill="#DCDCDC"/>
<path d="M230.382 11.3044H213.487C212.115 11.3028 210.761 11.621 209.534 12.2337C208.306 12.8464 207.238 13.7369 206.414 14.8343L197.692 26.4132C197.351 26.8588 197.168 27.4045 197.17 27.9653C197.17 28.6478 197.44 29.3025 197.921 29.7864C198.403 30.2702 199.056 30.5439 199.738 30.5475H216.633C218.007 30.5502 219.363 30.2325 220.594 29.6198C221.824 29.0071 222.894 28.1161 223.72 27.0175L225.822 24.2705H228.267L231.316 20.1499H218.377L214.257 25.5753C214.043 25.8615 213.765 26.0937 213.445 26.2534C213.126 26.4132 212.773 26.4961 212.416 26.4956H209.436C209.257 26.4956 209.086 26.4247 208.96 26.2985C208.833 26.1723 208.763 26.0011 208.763 25.8226C208.761 25.678 208.81 25.5374 208.9 25.4243L215.768 16.2216C215.981 15.9347 216.258 15.7019 216.578 15.542C216.898 15.3822 217.251 15.2997 217.608 15.3013H220.589C220.677 15.3013 220.765 15.3187 220.846 15.3526C220.928 15.3864 221.002 15.436 221.065 15.4985C221.127 15.561 221.177 15.6352 221.21 15.7168C221.244 15.7985 221.262 15.886 221.262 15.9744C221.258 16.1181 221.21 16.2572 221.124 16.3727L219.998 17.8698H230.492L232.346 15.3975C232.636 15.0156 232.813 14.5602 232.857 14.0829C232.901 13.6056 232.811 13.1254 232.597 12.6967C232.383 12.2679 232.052 11.9077 231.644 11.6568C231.236 11.4059 230.765 11.2743 230.286 11.2769L230.382 11.3044Z" fill="#DCDCDC"/>
<path d="M125.335 13.8869C125.335 13.2057 125.065 12.5524 124.583 12.0707C124.101 11.589 123.448 11.3184 122.767 11.3184H105.872C104.498 11.3157 103.142 11.6333 101.912 12.2461C100.681 12.8588 99.6108 13.7498 98.7849 14.8483L90.063 26.4272C89.7786 26.8105 89.6061 27.2651 89.5645 27.7405C89.5229 28.2159 89.6139 28.6936 89.8273 29.1204C90.0407 29.5473 90.3683 29.9066 90.7736 30.1586C91.1788 30.4105 91.646 30.5453 92.1233 30.5478H109.018C110.392 30.5505 111.748 30.2328 112.978 29.6201C114.209 29.0074 115.279 28.1164 116.105 27.0178L124.827 15.439C125.162 14.9911 125.34 14.4459 125.335 13.8869ZM113.592 16.4004L106.724 25.5893C106.511 25.8763 106.233 26.1091 105.913 26.2689C105.594 26.4288 105.241 26.5112 104.883 26.5096H101.848C101.724 26.5084 101.603 26.473 101.498 26.4073C101.393 26.3417 101.308 26.2484 101.253 26.1376C101.197 26.0268 101.174 25.903 101.184 25.7796C101.195 25.6562 101.239 25.5381 101.312 25.4383L108.18 16.2356C108.395 15.9511 108.673 15.72 108.993 15.5604C109.312 15.4008 109.663 15.3169 110.02 15.3153H113.001C113.179 15.3153 113.351 15.3863 113.477 15.5125C113.603 15.6387 113.674 15.8099 113.674 15.9884C113.67 16.1321 113.622 16.2712 113.537 16.3867L113.592 16.4004Z" fill="#DCDCDC"/>
<path d="M85.599 21.3859C87.6407 20.923 89.4515 19.7499 90.7086 18.0757L92.7139 15.4248C93.0036 15.0429 93.1806 14.5875 93.2249 14.1102C93.2692 13.6329 93.1791 13.1528 92.9648 12.724C92.7504 12.2953 92.4203 11.9351 92.0119 11.6842C91.6035 11.4333 91.133 11.3017 90.6536 11.3042H69.3364L54.8457 30.5337H76.9046C78.279 30.5363 79.6351 30.2187 80.8653 29.6059C82.0956 28.9932 83.1661 28.1022 83.992 27.0037L86.0386 24.2566C86.3088 23.9014 86.4537 23.4667 86.4506 23.0204C86.4501 22.6973 86.3741 22.3787 86.2286 22.0902C86.0831 21.8016 85.8722 21.5511 85.6128 21.3585L85.599 21.3859ZM75.847 23.8858L74.5421 25.6164C74.3282 25.9025 74.0504 26.1347 73.7308 26.2945C73.4113 26.4543 73.0588 26.5372 72.7016 26.5367H68.4024L71.1495 22.8281H75.2701C75.4486 22.8281 75.6198 22.8991 75.746 23.0253C75.8722 23.1515 75.9431 23.3227 75.9431 23.5012C75.9432 23.6456 75.8948 23.7858 75.8058 23.8995L75.847 23.8858ZM81.4784 16.4138L80.3659 17.8834C80.1498 18.1663 79.8712 18.3952 79.5519 18.5525C79.2326 18.7098 78.8813 18.791 78.5254 18.79H74.2262L76.8222 15.3424H80.9428C81.0312 15.3424 81.1187 15.3598 81.2003 15.3936C81.282 15.4275 81.3562 15.477 81.4187 15.5395C81.4812 15.602 81.5307 15.6762 81.5646 15.7579C81.5984 15.8395 81.6158 15.9271 81.6158 16.0154C81.612 16.1592 81.564 16.2982 81.4784 16.4138Z" fill="#DCDCDC"/>
</svg>
