<svg width="142" height="67" viewBox="0 0 142 67" fill="none" xmlns="http://www.w3.org/2000/svg">
<path d="M7.79422 39.328H14.9846C16.3475 39.328 17.6207 40.3235 17.6898 41.6427H17.7553V36.2214H7.79422L7.78937 26.7054H17.4C18.7689 26.7054 20.0433 27.6972 20.1149 29.0129H20.1779L20.1682 23.5879L0 23.5964V23.6558C1.35805 23.7298 2.37658 25.1679 2.37658 26.5114V51.44C2.37658 52.7787 1.35805 54.2228 0 54.2992V54.3574H10.1757V54.2992C8.8164 54.2228 7.78937 52.7787 7.78937 51.44L7.79422 39.328Z" fill="#DCDCDC"/>
<path d="M28.6145 46.085C28.6145 49.2837 31.2821 52.0495 34.5742 52.0495C37.8626 52.0495 40.5399 49.2473 40.5399 46.0474V26.5109C40.5399 25.1675 39.5177 23.7294 38.156 23.6554V23.5972L48.339 23.5875V23.6554C46.9797 23.7294 45.9503 25.1675 45.9503 26.5109V45.4945C45.9503 51.6045 40.8843 55.1646 34.6009 55.1646C28.3066 55.1646 23.186 51.6045 23.186 45.4945L23.1993 26.5109C23.1993 25.1675 22.1723 23.7294 20.8203 23.6554V23.5875H30.9887V23.6554C29.6331 23.7367 28.6097 25.1759 28.6097 26.5109L28.6145 46.085Z" fill="#DCDCDC"/>
<path d="M111.818 28.5701C110.112 25.8213 106.218 26.1523 106.218 26.1523C99.8502 26.1523 100.151 30.9964 100.151 30.9964C100.151 30.9964 99.7132 33.4264 102.913 35.0839L109.28 38.4572C115.427 41.7456 114.698 46.4188 114.698 46.4188C114.698 46.4188 114.975 55.1491 102.121 55.1491C102.121 55.1491 98.3867 55.2631 96.272 54.4725L94.4629 48.8184H94.5259C96.4842 51.6339 102.173 52.0401 102.173 52.0401C109.397 51.7236 109.446 46.8298 109.446 46.8298C109.446 46.8298 109.771 44.7224 106.944 43.1958L100.607 39.8237C93.9912 36.2989 94.7491 31.5518 94.7491 31.5518C94.7491 31.5518 94.5926 22.9633 105.965 22.9633C105.965 22.9633 111.07 23.0943 111.883 23.8885V28.5701H111.818Z" fill="#DCDCDC"/>
<path d="M62.2011 12.8908C63.3287 13.9942 64.9026 14.672 66.6208 14.672C70.0826 14.672 72.8848 11.9486 72.8848 8.58261C72.8848 5.22629 70.0826 2.49807 66.6208 2.49807C66.6208 2.49807 61.7985 2.05307 59.628 8.05273L59.6353 3.54934C61.2504 1.49408 63.7507 0.000228882 66.6208 0.000228882C71.5049 0.000228882 75.4566 3.83914 75.4566 8.58261C75.4566 13.3188 71.5049 17.1723 66.6208 17.1723C64.1811 17.1723 61.9743 16.2156 60.3798 14.655L57.3412 11.3339C56.5082 10.5251 55.3623 10.0328 54.1061 10.0328C51.5755 10.0328 49.5239 12.0214 49.5239 14.478C49.5239 16.9443 51.5755 18.9377 54.1061 18.9377C54.1061 18.9377 57.4903 19.3791 59.628 15.3013L59.6353 18.9074C58.3258 20.4522 56.3263 21.438 54.1061 21.438C50.1557 21.438 46.9473 18.3218 46.9473 14.478C46.9473 10.6415 50.1557 7.53255 54.1061 7.53255C56.0741 7.53255 57.8614 8.3013 59.1588 9.56962L62.2011 12.8908Z" fill="#DCDCDC"/>
<path d="M63.8294 26.4461C63.8294 25.1014 62.8061 23.7239 61.4492 23.6548V23.5966H71.6091V23.6548C70.2608 23.73 69.2325 25.1087 69.2325 26.4461V51.4281C69.2325 52.7692 70.2608 54.2121 71.6091 54.2921V54.3491H61.4492V54.2921C62.8061 54.2121 63.8294 52.7692 63.8294 51.4281V26.4461Z" fill="#DCDCDC"/>
<path d="M57.4495 26.5112C57.4495 25.1678 58.4705 23.7297 59.8285 23.6557V23.5963H49.6529V23.6557C51.0146 23.7297 52.0307 25.1678 52.0307 26.5112L52.0392 57.7427C52.0392 57.7427 51.9252 63.2574 47.4824 66.4306L47.4933 66.4912C48.37 66.3481 57.4568 64.6712 57.4568 55.8936L57.4495 26.5112Z" fill="#DCDCDC"/>
<path d="M71.5723 29.1307H71.6329C73.0103 26.7335 75.1347 26.7056 75.1347 26.7056H80.6433L80.6469 51.4402C80.6469 52.7789 79.6223 54.2121 78.2655 54.2921V54.3491H88.4545V54.2921C87.0868 54.2121 86.0585 52.7692 86.0585 51.4402L86.0658 26.7056L90.6698 26.6947C92.0679 26.6947 93.1749 27.7787 93.2149 29.1307H93.2707L94.9622 23.5869H73.2686L71.5723 29.1307Z" fill="#DCDCDC"/>
<path d="M122.278 46.085C122.278 49.2837 124.946 52.0495 128.239 52.0495C131.524 52.0495 134.204 49.2473 134.204 46.0474V26.5109C134.204 25.1675 133.18 23.7294 131.825 23.6554V23.5972L142 23.5875V23.6554C140.651 23.7294 139.623 25.1675 139.623 26.5109V45.4945C139.623 51.6045 134.554 55.1646 128.261 55.1646C121.979 55.1646 116.857 51.6045 116.857 45.4945L116.864 26.5109C116.864 25.1675 115.84 23.7294 114.48 23.6554V23.5875H124.659V23.6554C123.296 23.7367 122.271 25.1759 122.271 26.5109L122.278 46.085Z" fill="#DCDCDC"/>
</svg>
