<svg width="182" height="39" viewBox="0 0 182 39" fill="none" xmlns="http://www.w3.org/2000/svg">
<path d="M41.451 0.000175476H0V38.2427L41.451 0.000175476Z" fill="#DCDCDC"/>
<path d="M20.7227 -0.000221252H0V19.1299L20.7227 -0.000221252Z" fill="#DCDCDC"/>
<path d="M99.3328 8.301L93.9219 29.9346H103.482L108.888 8.301H99.3328Z" fill="#DCDCDC"/>
<path d="M77.5007 20.8392H75.3083L78.8432 14.5983L79.9898 20.8392H77.5007ZM76.1405 8.29869L63.8457 29.9312H70.1685L72.2094 26.3254H80.987L81.6411 29.9312H90.9732L87.0066 8.29869H76.1405Z" fill="#DCDCDC"/>
<path d="M142.992 8.301L137.596 29.9346H147.154L152.551 8.301H142.992Z" fill="#DCDCDC"/>
<path d="M138.72 8.301H128.925L120.725 15.3775L122.514 8.301H113.352L107.955 29.9346H117.089L118.955 22.4662L123.839 29.9346H134.895L126.707 18.6048L138.72 8.301Z" fill="#DCDCDC"/>
<path d="M56.3428 18.1322C56.3428 18.1322 55.7219 25.159 49.7344 25.159H46.3466L49.3304 13.4905H52.405C53.5051 13.4972 56.6892 13.7827 56.3428 18.1322ZM55.858 8.31097L53.3855 8.30322H41.4238L36.0273 29.9279H47.9049L52.6042 29.9346C59.2203 29.9346 65.7313 25.0096 65.7313 17.466C65.7313 8.58987 55.858 8.31097 55.858 8.31097Z" fill="#DCDCDC"/>
<path d="M175.383 8.29769L172.194 21.0363L167.946 8.29769H157.315L151.914 29.9346H158.525L161.744 17.0841L166.005 29.9346H176.591L182 8.29769H175.383Z" fill="#DCDCDC"/>
</svg>
