<svg width="246" height="27" viewBox="0 0 246 27" fill="none" xmlns="http://www.w3.org/2000/svg">
<path fill-rule="evenodd" clip-rule="evenodd" d="M0 16.2009V26.4658H22.6714V14.74H27.0932C29.9151 14.74 34.6182 15.2265 38.8999 16.2009C43.8858 17.3186 48.3075 19.1674 48.3075 21.7952C48.3075 23.9842 45.0154 26.4658 44.9216 26.4658H77.3296C77.3296 26.4658 76.5303 22.7681 74.8366 20.3358C73.7546 18.7316 72.3913 17.32 70.3211 16.2023C68.5336 15.2279 66.2283 14.4505 63.0775 13.9148V13.3791C64.536 13.3791 68.4399 11.9197 71.8258 9.58443C76.3875 6.42099 77.2344 0.535686 77.2344 0.535686H45.1553C45.1553 0.535686 47.8372 2.82321 47.8372 4.91383C47.8372 9.29197 32.6921 12.6002 27.1884 12.6002H22.6728V0.535686H0V16.2009ZM82.9719 16.2009V0.681913H91.1085V9.05019L98.3059 0.681913H107.854L98.7762 10.4126L102.397 16.2023L108.842 26.4672H99.059L93.0387 16.2023L91.1099 18.2929V26.4672H82.9733V16.2009H82.9719ZM110.866 16.2009C114.722 14.5953 120.367 15.519 120.367 13.1837C120.367 11.8213 118.769 11.675 118.016 11.675C116.981 11.675 115.664 11.8691 115.476 13.4747H108.562C108.562 9.48598 111.29 7.19846 118.44 7.19846C127.047 7.19846 127.565 10.4575 127.565 14.934V23.7396C127.565 24.8095 127.612 25.3437 128.553 26.1226V26.4629H121.074L120.745 24.4678C118.722 26.4629 116.606 26.9971 113.924 26.9971C110.491 26.9971 107.434 25.2467 107.434 21.355C107.431 18.4884 108.937 17.0276 110.866 16.2009ZM129.492 16.2009L126.764 7.73414H133.772L135.795 16.2009L136.547 19.3136L137.346 16.2009L139.416 7.73414H145.531L147.553 16.2009L148.306 19.3136L149.059 16.2009L151.175 7.73414H157.996L155.36 16.2009L152.21 26.4658H145.201L142.567 16.2009L142.378 15.4697L142.19 16.2009L139.791 26.4658H132.737L129.492 16.2009ZM159.312 16.2009C163.122 14.5953 168.766 15.519 168.766 13.1837C168.766 11.8213 167.215 11.675 166.414 11.675C165.426 11.675 164.061 11.8691 163.921 13.4747H156.959C156.959 9.48598 159.735 7.19846 166.884 7.19846C175.445 7.19846 175.962 10.4575 175.962 14.934V23.7396C175.962 24.8095 176.008 25.3437 176.95 26.1226V26.4629H169.517L169.141 24.4678C167.118 26.4629 165.048 26.9971 162.32 26.9971C158.934 26.9971 155.875 25.2467 155.875 21.355C155.878 18.4884 157.337 17.0276 159.312 16.2009ZM177.986 16.2009C177.468 15.4697 177.186 14.546 177.186 13.3777C177.186 8.56083 181.985 7.19846 185.793 7.19846C189.743 7.19846 194.354 8.1236 194.777 13.0852H188.239C188.145 12.4525 187.91 12.0631 187.533 11.7243C187.157 11.384 186.639 11.2378 186.075 11.2378C184.853 11.2378 184.053 11.6765 184.053 12.6002C184.053 14.449 189.743 14.1088 193.085 16.2009C194.495 17.0753 195.484 18.3899 195.484 20.482C195.484 24.3737 192.379 27 185.746 27C181.607 27 176.997 25.6868 176.621 20.6282H183.488C183.488 21.4057 183.769 21.9892 184.24 22.3801C184.71 22.7189 185.322 22.9143 186.027 22.9143C187.108 22.9143 188.285 22.5741 188.285 21.2595C188.288 18.7316 180.479 19.9956 177.986 16.2009ZM199.2 16.2009C203.01 14.5953 208.654 15.519 208.654 13.1837C208.654 11.8213 207.054 11.675 206.302 11.675C205.314 11.675 203.949 11.8691 203.763 13.4747H196.85C196.85 9.48598 199.577 7.19846 206.774 7.19846C215.335 7.19846 215.851 10.4575 215.851 14.934V23.7396C215.851 24.8095 215.899 25.3437 216.839 26.1226V26.4629H209.361L209.032 24.4678C207.009 26.4629 204.939 26.9971 202.211 26.9971C198.777 26.9971 195.719 25.2467 195.719 21.355C195.717 18.4884 197.224 17.0276 199.2 16.2009ZM217.262 16.2009V0.681913H224.458V13.4283L229.067 7.73559H237.488L230.761 14.9847L231.56 16.2023L238.381 26.4672H229.725L225.821 19.8015L224.457 21.2132V26.4672H217.261V16.2009H217.262ZM238.803 7.73559V26.4672H246V7.73559H238.803ZM238.803 0V5.30329H246V0L238.803 0ZM208.652 18.1945C206.301 19.3629 203.198 18.778 203.198 21.2117C203.198 22.1354 204.043 22.7681 205.455 22.7681C207.996 22.7695 208.841 20.7252 208.652 18.1945ZM168.766 18.1945C166.414 19.3629 163.311 18.778 163.311 21.2117C163.311 22.1354 164.156 22.7681 165.615 22.7681C168.109 22.7695 168.955 20.7252 168.766 18.1945ZM120.366 18.1945C118.014 19.3629 114.91 18.778 114.91 21.2117C114.91 22.1354 115.756 22.7681 117.167 22.7681C119.708 22.7695 120.555 20.7252 120.366 18.1945Z" fill="#DCDCDC"/>
</svg>
