<svg width="181" height="36" viewBox="0 0 181 36" fill="none" xmlns="http://www.w3.org/2000/svg">
<path d="M157.395 8.3693H167.698V24.3471C167.698 24.3471 167.698 26.4694 169.197 26.4694C170.697 26.4694 170.466 24.3871 170.466 24.3871V8.40934H181V25.7086C181 25.7086 181 36 169.351 36C157.702 36 157.433 27.2303 157.395 26.069V8.3693ZM127.484 35.119H116.95V18.2603H111.03V8.44939H127.215V0H137.019V10.4516C137.019 10.4516 141.017 7.20801 145.823 7.56841C150.59 7.92881 154.473 10.0912 154.742 10.6518L152.012 17.5795C152.012 17.5795 147.245 15.0167 145.9 15.3771C144.554 15.7375 144.246 16.2981 144.9 17.099C145.554 17.8999 148.783 18.2202 149.59 18.7008C150.398 19.1813 154.05 20.1424 154.703 25.0679C155.357 29.9933 152.051 34.6785 147.63 35.3593C143.208 36.04 137.365 36.04 132.751 32.3159L135.519 25.228C135.519 25.228 139.441 27.6307 141.44 27.8309C143.439 28.0311 144.323 28.1112 144.554 27.1502C144.823 26.1891 143.208 25.5884 142.093 25.3882C140.979 25.188 136.327 23.9466 135.212 20.9433C134.097 17.9399 133.751 14.376 136.788 10.5717H127.484V35.119ZM40.0599 7.04783C32.5631 7.04783 26.4887 13.455 26.4887 21.3437C26.4887 29.2325 32.5631 35.6396 40.0599 35.6396C47.5567 35.6396 53.6311 29.2325 53.6311 21.3437C53.6311 13.455 47.5567 7.04783 40.0599 7.04783ZM63.4346 34.9588H53.9002L57.9369 8.24917H67.5098L70.5469 18.2202L73.6994 8.28921H83.3107L86.9246 32.6763L94.9596 8.28921H105.225L113.759 34.9188H103.11L100.034 22.465L97.0741 34.9989H77.5824L76.083 25.3482L73.4688 34.9188H67.5482L64.9339 25.3081L63.4346 34.9588ZM10.5724 34.6385H0V8.0089H10.6109V20.4627L15.8394 8.0089H27.7959L22.0291 20.9833L28.1419 34.6385H16.147L10.5724 21.7041V34.6385ZM39.983 25.1079C38.0223 25.1079 36.4076 23.426 36.4076 21.3838C36.4076 19.3014 37.9839 17.6596 39.983 17.6596C41.9437 17.6596 43.5584 19.3415 43.5584 21.3838C43.5584 23.426 41.9437 25.1079 39.983 25.1079Z" fill="#DCDCDC"/>
</svg>
