<svg width="157" height="30" viewBox="0 0 157 30" fill="none" xmlns="http://www.w3.org/2000/svg">
<path d="M8.26646 3.44096C8.12745 2.97443 6.92667 0.585134 6.92667 0.585134L19.3899 0.590406C23.5642 0.590406 28.6784 0.958092 31.2097 3.8271C33.2472 6.136 33.4286 9.77069 31.7578 14.9367C27.4445 28.2986 18.0382 29.4043 8.23336 29.4043H0L8.26646 3.44096ZM10.6429 25.8777C14.1181 25.8605 17.1048 25.3005 18.9173 24.117C21.2288 22.6002 22.8268 19.9644 24.4274 15.0171C25.8466 10.6154 26.4516 7.42356 24.9291 5.70374C23.9177 4.55061 21.4843 3.99446 18.3559 3.99446C18.2143 3.99446 18.0739 3.99447 17.9429 3.99552C17.9429 3.99552 16.611 3.97053 15.2818 4.13258L8.71659 24.5635C8.71659 24.5635 8.36708 25.8774 9.94252 25.8774L10.6429 25.8777ZM44.4077 25.879L57.5872 25.8922L56.4526 29.4056H34.5089L42.774 3.44228C42.6363 2.97443 41.4594 0.581181 41.4594 0.581181H64.7866L63.6507 4.09462H49.7907L47.045 12.6305H56.7187L55.5828 16.1531H45.9157L43.244 24.4913C43.244 24.4913 42.8799 25.8448 44.4077 25.879ZM66.9869 29.4043L73.6197 8.19452L81.6306 29.4043H87.8437L97.1495 0.579863H92.1332L85.7824 20.7591L85.6844 20.5245L78.2242 0.579863H68.7199C68.7199 0.579863 69.8982 2.97312 70.0359 3.44096L61.7694 29.4043H66.9869ZM121.664 5.39931C120.519 4.87744 117.804 3.7019 113.925 3.65709C112.81 3.64866 110.121 3.96284 109.217 6.77254C108.452 9.13811 111.013 10.4112 113.984 11.8806C117.789 13.7678 122.098 15.9093 120.428 21.0833C118.628 26.6566 112.782 29.975 104.394 29.8498C98.2814 29.7601 95.2973 28.6255 95.2973 28.6255L97.0038 23.3184L98.2403 24.0221C99.461 24.7153 102.693 26.3337 106.31 26.3337C107.52 26.3337 109.229 26.1149 110.604 25.2662C111.588 24.66 112.288 23.6663 112.692 22.4143C113.52 19.8484 110.886 18.52 107.833 16.9781C104.117 15.1041 99.9018 12.9797 101.534 7.94676C102.199 5.86979 103.618 4.08013 105.628 2.76621C108.249 1.05034 111.22 0.173959 115.983 0.143648C119.329 0.126568 122.579 0.566684 123.943 0.922509L124.45 1.06484L124.26 1.68028L123.293 4.67185L122.88 5.95677L121.664 5.39931ZM126.728 15.1041C128.632 9.2106 131.224 5.34792 134.899 2.94676C137.932 0.964681 141.635 0 146.223 0C150.599 0 153.568 0.950185 155.293 2.898C157.441 5.33869 157.561 9.21323 155.658 15.1041C153.594 21.4945 149.364 30 136.53 30C131.977 30 128.907 29.0287 127.144 27.0282C125.011 24.6152 124.881 20.8197 126.728 15.1041ZM137.678 26.4457C139.492 26.4457 141.036 26.0477 142.352 25.1463C145.363 23.1075 147.055 18.8864 148.28 15.1041C149.612 10.9686 150.599 6.86347 148.811 4.83131C148.048 3.97206 146.825 3.54902 145.071 3.54902C138.713 3.54902 136.044 9.10121 134.11 15.1041C133.066 18.3395 131.894 22.902 133.834 25.0988C134.633 26.0042 135.89 26.4457 137.678 26.4457Z" fill="#DCDCDC"/>
</svg>
